<?xml version="1.0" standalone="no"?>
<!DOCTYPE svg PUBLIC "-//W3C//DTD SVG 1.1//EN" "http://www.w3.org/Graphics/SVG/1.1/DTD/svg11.dtd" >
<svg>
<metadata>
Created by FontForge 20090622 at Thu Aug 15 08:40:06 2019
 By deploy user
&#194;&#169;2009-2010 Optimo.
</metadata>
<defs>
<font id="Theinhardt-Light" horiz-adv-x="450" >
  <font-face 
    font-family="Theinhardt Light"
    font-weight="350"
    font-stretch="normal"
    units-per-em="1000"
    panose-1="2 11 3 3 2 2 2 2 2 4"
    ascent="802"
    descent="-198"
    x-height="476"
    cap-height="680"
    bbox="-59 -278 1218 918"
    underline-thickness="45"
    underline-position="-76"
    unicode-range="U+0020-U+FB02"
  />
<missing-glyph horiz-adv-x="644" 
d="M50 240v49l309 309q16 -9 26 -23zM50 142v49l347 347v-15q0 -20 -13.5 -37.5t-42 -40t-36.5 -30.5q-23 -22 -36 -54zM104 0h-49l261 261h49l-93 -93h-23v-23zM321 168l273 273v-49l-224 -224h-49zM398 0h-49l33 33h2v2l210 210v-49zM50 338v49l148 148l39 -2q0 29 20 52
t55 23h8zM384 133l210 210v-49l-210 -210v49zM50 44v49l206 206v-38h11zM50 583l196 196h49l-44 -44q-53 -14 -92.5 -53.5t-54.5 -93.5l-54 -54v49zM537 482l57 57v-49l-216 -216v7q0 15 6.5 27.5t11 17.5t25.5 20t27 20q2 1 15.5 11t21.5 17.5t20 20.5t20 30t12 37zM50 681
l98 98h49l-147 -147v49zM496 0h-49l147 147v-49zM459 698l81 81h49l-104 -104q-12 13 -26 23zM50 436v49l56 56l46 -3zM506 647l88 88v-49l-70 -70q-7 15 -18 31zM202 0h-49l96 96v-49zM536 579l58 58v-49l-52 -52q0 15 -6 43zM395 732l47 47h49l-62 -62q-17 9 -34 15z
M307 742l37 37h49l-38 -38q-18 2 -28 2zM300 0h-49l33 33h49zM594 49v-49h-49zM50 779h49l-49 -49v49z" />
    <glyph glyph-name="fi" unicode="fi" horiz-adv-x="520" 
d="M451 475v-475h-59v475h59zM451 680v-98h-59v98h59zM292 476v-46h-108v-430h-59v430h-108v46h108v108q0 53 22 78q26 30 84 30q29 0 61 -9v-54q-32 10 -57 10q-23 0 -36 -11q-15 -14 -15 -52v-100h108z" />
    <glyph glyph-name="fl" unicode="fl" horiz-adv-x="525" 
d="M451 680v-680h-59v680h59zM292 476v-46h-108v-430h-59v430h-108v46h108v108q0 53 22 78q26 30 84 30q29 0 61 -9v-54q-32 10 -57 10q-23 0 -36 -11q-15 -14 -15 -52v-100h108z" />
    <glyph glyph-name=".notdef" horiz-adv-x="644" 
d="M50 240v49l309 309q16 -9 26 -23zM50 142v49l347 347v-15q0 -20 -13.5 -37.5t-42 -40t-36.5 -30.5q-23 -22 -36 -54zM104 0h-49l261 261h49l-93 -93h-23v-23zM321 168l273 273v-49l-224 -224h-49zM398 0h-49l33 33h2v2l210 210v-49zM50 338v49l148 148l39 -2q0 29 20 52
t55 23h8zM384 133l210 210v-49l-210 -210v49zM50 44v49l206 206v-38h11zM50 583l196 196h49l-44 -44q-53 -14 -92.5 -53.5t-54.5 -93.5l-54 -54v49zM537 482l57 57v-49l-216 -216v7q0 15 6.5 27.5t11 17.5t25.5 20t27 20q2 1 15.5 11t21.5 17.5t20 20.5t20 30t12 37zM50 681
l98 98h49l-147 -147v49zM496 0h-49l147 147v-49zM459 698l81 81h49l-104 -104q-12 13 -26 23zM50 436v49l56 56l46 -3zM506 647l88 88v-49l-70 -70q-7 15 -18 31zM202 0h-49l96 96v-49zM536 579l58 58v-49l-52 -52q0 15 -6 43zM395 732l47 47h49l-62 -62q-17 9 -34 15z
M307 742l37 37h49l-38 -38q-18 2 -28 2zM300 0h-49l33 33h49zM594 49v-49h-49zM50 779h49l-49 -49v49z" />
    <glyph glyph-name=".null" horiz-adv-x="0" 
 />
    <glyph glyph-name="nonmarkingreturn" horiz-adv-x="333" 
 />
    <glyph glyph-name="space" unicode=" " horiz-adv-x="200" 
 />
    <glyph glyph-name="exclam" unicode="!" horiz-adv-x="216" 
d="M140 356l-10 -180h-45l-9 180v324h64v-324zM70 114h76v-114h-76v114z" />
    <glyph glyph-name="quotedbl" unicode="&#x22;" horiz-adv-x="302" 
d="M124 603l-21 -196h-30l-19 196v77h70v-77zM248 603l-21 -196h-30l-19 196v77h70v-77z" />
    <glyph glyph-name="numbersign" unicode="#" horiz-adv-x="688" 
d="M649 472v-57h-176l-28 -166h183v-56h-194l-31 -193h-59l32 193h-128l-31 -193h-59l32 193h-152v56h162l28 166h-169v57h178l36 208h59l-36 -208h127l36 208h59l-36 -208h167zM286 415l-27 -166h127l28 166h-128z" />
    <glyph glyph-name="dollar" unicode="$" horiz-adv-x="570" 
d="M509 570l-48 -40q-58 79 -141 93v-246l30 -6q94 -20 140.5 -60t46.5 -117q0 -81 -58 -134t-159 -60v-99h-60v99q-87 8 -146 51t-86 103l55 36q20 -51 65 -89t112 -46v273l-16 4q-42 9 -71 20t-57 30t-42 49.5t-14 72.5q0 73 55 121.5t145 54.5v103h60v-104
q123 -14 189 -109zM329 314l-9 2v-262q72 6 111.5 42.5t39.5 94.5q0 51 -34 79t-108 44zM124 509q0 -52 31.5 -77.5t102.5 -41.5l2 -1v236q-60 -5 -98 -36.5t-38 -79.5z" />
    <glyph glyph-name="percent" unicode="%" horiz-adv-x="872" 
d="M332 470q0 -87 -38 -148t-112 -61q-53 0 -88 31.5t-48 76.5t-13 101q0 42 7.5 78.5t23.5 70t47 52.5t73 19q43 0 74 -20t46 -54t21.5 -69.5t6.5 -76.5zM278 469q0 80 -23.5 127.5t-71.5 47.5q-47 0 -71 -47t-24 -120q0 -72 23.5 -120t71.5 -48q50 0 72.5 44.5t22.5 115.5
zM638 680l-354 -680h-58l356 680h56zM839 197q0 -87 -38 -148t-112 -61q-53 0 -88 31.5t-48 76.5t-13 101q0 42 7.5 78.5t23.5 70t47 52.5t73 19q43 0 74 -20t46 -54t21.5 -69.5t6.5 -76.5zM785 196q0 80 -23.5 127.5t-71.5 47.5q-47 0 -71 -47t-24 -120q0 -72 23.5 -120
t71.5 -48q50 0 72.5 44.5t22.5 115.5z" />
    <glyph glyph-name="ampersand" unicode="&#x26;" horiz-adv-x="611" 
d="M539 0l-84 95q-74 -107 -206 -107q-81 0 -142.5 49.5t-61.5 134.5q0 76 43.5 123.5t128.5 90.5q-12 15 -22 26q-61 75 -61 141q0 56 42 96.5t113 40.5q73 0 113 -39t40 -94q0 -110 -138 -184l148 -179q27 63 38 130l55 -15q-15 -91 -56 -163l127 -146h-77zM420 139
l-171 207q-34 -19 -54 -32.5t-43 -34t-33.5 -46t-10.5 -55.5q0 -63 43.5 -99t102.5 -36q51 0 95 25t71 71zM252 440l21 -27q107 53 107 137q0 42 -26 65t-65 23q-41 0 -66.5 -22.5t-25.5 -60.5q0 -10 2 -20t4 -17.5t7 -17l8 -15t9 -14t8.5 -11.5l9 -11t7.5 -9z" />
    <glyph glyph-name="quotesingle" unicode="'" horiz-adv-x="181" 
d="M128 604l-23 -197h-30l-21 197v76h74v-76z" />
    <glyph glyph-name="parenleft" unicode="(" horiz-adv-x="239" 
d="M218 -151l-49 -9q-125 198 -125 418q0 221 124 422l50 -7q-112 -191 -112 -412t112 -412z" />
    <glyph glyph-name="parenright" unicode=")" horiz-adv-x="239" 
d="M70 -160l-49 9q112 191 112 412t-112 412l50 7q124 -201 124 -422q0 -220 -125 -418z" />
    <glyph glyph-name="asterisk" unicode="*" horiz-adv-x="436" 
d="M242 680l-2 -150l144 49l14 -46l-146 -44l93 -123l-39 -28l-88 124l-89 -124l-37 29l92 122l-147 45l16 45l142 -49l-1 150h48z" />
    <glyph glyph-name="plus" unicode="+" horiz-adv-x="648" 
d="M353 269v-269h-57v269h-265v56h265v268h57v-268h264v-56h-264z" />
    <glyph glyph-name="comma" unicode="," horiz-adv-x="202" 
d="M60 114h82v-106q0 -54 -15 -88q-22 -48 -71 -61v43q43 16 43 89v9h-39v114z" />
    <glyph glyph-name="hyphen" unicode="-" horiz-adv-x="413" 
d="M345 298v-59h-277v59h277z" />
    <glyph glyph-name="period" unicode="." horiz-adv-x="202" 
d="M60 114h82v-114h-82v114z" />
    <glyph glyph-name="slash" unicode="/" horiz-adv-x="465" 
d="M382 679h62l-358 -679h-63z" />
    <glyph glyph-name="zero" unicode="0" horiz-adv-x="590" 
d="M295 638q-90 0 -138 -82.5t-48 -213.5q0 -61 9 -112t29.5 -94.5t58 -68t89.5 -24.5t89.5 24.5t57.5 68t29 94t9 112.5q0 131 -47.5 213.5t-137.5 82.5zM295 -12q-67 0 -117.5 29t-79.5 79t-43 111t-14 133q0 156 64.5 254t189.5 98q124 0 189 -98t65 -254
q0 -71 -14 -132.5t-43 -111.5t-79.5 -79t-117.5 -29z" />
    <glyph glyph-name="one" unicode="1" horiz-adv-x="590" 
d="M383 0h-61v523q-41 -41 -145 -41q-21 0 -32 1v53h16q76 0 116 29q49 36 52 116h54v-681z" />
    <glyph glyph-name="two" unicode="2" horiz-adv-x="590" 
d="M167 369l-72 11q-23 49 -23 108q0 87 59.5 145.5t157.5 58.5q107 0 164.5 -62.5t57.5 -158.5q0 -51 -15.5 -96t-47.5 -84.5t-59.5 -66t-72.5 -62.5q-95 -76 -149 -107h347v-55h-434v55q89 59 235 181q65 59 98 110t33 123q0 78 -45.5 124t-113.5 46q-72 0 -112 -44
t-40 -109q0 -72 32 -117z" />
    <glyph glyph-name="three" unicode="3" horiz-adv-x="590" 
d="M135 504l-58 21q0 22 11.5 48.5t34.5 54t66.5 46t99.5 18.5q100 0 155 -50.5t55 -125.5q0 -65 -35.5 -104t-93.5 -48q61 -12 104 -55.5t43 -118.5q0 -89 -63 -145.5t-167 -56.5q-99 0 -160 51t-64 140l60 19q4 -82 49.5 -119t115.5 -37q68 0 115.5 41t47.5 108
q0 88 -73 120q-40 20 -150 20h-51v53h43q105 0 152 23q64 29 64 107q0 53 -39 89t-108 36q-71 0 -111 -38.5t-43 -96.5z" />
    <glyph glyph-name="four" unicode="4" horiz-adv-x="590" 
d="M418 183v-183h-61v183h-313v43l318 458h56v-446h124v-55h-124zM116 238h241v226q0 97 4 136h-1q-17 -36 -83 -132z" />
    <glyph glyph-name="five" unicode="5" horiz-adv-x="590" 
d="M166 625l-15 -235q19 29 59.5 50t94.5 21q96 0 157.5 -62.5t61.5 -167.5t-61 -174t-170 -69q-88 0 -147 43.5t-75 123.5l56 32q9 -58 51 -101.5t115 -43.5q75 0 119.5 51t44.5 138q0 76 -42 125.5t-119 49.5q-66 0 -105 -36t-49 -97l-54 12l22 395h368v-55h-312z" />
    <glyph glyph-name="six" unicode="6" horiz-adv-x="590" 
d="M515 535l-58 -22q-4 16 -7.5 27t-14.5 32t-25 33.5t-39 23t-56 10.5q-89 0 -134.5 -74.5t-50.5 -206.5q25 39 75.5 65t112.5 26q91 0 153 -59t62 -163q0 -98 -61 -168.5t-164 -70.5q-112 0 -178 87t-66 262q0 169 65.5 262t188.5 93q49 0 87 -15.5t60 -41t34 -50.5
t16 -50zM131 286q5 -114 51 -179t126 -65q68 0 114 49t46 130q0 83 -46.5 128t-114.5 45q-60 0 -110 -33.5t-66 -74.5z" />
    <glyph glyph-name="seven" unicode="7" horiz-adv-x="590" 
d="M534 680v-51q-94 -145 -147 -276q-64 -157 -87 -353h-69q18 181 96 362q56 130 138 263h-330v-155h-57v210h456z" />
    <glyph glyph-name="eight" unicode="8" horiz-adv-x="590" 
d="M295 692q102 0 159.5 -49t57.5 -126q0 -56 -33 -97t-82 -56q134 -49 134 -176q0 -84 -60 -142t-176 -58q-117 0 -176.5 58t-59.5 142q0 72 40 115t94 62q-50 14 -82.5 54.5t-32.5 97.5q0 77 57.5 126t159.5 49zM295 42q81 0 125 41.5t44 104.5q0 66 -45.5 105.5
t-123.5 39.5t-124 -39.5t-46 -105.5q0 -63 44.5 -104.5t125.5 -41.5zM295 387q72 0 112.5 36.5t40.5 90.5q0 57 -41.5 91.5t-111.5 34.5t-111.5 -34.5t-41.5 -91.5q0 -54 40.5 -90.5t112.5 -36.5z" />
    <glyph glyph-name="nine" unicode="9" horiz-adv-x="590" 
d="M75 145l58 22q5 -21 11 -35.5t21 -38.5t43.5 -37.5t66.5 -13.5q89 0 134.5 74t50.5 206q-25 -39 -75.5 -65t-112.5 -26q-91 0 -153 59t-62 163q0 98 61 168.5t164 70.5q112 0 178 -87t66 -262q0 -169 -65.5 -262t-188.5 -93q-49 0 -87 15.5t-60 41t-34 50.5t-16 50z
M459 396q-5 113 -51 178t-126 65q-68 0 -114 -49t-46 -130q0 -83 46.5 -128t114.5 -45q60 0 110 33.5t66 75.5z" />
    <glyph glyph-name="colon" unicode=":" horiz-adv-x="218" 
d="M68 114h82v-114h-82v114zM68 476h82v-114h-82v114z" />
    <glyph glyph-name="semicolon" unicode=";" horiz-adv-x="221" 
d="M69 476h82v-114h-82v114zM69 114h82v-106q0 -54 -15 -88q-22 -48 -71 -61v43q43 16 43 89v9h-39v114z" />
    <glyph glyph-name="less" unicode="&#x3c;" horiz-adv-x="750" 
d="M705 47v-63l-677 319v66l677 317v-63l-612 -287z" />
    <glyph glyph-name="equal" unicode="=" horiz-adv-x="837" 
d="M755 231v-56h-673v56h673zM755 406v-57h-673v57h673z" />
    <glyph glyph-name="greater" unicode="&#x3e;" horiz-adv-x="750" 
d="M45 -16v63l613 290l-613 286v63l677 -317v-66z" />
    <glyph glyph-name="question" unicode="?" 
d="M237 177v-29h-59v39q0 44 12 71t58 67l37 33q73 67 73 145q0 57 -36.5 95t-99.5 38q-62 0 -97 -39.5t-35 -96.5q0 -42 25 -94l-69 14q-15 45 -15 83q0 82 52.5 133.5t140.5 51.5q90 0 142.5 -51.5t52.5 -130.5q0 -58 -23.5 -100t-69.5 -84l-23 -20q-45 -41 -55.5 -60
t-10.5 -65zM169 104h79v-104h-79v104z" />
    <glyph glyph-name="at" unicode="@" horiz-adv-x="804" 
d="M505 163v79q-7 -2 -40 -8l-69 -13q-96 -19 -96 -81q0 -38 23.5 -59t64.5 -21q51 0 84 26t33 77zM590 60q46 0 81 59t35 153q0 122 -76.5 208t-203.5 86q-143 0 -234 -95.5t-91 -249.5q0 -153 93.5 -247.5t237.5 -94.5q168 0 277 138l28 -40q-113 -145 -305 -145
q-174 0 -280.5 107.5t-106.5 281.5q0 175 107 283t274 108q103 0 180.5 -48t114.5 -122.5t37 -161.5q0 -126 -52.5 -196.5t-124.5 -70.5q-66 0 -74 58q-14 -25 -48.5 -42.5t-77.5 -17.5q-64 0 -102.5 34t-38.5 95q0 56 36.5 84.5t106.5 41.5l104 20q11 2 14.5 5t3.5 14v13
q0 43 -22.5 63.5t-76.5 20.5q-99 0 -101 -100l-54 13q-1 63 43.5 99.5t115.5 36.5q72 0 110.5 -28.5t38.5 -105.5v-201q0 -28 5.5 -42t25.5 -14z" />
    <glyph glyph-name="A" unicode="A" horiz-adv-x="595" 
d="M149 205l-74 -205h-67l259 680h62l257 -680h-68l-76 205h-293zM420 263l-95 250q-18 44 -29 83h-1q-17 -50 -30 -84l-95 -249h250z" />
    <glyph glyph-name="B" unicode="B" horiz-adv-x="652" 
d="M147 324v-268h205q97 0 136 29q52 37 52 106q0 67 -52 104q-39 29 -138 29h-203zM517 501q0 76 -67 107q-38 16 -112 16h-191v-244h191q77 0 112 16q30 13 48.5 40.5t18.5 64.5zM584 506q0 -55 -29.5 -92.5t-85.5 -54.5q65 -15 101 -59t36 -109q0 -112 -92 -161
q-54 -30 -159 -30h-272v680h258q64 0 106 -8t76 -36q61 -51 61 -130z" />
    <glyph glyph-name="C" unicode="C" horiz-adv-x="623" 
d="M588 528l-55 -36q-26 64 -75 104t-122 40q-102 0 -162 -81.5t-60 -214.5t60 -214.5t162 -81.5q77 0 126.5 40.5t72.5 105.5l56 -30q-75 -172 -255 -172q-136 0 -212 95t-76 257q0 161 77 256.5t211 95.5q98 0 160 -47t92 -117z" />
    <glyph glyph-name="D" unicode="D" horiz-adv-x="663" 
d="M238 0h-155v680h176q78 0 124 -6.5t85 -27.5q73 -39 110 -122t37 -182q0 -176 -99 -272q-49 -48 -104.5 -59t-173.5 -11zM146 624v-568h109q58 0 85.5 1.5t61.5 12.5t59 33q38 33 62.5 96t24.5 140q0 74 -22.5 137t-64.5 99q-37 33 -83.5 41t-145.5 8h-86z" />
    <glyph glyph-name="E" unicode="E" horiz-adv-x="584" 
d="M549 56v-56h-466v680h446v-56h-383v-246h347v-57h-347v-265h403z" />
    <glyph glyph-name="F" unicode="F" horiz-adv-x="545" 
d="M147 0h-64v680h438v-56h-374v-244h338v-56h-338v-324z" />
    <glyph glyph-name="G" unicode="G" horiz-adv-x="650" 
d="M336 44q108 0 157 70q42 59 42 168v6h-247v56h302v-344h-56v93q-23 -42 -73 -73.5t-125 -31.5q-136 0 -212 95t-76 257q0 161 77 256.5t211 95.5q98 0 160 -47t92 -117l-55 -36q-26 64 -75 104t-122 40q-102 0 -162 -81.5t-60 -214.5t60 -214.5t162 -81.5z" />
    <glyph glyph-name="H" unicode="H" horiz-adv-x="690" 
d="M607 680v-680h-63v324h-398v-324h-63v680h63v-300h398v300h63z" />
    <glyph glyph-name="I" unicode="I" horiz-adv-x="229" 
d="M146 680v-680h-63v680h63z" />
    <glyph glyph-name="J" unicode="J" horiz-adv-x="473" 
d="M16 161l61 18q1 -69 32 -104.5t99 -35.5q71 0 101 46q23 35 23 115v480h63v-467q0 -106 -29 -155q-43 -73 -160 -73q-185 0 -190 176z" />
    <glyph glyph-name="K" unicode="K" horiz-adv-x="626" 
d="M338 412l287 -412h-79l-256 367l-144 -145v-222h-63v680h63v-380l374 380h84z" />
    <glyph glyph-name="L" unicode="L" horiz-adv-x="532" 
d="M521 56v-56h-438v680h63v-624h375z" />
    <glyph glyph-name="M" unicode="M" horiz-adv-x="777" 
d="M586 448l-175 -448h-38l-184 444q-33 79 -49 140h-1q7 -54 7 -155v-429h-63v680h74l199 -480q34 -82 38 -104h1q7 37 33 103l189 481h77v-680h-63v411q0 128 6 186h-1q-18 -68 -50 -149z" />
    <glyph glyph-name="N" unicode="N" horiz-adv-x="692" 
d="M146 680l346 -494q48 -67 56 -92h1q-3 36 -3 99v487h63v-680h-63l-345 494q-50 71 -58 94h-1q4 -48 4 -100v-488h-63v680h63z" />
    <glyph glyph-name="O" unicode="O" horiz-adv-x="672" 
d="M47 340q0 161 77.5 256.5t211.5 95.5t211.5 -95.5t77.5 -256.5q0 -160 -77.5 -256t-211.5 -96t-211.5 96t-77.5 256zM114 340q0 -133 61 -215t161 -82t161 82t61 215t-60.5 215t-161.5 82t-161.5 -82t-60.5 -215z" />
    <glyph glyph-name="P" unicode="P" horiz-adv-x="605" 
d="M333 301h-186v-301h-64v680h250q108 0 163 -35q85 -51 85 -155q0 -103 -85 -154q-55 -35 -163 -35zM147 624v-267h172q80 0 124 19q70 33 70 115t-70 114q-41 19 -124 19h-172z" />
    <glyph glyph-name="Q" unicode="Q" horiz-adv-x="677" 
d="M47 340q0 161 77.5 256.5t211.5 95.5t211.5 -95.5t77.5 -256.5q0 -148 -66 -240l77 -71l-43 -46l-75 70q-73 -65 -182 -65q-134 0 -211.5 96t-77.5 256zM114 340q0 -133 61 -215t161 -82t161 82t61 215t-60.5 215t-161.5 82t-161.5 -82t-60.5 -215z" />
    <glyph glyph-name="R" unicode="R" horiz-adv-x="642" 
d="M536 0l-210 301h-180v-301h-63v680h268q108 0 163 -35q85 -51 85 -155q0 -103 -85 -154q-44 -29 -113 -34l216 -302h-81zM146 624v-267h191q80 0 124 19q70 33 70 115t-70 114q-41 19 -124 19h-191z" />
    <glyph glyph-name="S" unicode="S" horiz-adv-x="579" 
d="M517 589l-50 -43q-68 89 -181 89q-70 0 -115 -33.5t-45 -87.5q0 -53 32.5 -79.5t104.5 -42.5l91 -20q96 -21 143.5 -61.5t47.5 -120.5q0 -89 -68 -145.5t-183 -56.5q-103 0 -171 45t-98 110l56 37q22 -58 77 -97t137 -39q86 0 134.5 38.5t48.5 103.5q0 54 -34.5 82.5
t-110.5 44.5l-85 19q-43 9 -73 20t-58 30.5t-42.5 51t-14.5 75.5q0 80 64 131.5t165 51.5q150 0 228 -103z" />
    <glyph glyph-name="T" unicode="T" horiz-adv-x="528" 
d="M15 624v56h498v-56h-218v-624h-63v624h-217z" />
    <glyph glyph-name="U" unicode="U" horiz-adv-x="665" 
d="M333 -13q-98 0 -162.5 44t-84.5 129q-9 37 -9 120v400h63v-405q0 -97 19 -139q41 -93 174 -93q132 0 173 93q19 42 19 139v405h63v-400q0 -80 -8 -120q-20 -85 -84.5 -129t-162.5 -44z" />
    <glyph glyph-name="V" unicode="V" horiz-adv-x="568" 
d="M80 680l179 -529l27 -75l25 74l185 530h65l-244 -680h-71l-234 680h68z" />
    <glyph glyph-name="W" unicode="W" horiz-adv-x="862" 
d="M651 0h-61l-117 408q-24 80 -42 149q-16 -64 -41 -151l-118 -406h-67l-182 680h67l123 -467l12 -43.5l11.5 -43l6.5 -25.5q6 26 42 149l121 430h52l132 -466q6 -19 13 -46l12 -45.5t6 -20.5q9 43 40 149l118 429h65z" />
    <glyph glyph-name="X" unicode="X" horiz-adv-x="582" 
d="M505 0l-216 307l-215 -307h-75l253 360l-225 320h78l188 -269l188 269h77l-230 -319l252 -361h-75z" />
    <glyph glyph-name="Y" unicode="Y" horiz-adv-x="571" 
d="M315 279v-279h-63v279l-246 401h76l205 -337l212 337h74z" />
    <glyph glyph-name="Z" unicode="Z" horiz-adv-x="563" 
d="M533 56v-56h-511v43l426 581h-403v56h483v-47l-421 -577h426z" />
    <glyph glyph-name="bracketleft" unicode="[" horiz-adv-x="270" 
d="M242 -110v-48h-168v838h168v-48h-109v-742h109z" />
    <glyph glyph-name="backslash" unicode="\" horiz-adv-x="467" 
d="M23 680h62l359 -680h-63z" />
    <glyph glyph-name="bracketright" unicode="]" horiz-adv-x="270" 
d="M28 -158v48h109v742h-109v48h168v-838h-168z" />
    <glyph glyph-name="asciicircum" unicode="^" horiz-adv-x="451" 
d="M259 680l173 -358h-70l-134 289h-1l-138 -289h-70l179 358h61z" />
    <glyph glyph-name="underscore" unicode="_" horiz-adv-x="730" 
d="M628 -92v-56h-526v56h526z" />
    <glyph glyph-name="grave" unicode="`" 
d="M127 680h94l94 -128h-56z" />
    <glyph glyph-name="a" unicode="a" horiz-adv-x="483" 
d="M348 168v88q-20 -7 -60 -14l-59 -11q-59 -11 -85 -25q-40 -23 -40 -73q0 -46 28.5 -70.5t75.5 -24.5q60 0 100 36t40 94zM110 325l-55 13q-1 69 49.5 109t130.5 40q81 0 125 -33t44 -117v-237q0 -33 7 -47.5t31 -14.5q21 0 36 9v-46q-20 -11 -51 -11q-36 0 -57.5 19.5
t-20.5 57.5h-1q-15 -32 -55 -55.5t-99 -23.5q-70 0 -111 39t-41 105q0 60 36 93t137 52l109 20q10 2 14 3.5t7 7t3 15.5v15q0 51 -27 75.5t-89 24.5q-59 0 -90.5 -29.5t-31.5 -83.5z" />
    <glyph glyph-name="b" unicode="b" horiz-adv-x="527" 
d="M285 -12q-57 0 -98 27t-59 70v-85h-59v680h59v-289q18 42 59 69t96 27q91 0 146 -66.5t55 -184.5q0 -117 -54.5 -182.5t-144.5 -65.5zM126 237q0 -95 39.5 -146.5t108.5 -51.5q71 0 109.5 52t38.5 147t-40 146.5t-110 51.5q-68 0 -107 -51.5t-39 -147.5z" />
    <glyph glyph-name="c" unicode="c" horiz-adv-x="475" 
d="M443 363l-51 -30q-37 104 -134 104q-71 0 -112.5 -53.5t-41.5 -146.5q0 -92 42 -145t112 -53q93 0 138 91l47 -29q-55 -113 -185 -113q-100 0 -158 67t-58 181q0 115 59 183t157 68q137 0 185 -124z" />
    <glyph glyph-name="d" unicode="d" horiz-adv-x="527" 
d="M241 -12q-90 0 -144 65t-54 183q0 117 55.5 184t145.5 67q55 0 96 -27t59 -69v289h59v-680h-59v85q-43 -97 -158 -97zM401 237q0 96 -39 147.5t-107 51.5q-70 0 -110 -51.5t-40 -146.5t38.5 -147t109.5 -52q69 0 108.5 51.5t39.5 146.5z" />
    <glyph glyph-name="e" unicode="e" horiz-adv-x="506" 
d="M424 146l45 -29q-65 -129 -207 -129q-102 0 -161 66.5t-59 186.5q0 109 59.5 177.5t155.5 68.5q100 0 154 -68.5t54 -178.5v-8h-362v-7q0 -89 45.5 -137t115.5 -48q109 0 160 106zM257 438q-65 0 -105.5 -42.5t-46.5 -115.5h296q0 62 -39.5 110t-104.5 48z" />
    <glyph glyph-name="f" unicode="f" horiz-adv-x="309" 
d="M292 476v-46h-108v-430h-59v430h-108v46h108v108q0 53 22 78q26 30 84 30q29 0 61 -9v-54q-32 10 -57 10q-23 0 -36 -11q-15 -14 -15 -52v-100h108z" />
    <glyph glyph-name="g" unicode="g" horiz-adv-x="527" 
d="M458 476v-457q0 -112 -49.5 -164.5t-155.5 -52.5q-183 0 -192 157l57 16q11 -123 135 -123q47 0 77.5 14t44.5 42.5t19 58t5 73.5v49q-42 -94 -156 -94q-92 0 -146 65.5t-54 179.5t55.5 180.5t145.5 66.5q55 0 95 -24.5t60 -64.5v78h59zM401 241q0 94 -39 144.5
t-107 50.5q-70 0 -110 -50.5t-40 -143.5t38.5 -143.5t109.5 -50.5q69 0 108.5 50.5t39.5 142.5z" />
    <glyph glyph-name="h" unicode="h" horiz-adv-x="503" 
d="M439 269v-269h-59v256q0 114 -30 146q-28 31 -85 31q-61 0 -97 -39q-40 -41 -40 -111v-283h-59v680h59v-283q15 38 54.5 64t96.5 26q76 0 118 -46q24 -27 33 -61.5t9 -110.5z" />
    <glyph glyph-name="i" unicode="i" horiz-adv-x="197" 
d="M128 476v-476h-59v476h59zM128 680v-98h-59v98h59z" />
    <glyph glyph-name="j" unicode="j" horiz-adv-x="197" 
d="M69 476h59v-485q0 -83 -4 -113t-19 -50q-23 -30 -77 -30q-44 0 -81 20v61q40 -27 75 -27q34 0 42 26q5 15 5 159v439zM128 680v-98h-59v98h59z" />
    <glyph glyph-name="k" unicode="k" horiz-adv-x="496" 
d="M282 300l204 -300h-73l-175 260l-110 -101v-159h-59v680h59v-453l267 249h79z" />
    <glyph glyph-name="l" unicode="l" horiz-adv-x="207" 
d="M133 680v-680h-59v680h59z" />
    <glyph glyph-name="m" unicode="m" horiz-adv-x="749" 
d="M625 0v258q0 45 -1 65.5t-6 43t-15 36.5q-23 30 -70 30q-60 0 -93.5 -47.5t-33.5 -131.5v-254h-59v258q0 45 -1 65.5t-6 43t-15 36.5q-22 30 -70 30q-60 0 -93.5 -47t-33.5 -132v-254h-59v476h59v-80q15 43 54 67t87 24q47 0 83.5 -25t42.5 -74q17 45 57 72t93 27
q58 0 95 -33q26 -24 35 -59.5t9 -106.5v-288h-59z" />
    <glyph glyph-name="n" unicode="n" horiz-adv-x="503" 
d="M439 269v-269h-59v256q0 114 -30 146q-28 31 -85 31q-61 0 -97 -39q-40 -41 -40 -111v-283h-59v476h59v-79q15 38 54.5 64t96.5 26q76 0 118 -46q24 -27 33 -61.5t9 -110.5z" />
    <glyph glyph-name="o" unicode="o" horiz-adv-x="516" 
d="M42 236q0 114 58 182.5t158 68.5t158 -68.5t58 -182.5q0 -113 -58 -180.5t-158 -67.5t-158 67.5t-58 180.5zM104 237q0 -92 42 -145t112 -53t112 53.5t42 144.5q0 93 -41.5 146.5t-112.5 53.5t-112.5 -53.5t-41.5 -146.5z" />
    <glyph glyph-name="p" unicode="p" horiz-adv-x="527" 
d="M285 -12q-57 0 -98 27t-59 70v-275h-59v666h59v-85q18 42 59 69t96 27q91 0 146 -66.5t55 -184.5q0 -117 -54.5 -182.5t-144.5 -65.5zM126 237q0 -95 39.5 -146.5t108.5 -51.5q71 0 109.5 52t38.5 147t-40 146.5t-110 51.5q-68 0 -107 -51.5t-39 -147.5z" />
    <glyph glyph-name="q" unicode="q" horiz-adv-x="527" 
d="M241 -12q-89 0 -143.5 66t-54.5 182t55.5 183.5t145.5 67.5q55 0 96 -27t59 -69v85h59v-666h-59v275q-43 -97 -158 -97zM401 237q0 96 -39 147.5t-107 51.5q-70 0 -110 -51.5t-40 -146.5t38.5 -147t109.5 -52q69 0 108.5 51.5t39.5 146.5z" />
    <glyph glyph-name="r" unicode="r" horiz-adv-x="323" 
d="M304 485v-59q-16 3 -33 3q-63 0 -103 -44.5t-40 -115.5v-269h-59v476h59v-92q13 44 52.5 74t91.5 30q16 0 32 -3z" />
    <glyph glyph-name="s" unicode="s" horiz-adv-x="444" 
d="M389 409l-45 -38q-48 66 -129 66q-46 0 -75.5 -19.5t-29.5 -57.5q0 -36 22.5 -53.5t72.5 -28.5l63 -15q69 -15 105.5 -44t36.5 -88q0 -68 -51 -105t-134 -38q-67 0 -119 29t-77 70l48 34q51 -82 155 -82q58 1 88 24.5t30 63.5q0 36 -24.5 52.5t-75.5 29.5l-66 16
q-69 16 -101.5 44t-32.5 84q0 62 47.5 98t118.5 36q108 0 173 -78z" />
    <glyph glyph-name="t" unicode="t" horiz-adv-x="303" 
d="M11 430v46h96v178l59 13v-191h114v-46h-114v-322q0 -40 9 -52q10 -13 37 -13q38 0 68 16v-53q-34 -16 -86 -16q-48 0 -68 23q-19 22 -19 73v344h-96z" />
    <glyph glyph-name="u" unicode="u" horiz-adv-x="501" 
d="M64 178v298h59v-272q0 -95 30 -130q28 -31 85 -31q68 0 101.5 45t33.5 105v283h59v-476h-59v78q-15 -38 -53.5 -64t-95.5 -26q-76 0 -118 46q-42 47 -42 144z" />
    <glyph glyph-name="v" unicode="v" horiz-adv-x="433" 
d="M424 476l-186 -476h-52l-167 476h62l107 -311l27 -80h1q8 26 30 83l119 308h59z" />
    <glyph glyph-name="w" unicode="w" horiz-adv-x="677" 
d="M369 476l87 -283q7 -23 30 -107h1l31 110l78 280h59l-142 -476h-55l-92 313q-11 35 -24 88h-1q-5 -20 -25 -89l-92 -312h-56l-149 476h63l85 -283l31 -106h1q23 84 30 107l86 282h54z" />
    <glyph glyph-name="x" unicode="x" horiz-adv-x="442" 
d="M255 246l175 -246h-71l-140 203l-144 -203h-64l175 247l-161 229h72l127 -186l130 186h66z" />
    <glyph glyph-name="y" unicode="y" horiz-adv-x="444" 
d="M82 476l113 -317l27 -79h1q12 35 30 82l121 314h61l-213 -541q-25 -65 -40 -90q-29 -47 -87 -47q-35 0 -62 16v59q30 -20 60 -20q29 0 43 21q11 15 26 56l26 70l-170 476h64z" />
    <glyph glyph-name="z" unicode="z" horiz-adv-x="405" 
d="M377 50v-50h-348v40l258 387h-245v49h321v-39l-259 -387h273z" />
    <glyph glyph-name="braceleft" unicode="{" horiz-adv-x="266" 
d="M32 246v39q45 11 56.5 38t11.5 82v162q0 67 27 90t89 23h20v-43q-49 0 -62.5 -19.5t-13.5 -82.5v-133q0 -66 -16.5 -96t-62.5 -40v-1q46 -10 62.5 -40t16.5 -96v-142q0 -63 13.5 -82.5t62.5 -19.5v-43h-20q-62 0 -89 23t-27 90v171q0 28 -1.5 43t-7.5 33t-20.5 28
t-38.5 16z" />
    <glyph glyph-name="bar" unicode="|" horiz-adv-x="207" 
d="M133 680v-838h-59v838h59z" />
    <glyph glyph-name="braceright" unicode="}" horiz-adv-x="266" 
d="M234 285v-39q-45 -11 -56.5 -38t-11.5 -82v-171q0 -67 -27 -90t-89 -23h-20v43q49 0 62.5 19.5t13.5 82.5v142q0 66 16.5 96t62.5 40v1q-46 10 -62.5 40t-16.5 96v133q0 63 -13.5 82.5t-62.5 19.5v43h20q62 0 89 -23t27 -90v-162q0 -28 1.5 -43t7.5 -33t20.5 -28
t38.5 -16z" />
    <glyph glyph-name="asciitilde" unicode="~" horiz-adv-x="545" 
d="M474 348l29 -49q-62 -77 -126 -77q-37 0 -98 30l-41 20q-42 19 -72 19q-27 0 -43 -12.5t-48 -50.5l-31 47q52 81 122 81q36 0 98 -28l47 -22q46 -21 66 -21q46 0 97 63z" />
    <glyph glyph-name="uni00A0" unicode="&#xa0;" horiz-adv-x="200" 
 />
    <glyph glyph-name="exclamdown" unicode="&#xa1;" horiz-adv-x="200" 
d="M122 299l10 -180v-327h-64v327l9 180h45zM138 361h-76v114h76v-114z" />
    <glyph glyph-name="cent" unicode="&#xa2;" horiz-adv-x="481" 
d="M446 363l-51 -30q-33 90 -109 102v-395q74 10 113 90l47 -29q-49 -100 -160 -112v-102h-52v103q-88 9 -138.5 74.5t-50.5 171.5t51 173t138 76v95h52v-95q118 -10 160 -122zM107 237q0 -83 34 -134.5t93 -61.5v393q-59 -10 -93 -62t-34 -135z" />
    <glyph glyph-name="sterling" unicode="&#xa3;" horiz-adv-x="546" 
d="M358 311h-149q0 -8 1.5 -27.5t2 -36.5t0.5 -28q0 -64 -13 -103.5t-49 -60.5v-1q42 2 97 2h244v-56h-449v52q62 5 85 39t23 129q0 33 -5 91h-106v57h102q-4 70 -4 121q0 91 46.5 146.5t139.5 55.5q90 0 135.5 -46.5t46.5 -120.5l-58 -19q0 58 -29.5 95t-94.5 37
q-123 0 -123 -159q0 -62 5 -110h152v-57z" />
    <glyph glyph-name="currency" unicode="&#xa4;" horiz-adv-x="537" 
d="M77 289q0 65 36 115l-63 63l42 42l62 -63q50 36 115 36t114 -36l62 62l42 -42l-62 -62q37 -51 37 -115q0 -65 -36 -115l61 -60l-42 -42l-61 61q-50 -36 -115 -36q-66 0 -115 36l-62 -62l-42 42l62 62q-35 47 -35 114zM134 289q0 -57 39 -97t96 -40q58 0 97 40t39 97
q0 58 -38.5 98t-97.5 40q-58 0 -96.5 -39.5t-38.5 -98.5z" />
    <glyph glyph-name="yen" unicode="&#xa5;" horiz-adv-x="577" 
d="M61 284v56h163l-194 339h68l195 -337l185 337h69l-194 -339h162v-56h-194v-82h194v-55h-194v-147h-63v147h-197v55h197v82h-197z" />
    <glyph glyph-name="brokenbar" unicode="&#xa6;" horiz-adv-x="209" 
d="M134 680v-323h-59v323h59zM134 165v-323h-59v323h59z" />
    <glyph glyph-name="section" unicode="&#xa7;" horiz-adv-x="480" 
d="M77 563q0 60 47 94.5t118 34.5q56 0 102 -23.5t72 -60.5l-47 -35q-47 69 -128 69q-45 0 -75 -20t-30 -55q0 -37 27.5 -56.5t84.5 -40.5q8 -2 12 -4l47 -18q59 -22 94 -54.5t35 -85.5q0 -91 -91 -140q73 -41 73 -112q0 -68 -50 -106.5t-131 -38.5q-69 0 -122 31.5
t-76 77.5l48 33q23 -42 63 -66.5t89 -24.5q59 0 89.5 24.5t30.5 62.5q0 37 -31.5 60t-86.5 45l-51 20q-62 24 -97.5 56.5t-35.5 90.5q0 90 95 130q-75 36 -75 112zM226 223l68 -27q39 16 60.5 42.5t21.5 59.5q0 72 -117 109l-54 19q-41 -12 -63 -38t-22 -59q0 -38 26 -61
t80 -45z" />
    <glyph glyph-name="dieresis" unicode="&#xa8;" 
d="M97 566v91h62v-91h-62zM284 566v91h62v-91h-62z" />
    <glyph glyph-name="copyright" unicode="&#xa9;" horiz-adv-x="775" 
d="M547 451l-49 -29q-27 88 -111 88q-55 0 -89 -43.5t-34 -118.5q0 -74 34 -116t89 -42q83 0 114 75l46 -29q-50 -99 -160 -99q-83 0 -131.5 57t-48.5 153q0 97 48.5 155t131.5 58q116 0 160 -109zM728 350q0 -144 -98 -242.5t-243 -98.5q-144 0 -242 98.5t-98 242.5
q0 145 98 243.5t242 98.5q145 0 243 -98.5t98 -243.5zM671 350q0 121 -82 206t-202 85q-119 0 -200.5 -85t-81.5 -206q0 -119 81.5 -203.5t200.5 -84.5q120 0 202 84t82 204z" />
    <glyph glyph-name="ordfeminine" unicode="&#xaa;" horiz-adv-x="371" 
d="M240 487v51q-10 -3 -77 -16q-21 -4 -34 -8t-24 -16t-11 -31q0 -28 17 -43t45 -15q35 0 59.5 22t24.5 56zM96 579l-42 10q-1 48 32.5 75t88.5 27q51 0 80 -22t29 -78v-147q0 -12 1 -18t5.5 -11t13.5 -5q13 0 27 7v-36q-16 -9 -36 -9q-44 0 -53 41q-30 -43 -91 -43
q-47 0 -76 25.5t-29 71.5q0 42 25.5 61.5t79.5 29.5l78 14q11 1 11 12v8q0 60 -68 60q-76 0 -76 -73z" />
    <glyph glyph-name="guillemotleft" unicode="&#xab;" horiz-adv-x="400" 
d="M208 252v73l134 137v-74l-102 -98l102 -100v-78zM49 252v73l134 137v-74l-102 -98l102 -100v-78z" />
    <glyph glyph-name="logicalnot" unicode="&#xac;" horiz-adv-x="513" 
d="M444 454v-233h-59v180h-337v53h396z" />
    <glyph glyph-name="uni00AD" unicode="&#xad;" horiz-adv-x="413" 
d="M345 298v-59h-277v59h277z" />
    <glyph glyph-name="registered" unicode="&#xae;" horiz-adv-x="775" 
d="M301 317v-167h-51v398h163q66 0 103 -26q43 -31 43 -88q0 -48 -31.5 -79t-75.5 -37l120 -168h-65l-121 167h-85zM301 366h99q48 0 69 10q34 15 34 58q0 41 -34 56q-21 9 -69 9h-99v-133zM728 350q0 -144 -98 -242.5t-243 -98.5q-144 0 -242 98.5t-98 242.5
q0 145 98 243.5t242 98.5q145 0 243 -98.5t98 -243.5zM671 350q0 121 -82 206t-202 85q-119 0 -200.5 -85t-81.5 -206q0 -119 81.5 -203.5t200.5 -84.5q120 0 202 84t82 204z" />
    <glyph glyph-name="macron" unicode="&#xaf;" 
d="M90 579v53h271v-53h-271z" />
    <glyph glyph-name="degree" unicode="&#xb0;" horiz-adv-x="378" 
d="M39 542q0 62 44 106t106 44t106 -44t44 -106t-44 -106t-106 -44t-106 44t-44 106zM97 542q0 -41 26 -68t66 -27t66 27t26 68t-26 68t-66 27t-66 -27t-26 -68z" />
    <glyph glyph-name="plusminus" unicode="&#xb1;" horiz-adv-x="700" 
d="M379 323v-216h-57v216h-265v56h265v214h57v-214h264v-56h-264zM643 57v-57h-586v57h586z" />
    <glyph glyph-name="twosuperior" unicode="&#xb2;" horiz-adv-x="386" 
d="M126 487l-60 13q-13 29 -13 62q0 53 37 90.5t100 37.5q67 0 103 -38t36 -97q0 -41 -19 -78t-39.5 -57.5t-57.5 -50.5q-30 -24 -76 -54h192v-47h-270v43q56 36 119 89q53 44 75.5 76.5t22.5 75.5t-25 68t-63 25q-41 0 -62.5 -24t-21.5 -60q0 -37 22 -74z" />
    <glyph glyph-name="threesuperior" unicode="&#xb3;" horiz-adv-x="371" 
d="M97 562l-46 17q0 39 36 74.5t97 35.5q64 0 97 -29.5t33 -75.5q0 -69 -62 -94q31 -10 52 -36t21 -66q0 -57 -39.5 -91.5t-104.5 -34.5q-60 0 -98.5 32.5t-40.5 88.5l51 17q6 -94 89 -94q41 0 65.5 22t24.5 61q0 47 -38 66q-21 10 -86 10h-28v44h23q52 0 79 10q41 16 41 62
q0 30 -20 47.5t-59 17.5q-41 0 -63 -24t-24 -60z" />
    <glyph glyph-name="acute" unicode="&#xb4;" 
d="M219 680h94l-132 -128h-56z" />
    <glyph glyph-name="mu" unicode="&#xb5;" horiz-adv-x="494" 
d="M130 37v-226h-59v665h59v-272q0 -95 30 -130q28 -31 85 -31q68 0 101.5 45t33.5 105v283h59v-476h-59v78q-15 -38 -53 -64t-94 -26q-32 0 -60.5 13.5t-42.5 35.5z" />
    <glyph glyph-name="paragraph" unicode="&#xb6;" horiz-adv-x="571" 
d="M253 -128v448h-8q-104 0 -156 41q-61 49 -61 139t61 139q52 41 156 41h293v-44h-79v-764h-51v764h-104v-764h-51z" />
    <glyph glyph-name="periodcentered" unicode="&#xb7;" horiz-adv-x="205" 
d="M64 377h78v-114h-78v114z" />
    <glyph glyph-name="cedilla" unicode="&#xb8;" 
d="M199 1h38l-29 -40q5 1 16 1q35 0 57 -17.5t22 -50.5q0 -40 -28 -60.5t-69 -20.5q-23 0 -45 8l9 27q15 -5 33 -5q23 0 37.5 11.5t14.5 31.5q0 21 -14.5 31.5t-36.5 10.5q-20 0 -34 -7l-12 22z" />
    <glyph glyph-name="onesuperior" unicode="&#xb9;" horiz-adv-x="245" 
d="M179 263h-50v306q-23 -16 -73 -16q-21 0 -29 1v44h17q45 0 63 15q24 21 26 67h46v-417z" />
    <glyph glyph-name="ordmasculine" unicode="&#xba;" horiz-adv-x="366" 
d="M43 529q0 73 39 117.5t102 44.5q62 0 100.5 -44.5t38.5 -117.5t-38 -116t-101 -43q-64 0 -102.5 43t-38.5 116zM93 529q0 -55 24.5 -85.5t66.5 -30.5q41 0 65.5 30.5t24.5 85.5q0 57 -24 88.5t-66 31.5t-66.5 -32t-24.5 -88z" />
    <glyph glyph-name="guillemotright" unicode="&#xbb;" horiz-adv-x="399" 
d="M191 325v-73l-133 -140v78l101 100l-101 98v74zM350 325v-73l-133 -140v78l101 100l-101 98v74z" />
    <glyph glyph-name="onequarter" unicode="&#xbc;" horiz-adv-x="716" 
d="M184 263h-50v306q-23 -16 -73 -16q-21 0 -29 1v44h17q45 0 63 15q24 21 26 67h46v-417zM611 107v-107h-49v107h-194v34l195 276h48v-263h76v-47h-76zM431 154h131v189h-2q-18 -32 -40 -62l-36 -52q-6 -9 -53 -73v-2zM547 680l-355 -680h-58l357 680h56z" />
    <glyph glyph-name="onehalf" unicode="&#xbd;" horiz-adv-x="781" 
d="M538 219l-60 13q-13 29 -13 62q0 53 37 90.5t100 37.5q67 0 103 -38t36 -97q0 -41 -19 -78t-39.5 -57.5t-57.5 -50.5q-30 -24 -76 -54h192v-47h-270v43q56 36 119 89q53 44 75.5 76.5t22.5 75.5t-25 68t-63 25q-41 0 -62.5 -24t-21.5 -60q0 -37 22 -74zM183 263h-50v306
q-23 -16 -73 -16q-21 0 -29 1v44h17q45 0 63 15q24 21 26 67h46v-417zM546 680l-355 -680h-58l357 680h56z" />
    <glyph glyph-name="threequarters" unicode="&#xbe;" horiz-adv-x="811" 
d="M706 107v-107h-49v107h-194v34l195 276h48v-263h76v-47h-76zM526 154h131v189h-2q-18 -32 -40 -62l-36 -52q-6 -9 -53 -73v-2zM91 562l-46 17q0 39 36 74.5t97 35.5q64 0 97 -29.5t33 -75.5q0 -69 -62 -94q31 -10 52 -36t21 -66q0 -57 -39.5 -91.5t-104.5 -34.5
q-60 0 -98.5 32.5t-40.5 88.5l51 17q6 -94 89 -94q41 0 65.5 22t24.5 61q0 47 -38 66q-21 10 -86 10h-28v44h23q52 0 79 10q41 16 41 62q0 30 -20 47.5t-59 17.5q-41 0 -63 -24t-24 -60zM641 680l-354 -680h-58l356 680h56z" />
    <glyph glyph-name="questiondown" unicode="&#xbf;" horiz-adv-x="444" 
d="M210 298v29h59v-39q0 -44 -12 -71t-58 -67l-37 -33q-73 -67 -73 -145q0 -57 36.5 -95t99.5 -38q62 0 97 39.5t35 96.5q0 42 -25 94l69 -14q15 -45 15 -83q0 -82 -52.5 -133.5t-140.5 -51.5q-90 0 -142.5 51.5t-52.5 130.5q0 58 23.5 100t69.5 84l23 20q45 41 55.5 60
t10.5 65zM278 371h-79v104h79v-104z" />
    <glyph glyph-name="Agrave" unicode="&#xc0;" horiz-adv-x="595" 
d="M353 753h-56l-142 136h96zM149 205l-74 -205h-67l259 680h62l257 -680h-68l-76 205h-293zM420 263l-95 250q-18 44 -29 83h-1q-17 -50 -30 -84l-95 -249h250z" />
    <glyph glyph-name="Aacute" unicode="&#xc1;" horiz-adv-x="595" 
d="M325 753h-56l102 136h96zM149 205l-74 -205h-67l259 680h62l257 -680h-68l-76 205h-293zM420 263l-95 250q-18 44 -29 83h-1q-17 -50 -30 -84l-95 -249h250z" />
    <glyph glyph-name="Acircumflex" unicode="&#xc2;" horiz-adv-x="595" 
d="M149 205l-74 -205h-67l259 680h62l257 -680h-68l-76 205h-293zM420 263l-95 250q-18 44 -29 83h-1q-17 -50 -30 -84l-95 -249h250zM374 753l-79 81l-79 -81h-61l119 136h42l119 -136h-61z" />
    <glyph glyph-name="Atilde" unicode="&#xc3;" horiz-adv-x="595" 
d="M427 868l41 -10q-10 -21 -16 -32t-18 -27t-27 -23.5t-33 -7.5q-27 0 -77 26q-44 22 -55 22q-33 0 -47 -47l-42 9q36 90 96 90q23 0 67 -22q46 -23 62 -23q34 0 49 45zM149 205l-74 -205h-67l259 680h62l257 -680h-68l-76 205h-293zM420 263l-95 250q-18 44 -29 83h-1
q-17 -50 -30 -84l-95 -249h250z" />
    <glyph glyph-name="Adieresis" unicode="&#xc4;" horiz-adv-x="595" 
d="M178 768v91h62v-91h-62zM365 768v91h62v-91h-62zM149 205l-74 -205h-67l259 680h62l257 -680h-68l-76 205h-293zM420 263l-95 250q-18 44 -29 83h-1q-17 -50 -30 -84l-95 -249h250z" />
    <glyph glyph-name="Aring" unicode="&#xc5;" horiz-adv-x="595" 
d="M149 205l-74 -205h-67l259 680h62l257 -680h-68l-76 205h-293zM420 263l-95 250q-18 44 -29 83h-1q-17 -50 -30 -84l-95 -249h250zM213 819q0 34 24 57.5t58 23.5t58 -23.5t24 -57.5t-24 -57.5t-58 -23.5t-58 23.5t-24 57.5zM251 819q0 -18 13 -30.5t30 -12.5t30 12.5
t13 30.5t-13 30.5t-30 12.5t-30 -12.5t-13 -30.5z" />
    <glyph glyph-name="AE" unicode="&#xc6;" horiz-adv-x="909" 
d="M178 204l-127 -204h-71l426 680h448v-56h-364v-245h329v-56h-329v-267h384v-56h-448v204h-248zM426 261v220q0 41 1 75.5t1 47.5l1 13h-1q-28 -62 -77 -138l-136 -218h211z" />
    <glyph glyph-name="Ccedilla" unicode="&#xc7;" horiz-adv-x="622" 
d="M588 528l-55 -36q-26 64 -75 104t-122 40q-102 0 -162 -81.5t-60 -214.5t60 -214.5t162 -81.5q77 0 126.5 40.5t72.5 105.5l56 -30q-73 -165 -240 -172l-24 -33q5 1 16 1q35 0 57 -17.5t22 -50.5q0 -40 -28 -60.5t-69 -20.5q-23 0 -45 8l9 27q15 -5 33 -5q23 0 37.5 11.5
t14.5 31.5q0 21 -14.5 31.5t-36.5 10.5q-20 0 -34 -7l-12 22l37 52q-126 8 -196 101.5t-70 249.5q0 161 77 256.5t211 95.5q98 0 160 -47t92 -117z" />
    <glyph glyph-name="Egrave" unicode="&#xc8;" horiz-adv-x="584" 
d="M364 753h-56l-142 136h96zM549 56v-56h-466v680h446v-56h-383v-246h347v-57h-347v-265h403z" />
    <glyph glyph-name="Eacute" unicode="&#xc9;" horiz-adv-x="584" 
d="M308 753h-56l102 136h96zM549 56v-56h-466v680h446v-56h-383v-246h347v-57h-347v-265h403z" />
    <glyph glyph-name="Ecircumflex" unicode="&#xca;" horiz-adv-x="584" 
d="M549 56v-56h-466v680h446v-56h-383v-246h347v-57h-347v-265h403zM380 753l-79 81l-79 -81h-61l119 136h42l119 -136h-61z" />
    <glyph glyph-name="Edieresis" unicode="&#xcb;" horiz-adv-x="584" 
d="M179 768v91h62v-91h-62zM366 768v91h62v-91h-62zM549 56v-56h-466v680h446v-56h-383v-246h347v-57h-347v-265h403z" />
    <glyph glyph-name="Igrave" unicode="&#xcc;" horiz-adv-x="229" 
d="M160 753h-56l-142 136h96zM146 680v-680h-63v680h63z" />
    <glyph glyph-name="Iacute" unicode="&#xcd;" horiz-adv-x="229" 
d="M131 753h-56l102 136h96zM146 680v-680h-63v680h63z" />
    <glyph glyph-name="Icircumflex" unicode="&#xce;" horiz-adv-x="229" 
d="M146 680v-680h-63v680h63zM194 753l-79 81l-79 -81h-61l119 136h42l119 -136h-61z" />
    <glyph glyph-name="Idieresis" unicode="&#xcf;" horiz-adv-x="229" 
d="M-10 768v91h62v-91h-62zM177 768v91h62v-91h-62zM146 680v-680h-63v680h63z" />
    <glyph glyph-name="Eth" unicode="&#xd0;" horiz-adv-x="669" 
d="M244 0h-155v335h-92v58h92v287h176q78 0 124 -6.5t85 -27.5q73 -39 110 -122t37 -182q0 -176 -99 -272q-49 -48 -104.5 -59t-173.5 -11zM152 624v-231h215v-58h-215v-279h109q58 0 85.5 1.5t61.5 12.5t59 33q38 33 62.5 96t24.5 140q0 74 -22.5 137t-64.5 99
q-37 33 -83.5 41t-145.5 8h-86z" />
    <glyph glyph-name="Ntilde" unicode="&#xd1;" horiz-adv-x="692" 
d="M470 868l41 -10q-10 -21 -16 -32t-18 -27t-27 -23.5t-33 -7.5q-27 0 -77 26q-44 22 -55 22q-33 0 -47 -47l-42 9q36 90 96 90q23 0 67 -22q46 -23 62 -23q34 0 49 45zM146 680l346 -494q48 -67 56 -92h1q-3 36 -3 99v487h63v-680h-63l-345 494q-50 71 -58 94h-1
q4 -48 4 -100v-488h-63v680h63z" />
    <glyph glyph-name="Ograve" unicode="&#xd2;" horiz-adv-x="672" 
d="M406 753h-56l-142 136h96zM47 340q0 161 77.5 256.5t211.5 95.5t211.5 -95.5t77.5 -256.5q0 -160 -77.5 -256t-211.5 -96t-211.5 96t-77.5 256zM114 340q0 -133 61 -215t161 -82t161 82t61 215t-60.5 215t-161.5 82t-161.5 -82t-60.5 -215z" />
    <glyph glyph-name="Oacute" unicode="&#xd3;" horiz-adv-x="672" 
d="M336 753h-56l102 136h96zM47 340q0 161 77.5 256.5t211.5 95.5t211.5 -95.5t77.5 -256.5q0 -160 -77.5 -256t-211.5 -96t-211.5 96t-77.5 256zM114 340q0 -133 61 -215t161 -82t161 82t61 215t-60.5 215t-161.5 82t-161.5 -82t-60.5 -215z" />
    <glyph glyph-name="Ocircumflex" unicode="&#xd4;" horiz-adv-x="672" 
d="M47 340q0 161 77.5 256.5t211.5 95.5t211.5 -95.5t77.5 -256.5q0 -160 -77.5 -256t-211.5 -96t-211.5 96t-77.5 256zM114 340q0 -133 61 -215t161 -82t161 82t61 215t-60.5 215t-161.5 82t-161.5 -82t-60.5 -215zM415 753l-79 81l-79 -81h-61l119 136h42l119 -136h-61z
" />
    <glyph glyph-name="Otilde" unicode="&#xd5;" horiz-adv-x="672" 
d="M452 868l41 -10q-10 -21 -16 -32t-18 -27t-27 -23.5t-33 -7.5q-27 0 -77 26q-44 22 -55 22q-33 0 -47 -47l-42 9q36 90 96 90q23 0 67 -22q46 -23 62 -23q34 0 49 45zM47 340q0 161 77.5 256.5t211.5 95.5t211.5 -95.5t77.5 -256.5q0 -160 -77.5 -256t-211.5 -96
t-211.5 96t-77.5 256zM114 340q0 -133 61 -215t161 -82t161 82t61 215t-60.5 215t-161.5 82t-161.5 -82t-60.5 -215z" />
    <glyph glyph-name="Odieresis" unicode="&#xd6;" horiz-adv-x="672" 
d="M215 768v91h62v-91h-62zM402 768v91h62v-91h-62zM47 340q0 161 77.5 256.5t211.5 95.5t211.5 -95.5t77.5 -256.5q0 -160 -77.5 -256t-211.5 -96t-211.5 96t-77.5 256zM114 340q0 -133 61 -215t161 -82t161 82t61 215t-60.5 215t-161.5 82t-161.5 -82t-60.5 -215z" />
    <glyph glyph-name="multiply" unicode="&#xd7;" horiz-adv-x="628" 
d="M582 522l-228 -228l228 -228l-40 -40l-228 228l-228 -228l-40 40l228 228l-228 228l40 40l228 -228l228 228z" />
    <glyph glyph-name="Oslash" unicode="&#xd8;" horiz-adv-x="678" 
d="M49 340q0 161 77.5 256.5t211.5 95.5q128 0 206 -89l75 84l43 -39l-84 -94q49 -87 49 -214q0 -160 -77.5 -256t-211.5 -96q-121 0 -197 79l-72 -80l-46 39l81 90q-55 89 -55 224zM116 340q0 -97 35 -172l348 386q-60 82 -161 82t-161.5 -81.5t-60.5 -214.5zM560 340
q0 90 -30 161l-346 -385q59 -72 154 -72q100 0 161 82t61 214z" />
    <glyph glyph-name="Ugrave" unicode="&#xd9;" horiz-adv-x="665" 
d="M412 753h-56l-142 136h96zM333 -13q-98 0 -162.5 44t-84.5 129q-9 37 -9 120v399h63v-404q0 -97 19 -139q41 -93 174 -93q132 0 173 93q19 42 19 139v404h63v-399q0 -80 -8 -120q-20 -85 -84.5 -129t-162.5 -44z" />
    <glyph glyph-name="Uacute" unicode="&#xda;" horiz-adv-x="665" 
d="M323 753h-56l102 136h96zM333 -13q-98 0 -162.5 44t-84.5 129q-9 37 -9 120v399h63v-404q0 -97 19 -139q41 -93 174 -93q132 0 173 93q19 42 19 139v404h63v-399q0 -80 -8 -120q-20 -85 -84.5 -129t-162.5 -44z" />
    <glyph glyph-name="Ucircumflex" unicode="&#xdb;" horiz-adv-x="665" 
d="M333 -13q-98 0 -162.5 44t-84.5 129q-9 37 -9 120v399h63v-404q0 -97 19 -139q41 -93 174 -93q132 0 173 93q19 42 19 139v404h63v-399q0 -80 -8 -120q-20 -85 -84.5 -129t-162.5 -44zM416 753l-79 81l-79 -81h-61l119 136h42l119 -136h-61z" />
    <glyph glyph-name="Udieresis" unicode="&#xdc;" horiz-adv-x="665" 
d="M209 768v91h62v-91h-62zM396 768v91h62v-91h-62zM333 -13q-98 0 -162.5 44t-84.5 129q-9 37 -9 120v399h63v-404q0 -97 19 -139q41 -93 174 -93q132 0 173 93q19 42 19 139v404h63v-399q0 -80 -8 -120q-20 -85 -84.5 -129t-162.5 -44z" />
    <glyph glyph-name="Yacute" unicode="&#xdd;" horiz-adv-x="565" 
d="M287 753h-56l102 136h96zM312 279v-279h-63v279l-245 400h76l204 -336l211 336h74z" />
    <glyph glyph-name="Thorn" unicode="&#xde;" horiz-adv-x="596" 
d="M327 195h-181v-195h-63v680h63v-116h181q105 0 159 -34q82 -50 82 -151q0 -100 -82 -150q-54 -34 -159 -34zM146 508v-257h167q81 0 121 18q68 32 68 111q0 78 -68 110q-40 18 -121 18h-167z" />
    <glyph glyph-name="germandbls" unicode="&#xdf;" horiz-adv-x="469" 
d="M397 538q0 -107 -82 -132q23 -5 39.5 -14.5t34 -30t26.5 -59.5t9 -95q0 -214 -143 -214q-38 0 -63 12.5t-37 36.5t-16 49t-4 61v42h48v-39q0 -54 13 -83t56 -29q48 0 67 38t19 127q0 56 -8.5 89.5t-33.5 53.5q-29 25 -113 25h-48v49h41q62 0 85 12q51 24 51 99
q0 46 -25 76t-75 30q-74 0 -98 -57q-12 -39 -12 -124v-461h-59v458q0 113 23 156q37 78 147 78q80 0 119 -42.5t39 -111.5z" />
    <glyph glyph-name="agrave" unicode="&#xe0;" horiz-adv-x="483" 
d="M111 680h94l94 -128h-56zM348 168v88q-20 -7 -60 -14l-59 -11q-59 -11 -85 -25q-40 -23 -40 -73q0 -46 28.5 -70.5t75.5 -24.5q60 0 100 36t40 94zM110 325l-55 13q-1 69 49.5 109t130.5 40q81 0 125 -33t44 -117v-237q0 -33 7 -47.5t31 -14.5q21 0 36 9v-46
q-20 -11 -51 -11q-36 0 -57.5 19.5t-20.5 57.5h-1q-15 -32 -55 -55.5t-99 -23.5q-70 0 -111 39t-41 105q0 60 36 93t137 52l109 20q10 2 14 3.5t7 7t3 15.5v15q0 51 -27 75.5t-89 24.5q-59 0 -90.5 -29.5t-31.5 -83.5z" />
    <glyph glyph-name="aacute" unicode="&#xe1;" horiz-adv-x="483" 
d="M277 680h94l-132 -128h-56zM348 168v88q-20 -7 -60 -14l-59 -11q-59 -11 -85 -25q-40 -23 -40 -73q0 -46 28.5 -70.5t75.5 -24.5q60 0 100 36t40 94zM110 325l-55 13q-1 69 49.5 109t130.5 40q81 0 125 -33t44 -117v-237q0 -33 7 -47.5t31 -14.5q21 0 36 9v-46
q-20 -11 -51 -11q-36 0 -57.5 19.5t-20.5 57.5h-1q-15 -32 -55 -55.5t-99 -23.5q-70 0 -111 39t-41 105q0 60 36 93t137 52l109 20q10 2 14 3.5t7 7t3 15.5v15q0 51 -27 75.5t-89 24.5q-59 0 -90.5 -29.5t-31.5 -83.5z" />
    <glyph glyph-name="acircumflex" unicode="&#xe2;" horiz-adv-x="483" 
d="M163 552h-63l113 128h42l113 -128h-63l-70 75zM348 168v88q-20 -7 -60 -14l-59 -11q-59 -11 -85 -25q-40 -23 -40 -73q0 -46 28.5 -70.5t75.5 -24.5q60 0 100 36t40 94zM110 325l-55 13q-1 69 49.5 109t130.5 40q81 0 125 -33t44 -117v-237q0 -33 7 -47.5t31 -14.5
q21 0 36 9v-46q-20 -11 -51 -11q-36 0 -57.5 19.5t-20.5 57.5h-1q-15 -32 -55 -55.5t-99 -23.5q-70 0 -111 39t-41 105q0 60 36 93t137 52l109 20q10 2 14 3.5t7 7t3 15.5v15q0 51 -27 75.5t-89 24.5q-59 0 -90.5 -29.5t-31.5 -83.5z" />
    <glyph glyph-name="atilde" unicode="&#xe3;" horiz-adv-x="483" 
d="M361 679l41 -10q-10 -21 -16 -32t-18 -27t-27 -23.5t-33 -7.5q-27 0 -77 26q-44 22 -55 22q-33 0 -47 -47l-42 9q36 90 96 90q23 0 67 -22q46 -23 62 -23q34 0 49 45zM348 168v88q-20 -7 -60 -14l-59 -11q-59 -11 -85 -25q-40 -23 -40 -73q0 -46 28.5 -70.5t75.5 -24.5
q60 0 100 36t40 94zM110 325l-55 13q-1 69 49.5 109t130.5 40q81 0 125 -33t44 -117v-237q0 -33 7 -47.5t31 -14.5q21 0 36 9v-46q-20 -11 -51 -11q-36 0 -57.5 19.5t-20.5 57.5h-1q-15 -32 -55 -55.5t-99 -23.5q-70 0 -111 39t-41 105q0 60 36 93t137 52l109 20
q10 2 14 3.5t7 7t3 15.5v15q0 51 -27 75.5t-89 24.5q-59 0 -90.5 -29.5t-31.5 -83.5z" />
    <glyph glyph-name="adieresis" unicode="&#xe4;" horiz-adv-x="483" 
d="M113 579v91h62v-91h-62zM300 579v91h62v-91h-62zM348 168v88q-20 -7 -60 -14l-59 -11q-59 -11 -85 -25q-40 -23 -40 -73q0 -46 28.5 -70.5t75.5 -24.5q60 0 100 36t40 94zM110 325l-55 13q-1 69 49.5 109t130.5 40q81 0 125 -33t44 -117v-237q0 -33 7 -47.5t31 -14.5
q21 0 36 9v-46q-20 -11 -51 -11q-36 0 -57.5 19.5t-20.5 57.5h-1q-15 -32 -55 -55.5t-99 -23.5q-70 0 -111 39t-41 105q0 60 36 93t137 52l109 20q10 2 14 3.5t7 7t3 15.5v15q0 51 -27 75.5t-89 24.5q-59 0 -90.5 -29.5t-31.5 -83.5z" />
    <glyph glyph-name="aring" unicode="&#xe5;" horiz-adv-x="483" 
d="M154 618q0 34 24 57.5t58 23.5t58 -23.5t24 -57.5t-24 -57.5t-58 -23.5t-58 23.5t-24 57.5zM192 618q0 -18 13 -30.5t30 -12.5t30 12.5t13 30.5t-13 30.5t-30 12.5t-30 -12.5t-13 -30.5zM348 168v88q-20 -7 -60 -14l-59 -11q-59 -11 -85 -25q-40 -23 -40 -73
q0 -46 28.5 -70.5t75.5 -24.5q60 0 100 36t40 94zM110 325l-55 13q-1 69 49.5 109t130.5 40q81 0 125 -33t44 -117v-237q0 -33 7 -47.5t31 -14.5q21 0 36 9v-46q-20 -11 -51 -11q-36 0 -57.5 19.5t-20.5 57.5h-1q-15 -32 -55 -55.5t-99 -23.5q-70 0 -111 39t-41 105
q0 60 36 93t137 52l109 20q10 2 14 3.5t7 7t3 15.5v15q0 51 -27 75.5t-89 24.5q-59 0 -90.5 -29.5t-31.5 -83.5z" />
    <glyph glyph-name="ae" unicode="&#xe6;" horiz-adv-x="803" 
d="M235 487q126 0 157 -78q60 78 162 78q98 0 153 -68t55 -177v-8h-362v-8q0 -89 45.5 -137.5t115.5 -48.5q110 0 160 109l45 -32q-63 -129 -207 -129q-125 0 -183 98q-16 -35 -63 -66.5t-115 -31.5q-74 0 -115 38.5t-41 105.5q0 60 36 93t137 52l109 20q10 2 14 3.5t7 7
t3 15.5v15q0 51 -27 75.5t-89 24.5q-59 0 -90.5 -29.5t-31.5 -83.5l-55 13q-1 69 49.5 109t130.5 40zM348 168v88q-20 -7 -60 -14l-59 -11q-59 -11 -85 -25q-40 -23 -40 -73q0 -46 28.5 -70.5t75.5 -24.5q60 0 100 36t40 94zM554 438q-64 0 -104 -41.5t-48 -114.5h296
q-2 61 -41 108.5t-103 47.5z" />
    <glyph glyph-name="ccedilla" unicode="&#xe7;" horiz-adv-x="475" 
d="M443 363l-51 -30q-37 104 -134 104q-71 0 -112.5 -53.5t-41.5 -146.5q0 -92 42 -145t112 -53q93 0 138 91l47 -29q-51 -106 -171 -112l-24 -34q5 1 16 1q35 0 57 -17.5t22 -50.5q0 -40 -28 -60.5t-69 -20.5q-23 0 -45 8l9 27q15 -5 33 -5q23 0 37.5 11.5t14.5 31.5
q0 21 -14.5 31.5t-36.5 10.5q-20 0 -34 -7l-12 22l37 52q-90 8 -141.5 74t-51.5 173q0 115 59 183t157 68q137 0 185 -124z" />
    <glyph glyph-name="egrave" unicode="&#xe8;" horiz-adv-x="506" 
d="M131 680h94l94 -128h-56zM424 146l45 -29q-65 -129 -207 -129q-102 0 -161 66.5t-59 186.5q0 109 59.5 177.5t155.5 68.5q100 0 154 -68.5t54 -178.5v-8h-362v-7q0 -89 45.5 -137t115.5 -48q109 0 160 106zM257 438q-65 0 -105.5 -42.5t-46.5 -115.5h296q0 62 -39.5 110
t-104.5 48z" />
    <glyph glyph-name="eacute" unicode="&#xe9;" horiz-adv-x="506" 
d="M424 146l45 -29q-65 -129 -207 -129q-102 0 -161 66.5t-59 186.5q0 109 59.5 177.5t155.5 68.5q100 0 154 -68.5t54 -178.5v-8h-362v-7q0 -89 45.5 -137t115.5 -48q109 0 160 106zM257 438q-65 0 -105.5 -42.5t-46.5 -115.5h296q0 62 -39.5 110t-104.5 48zM306 680h94
l-132 -128h-56z" />
    <glyph glyph-name="ecircumflex" unicode="&#xea;" horiz-adv-x="506" 
d="M424 146l45 -29q-65 -129 -207 -129q-102 0 -161 66.5t-59 186.5q0 109 59.5 177.5t155.5 68.5q100 0 154 -68.5t54 -178.5v-8h-362v-7q0 -89 45.5 -137t115.5 -48q109 0 160 106zM257 438q-65 0 -105.5 -42.5t-46.5 -115.5h296q0 62 -39.5 110t-104.5 48zM192 552h-63
l113 128h42l113 -128h-63l-70 75z" />
    <glyph glyph-name="edieresis" unicode="&#xeb;" horiz-adv-x="506" 
d="M133 579v91h62v-91h-62zM320 579v91h62v-91h-62zM424 146l45 -29q-65 -129 -207 -129q-102 0 -161 66.5t-59 186.5q0 109 59.5 177.5t155.5 68.5q100 0 154 -68.5t54 -178.5v-8h-362v-7q0 -89 45.5 -137t115.5 -48q109 0 160 106zM257 438q-65 0 -105.5 -42.5
t-46.5 -115.5h296q0 62 -39.5 110t-104.5 48z" />
    <glyph glyph-name="igrave" unicode="&#xec;" horiz-adv-x="197" 
d="M128 475v-475h-59v475h59zM-50 680h94l94 -128h-56z" />
    <glyph glyph-name="iacute" unicode="&#xed;" horiz-adv-x="197" 
d="M128 475v-475h-59v475h59zM151 680h94l-132 -128h-56z" />
    <glyph glyph-name="icircumflex" unicode="&#xee;" horiz-adv-x="197" 
d="M128 475v-475h-59v475h59zM26 552h-63l113 128h42l113 -128h-63l-70 75z" />
    <glyph glyph-name="idieresis" unicode="&#xef;" horiz-adv-x="197" 
d="M128 475v-475h-59v475h59zM-27 579v91h62v-91h-62zM160 579v91h62v-91h-62z" />
    <glyph glyph-name="eth" unicode="&#xf0;" horiz-adv-x="521" 
d="M104 237q0 -92 42 -145t112 -53t112 53.5t42 144.5q0 93 -41.5 146.5t-112.5 53.5t-112.5 -53.5t-41.5 -146.5zM246 681l46 20q42 -46 64 -77l105 34l13 -36l-95 -31q96 -156 96 -331q0 -123 -54 -197.5t-163 -74.5q-99 0 -157.5 67t-58.5 181t59 182.5t156 68.5
q39 0 78.5 -17t61.5 -51h1q-20 78 -69 156l-160 -52l-13 37l150 48q-31 42 -60 73z" />
    <glyph glyph-name="ntilde" unicode="&#xf1;" horiz-adv-x="503" 
d="M383 679l41 -10q-10 -21 -16 -32t-18 -27t-27 -23.5t-33 -7.5q-27 0 -77 26q-44 22 -55 22q-33 0 -47 -47l-42 9q36 90 96 90q23 0 67 -22q46 -23 62 -23q34 0 49 45zM439 269v-269h-59v256q0 114 -30 146q-28 31 -85 31q-61 0 -97 -39q-40 -41 -40 -111v-283h-59v476h59
v-79q15 38 54.5 64t96.5 26q76 0 118 -46q24 -27 33 -61.5t9 -110.5z" />
    <glyph glyph-name="ograve" unicode="&#xf2;" horiz-adv-x="516" 
d="M42 236q0 115 59 183t157 68t157 -68t59 -183q0 -114 -58.5 -181t-157.5 -67t-157.5 67t-58.5 181zM104 237q0 -92 42 -145t112 -53t112 53.5t42 144.5q0 93 -41.5 146.5t-112.5 53.5t-112.5 -53.5t-41.5 -146.5zM141 680h94l94 -128h-56z" />
    <glyph glyph-name="oacute" unicode="&#xf3;" horiz-adv-x="516" 
d="M42 236q0 115 59 183t157 68t157 -68t59 -183q0 -114 -58.5 -181t-157.5 -67t-157.5 67t-58.5 181zM104 237q0 -92 42 -145t112 -53t112 53.5t42 144.5q0 93 -41.5 146.5t-112.5 53.5t-112.5 -53.5t-41.5 -146.5zM301 680h94l-132 -128h-56z" />
    <glyph glyph-name="ocircumflex" unicode="&#xf4;" horiz-adv-x="516" 
d="M42 236q0 115 59 183t157 68t157 -68t59 -183q0 -114 -58.5 -181t-157.5 -67t-157.5 67t-58.5 181zM104 237q0 -92 42 -145t112 -53t112 53.5t42 144.5q0 93 -41.5 146.5t-112.5 53.5t-112.5 -53.5t-41.5 -146.5zM192 552h-63l113 128h42l113 -128h-63l-70 75z" />
    <glyph glyph-name="otilde" unicode="&#xf5;" horiz-adv-x="516" 
d="M42 236q0 115 59 183t157 68t157 -68t59 -183q0 -114 -58.5 -181t-157.5 -67t-157.5 67t-58.5 181zM104 237q0 -92 42 -145t112 -53t112 53.5t42 144.5q0 93 -41.5 146.5t-112.5 53.5t-112.5 -53.5t-41.5 -146.5zM373 679l41 -10q-10 -21 -16 -32t-18 -27t-27 -23.5
t-33 -7.5q-27 0 -77 26q-44 22 -55 22q-33 0 -47 -47l-42 9q36 90 96 90q23 0 67 -22q46 -23 62 -23q34 0 49 45z" />
    <glyph glyph-name="odieresis" unicode="&#xf6;" horiz-adv-x="516" 
d="M42 236q0 115 59 183t157 68t157 -68t59 -183q0 -114 -58.5 -181t-157.5 -67t-157.5 67t-58.5 181zM104 237q0 -92 42 -145t112 -53t112 53.5t42 144.5q0 93 -41.5 146.5t-112.5 53.5t-112.5 -53.5t-41.5 -146.5zM136 579v91h62v-91h-62zM323 579v91h62v-91h-62z" />
    <glyph glyph-name="divide" unicode="&#xf7;" horiz-adv-x="801" 
d="M737 267v-57h-673v57h673zM361 476h78v-100h-78v100zM361 101h78v-101h-78v101z" />
    <glyph glyph-name="oslash" unicode="&#xf8;" horiz-adv-x="517" 
d="M135 109l223 290q-40 38 -99 38q-71 0 -112.5 -53.5t-41.5 -146.5q0 -79 30 -128zM47 -5l50 65q-54 65 -54 176q0 115 59 183t157 68q78 0 132 -45l49 64l44 -32l-55 -72q46 -67 46 -166q0 -114 -58.5 -181t-157.5 -67q-71 0 -123 35l-47 -61zM390 352l-219 -284
q37 -29 88 -29q70 0 112 53.5t42 144.5q0 67 -23 115z" />
    <glyph glyph-name="ugrave" unicode="&#xf9;" horiz-adv-x="501" 
d="M64 178v298h59v-272q0 -95 30 -130q28 -31 85 -31q68 0 101.5 45t33.5 105v283h59v-476h-59v78q-15 -38 -53.5 -64t-95.5 -26q-76 0 -118 46q-42 47 -42 144zM133 680h94l94 -128h-56z" />
    <glyph glyph-name="uacute" unicode="&#xfa;" horiz-adv-x="501" 
d="M64 178v298h59v-272q0 -95 30 -130q28 -31 85 -31q68 0 101.5 45t33.5 105v283h59v-476h-59v78q-15 -38 -53.5 -64t-95.5 -26q-76 0 -118 46q-42 47 -42 144zM289 680h94l-132 -128h-56z" />
    <glyph glyph-name="ucircumflex" unicode="&#xfb;" horiz-adv-x="501" 
d="M64 178v298h59v-272q0 -95 30 -130q28 -31 85 -31q68 0 101.5 45t33.5 105v283h59v-476h-59v78q-15 -38 -53.5 -64t-95.5 -26q-76 0 -118 46q-42 47 -42 144zM178 552h-63l113 128h42l113 -128h-63l-70 75z" />
    <glyph glyph-name="udieresis" unicode="&#xfc;" horiz-adv-x="501" 
d="M64 178v298h59v-272q0 -95 30 -130q28 -31 85 -31q68 0 101.5 45t33.5 105v283h59v-476h-59v78q-15 -38 -53.5 -64t-95.5 -26q-76 0 -118 46q-42 47 -42 144zM129 579v91h62v-91h-62zM316 579v91h62v-91h-62z" />
    <glyph glyph-name="yacute" unicode="&#xfd;" horiz-adv-x="444" 
d="M276 680h94l-132 -128h-56zM82 476l113 -317l27 -79h1q12 35 30 82l121 314h61l-213 -541q-25 -65 -40 -90q-29 -47 -87 -47q-35 0 -62 16v59q30 -20 60 -20q29 0 43 21q11 15 26 56l26 70l-170 476h64z" />
    <glyph glyph-name="thorn" unicode="&#xfe;" horiz-adv-x="527" 
d="M285 -12q-57 0 -98 27t-59 70v-275h-59v870h59v-289q18 42 59 69t96 27q91 0 146 -67t55 -184q0 -115 -54.5 -181.5t-144.5 -66.5zM126 237q0 -95 39.5 -146.5t108.5 -51.5q71 0 109.5 52t38.5 147t-40 146.5t-110 51.5q-68 0 -107 -51.5t-39 -147.5z" />
    <glyph glyph-name="ydieresis" unicode="&#xff;" horiz-adv-x="444" 
d="M108 579v91h62v-91h-62zM295 579v91h62v-91h-62zM82 476l113 -317l27 -79h1q12 35 30 82l121 314h61l-213 -541q-25 -65 -40 -90q-29 -47 -87 -47q-35 0 -62 16v59q30 -20 60 -20q29 0 43 21q11 15 26 56l26 70l-170 476h64z" />
    <glyph glyph-name="Amacron" unicode="&#x100;" horiz-adv-x="595" 
d="M149 205l-74 -205h-67l259 680h62l257 -680h-68l-76 205h-293zM420 263l-95 250q-18 44 -29 83h-1q-17 -50 -30 -84l-95 -249h250zM161 778v53h271v-53h-271z" />
    <glyph glyph-name="amacron" unicode="&#x101;" horiz-adv-x="483" 
d="M348 168v88q-20 -7 -60 -14l-59 -11q-59 -11 -85 -25q-40 -23 -40 -73q0 -46 28.5 -70.5t75.5 -24.5q60 0 100 36t40 94zM110 325l-55 13q-1 69 49.5 109t130.5 40q81 0 125 -33t44 -117v-237q0 -33 7 -47.5t31 -14.5q21 0 36 9v-46q-20 -11 -51 -11q-36 0 -57.5 19.5
t-20.5 57.5h-1q-15 -32 -55 -55.5t-99 -23.5q-70 0 -111 39t-41 105q0 60 36 93t137 52l109 20q10 2 14 3.5t7 7t3 15.5v15q0 51 -27 75.5t-89 24.5q-59 0 -90.5 -29.5t-31.5 -83.5zM101 579v53h271v-53h-271z" />
    <glyph glyph-name="Abreve" unicode="&#x102;" horiz-adv-x="595" 
d="M149 205l-74 -205h-67l259 680h62l257 -680h-68l-76 205h-293zM420 263l-95 250q-18 44 -29 83h-1q-17 -50 -30 -84l-95 -249h250zM297 783q70 0 86 67h48q-7 -54 -42.5 -83t-91.5 -29t-91.5 29t-42.5 83h48q16 -67 86 -67z" />
    <glyph glyph-name="abreve" unicode="&#x103;" horiz-adv-x="483" 
d="M348 168v88q-20 -7 -60 -14l-59 -11q-59 -11 -85 -25q-40 -23 -40 -73q0 -46 28.5 -70.5t75.5 -24.5q60 0 100 36t40 94zM110 325l-55 13q-1 69 49.5 109t130.5 40q81 0 125 -33t44 -117v-237q0 -33 7 -47.5t31 -14.5q21 0 36 9v-46q-20 -11 -51 -11q-36 0 -57.5 19.5
t-20.5 57.5h-1q-15 -32 -55 -55.5t-99 -23.5q-70 0 -111 39t-41 105q0 60 36 93t137 52l109 20q10 2 14 3.5t7 7t3 15.5v15q0 51 -27 75.5t-89 24.5q-59 0 -90.5 -29.5t-31.5 -83.5zM235 582q70 0 86 67h48q-7 -54 -42.5 -83t-91.5 -29t-91.5 29t-42.5 83h48q16 -67 86 -67z
" />
    <glyph glyph-name="Aogonek" unicode="&#x104;" horiz-adv-x="595" 
d="M540 -174l18 -41q-23 -6 -46 -6q-45 0 -71.5 24.5t-26.5 66.5q0 69 104 130l-76 205h-293l-74 -205h-67l259 680h62l257 -680h-11q-111 -67 -111 -126q0 -51 54 -51q12 0 22 3zM420 263l-95 250q-18 44 -29 83h-1q-17 -50 -30 -84l-95 -249h250z" />
    <glyph glyph-name="aogonek" unicode="&#x105;" horiz-adv-x="482" 
d="M110 325l-55 13q-1 69 49.5 109t130.5 40q81 0 125 -33t44 -117v-237q0 -33 7 -47.5t31 -14.5q21 0 36 9v-46l-15 -6q-103 -65 -103 -121q0 -51 54 -51q12 0 22 3l18 -41q-22 -6 -46 -6q-45 0 -71.5 24.5t-26.5 66.5q0 64 92 123q-56 14 -53 74h-1q-15 -32 -55 -55.5
t-99 -23.5q-70 0 -111 39t-41 105q0 60 36 93t137 52l109 20q10 2 14 3.5t7 7t3 15.5v15q0 51 -27 75.5t-89 24.5q-59 0 -90.5 -29.5t-31.5 -83.5zM348 168v88q-20 -7 -60 -14l-59 -11q-59 -11 -85 -25q-40 -23 -40 -73q0 -46 28.5 -70.5t75.5 -24.5q60 0 100 36t40 94z" />
    <glyph glyph-name="Cacute" unicode="&#x106;" horiz-adv-x="623" 
d="M337 753h-56l102 136h96zM588 528l-55 -36q-26 64 -75 104t-122 40q-102 0 -162 -81.5t-60 -214.5t60 -214.5t162 -81.5q77 0 126.5 40.5t72.5 105.5l56 -30q-75 -172 -255 -172q-136 0 -212 95t-76 257q0 161 77 256.5t211 95.5q98 0 160 -47t92 -117z" />
    <glyph glyph-name="cacute" unicode="&#x107;" horiz-adv-x="475" 
d="M443 363l-51 -30q-37 104 -134 104q-71 0 -112.5 -53.5t-41.5 -146.5q0 -92 42 -145t112 -53q93 0 138 91l47 -29q-55 -113 -185 -113q-100 0 -158 67t-58 181q0 115 59 183t157 68q137 0 185 -124zM301 680h94l-132 -128h-56z" />
    <glyph glyph-name="Ccircumflex" unicode="&#x108;" horiz-adv-x="623" 
d="M416 753l-79 81l-79 -81h-61l119 136h42l119 -136h-61zM588 528l-55 -36q-26 64 -75 104t-122 40q-102 0 -162 -81.5t-60 -214.5t60 -214.5t162 -81.5q77 0 126.5 40.5t72.5 105.5l56 -30q-75 -172 -255 -172q-136 0 -212 95t-76 257q0 161 77 256.5t211 95.5
q98 0 160 -47t92 -117z" />
    <glyph glyph-name="ccircumflex" unicode="&#x109;" horiz-adv-x="475" 
d="M443 363l-51 -30q-37 104 -134 104q-71 0 -112.5 -53.5t-41.5 -146.5q0 -92 42 -145t112 -53q93 0 138 91l47 -29q-55 -113 -185 -113q-100 0 -158 67t-58 181q0 115 59 183t157 68q137 0 185 -124zM192 552h-63l113 128h42l113 -128h-63l-70 75z" />
    <glyph glyph-name="Cdotaccent" unicode="&#x10a;" horiz-adv-x="623" 
d="M588 528l-55 -36q-26 64 -75 104t-122 40q-102 0 -162 -81.5t-60 -214.5t60 -214.5t162 -81.5q77 0 126.5 40.5t72.5 105.5l56 -30q-75 -172 -255 -172q-136 0 -212 95t-76 257q0 161 77 256.5t211 95.5q98 0 160 -47t92 -117zM306 768v91h68v-91h-68z" />
    <glyph glyph-name="cdotaccent" unicode="&#x10b;" horiz-adv-x="475" 
d="M443 363l-51 -30q-37 104 -134 104q-71 0 -112.5 -53.5t-41.5 -146.5q0 -92 42 -145t112 -53q93 0 138 91l47 -29q-55 -113 -185 -113q-100 0 -158 67t-58 181q0 115 59 183t157 68q137 0 185 -124zM224 579v91h68v-91h-68z" />
    <glyph glyph-name="Ccaron" unicode="&#x10c;" horiz-adv-x="623" 
d="M258 889l79 -81l79 81h61l-119 -136h-42l-119 136h61zM588 528l-55 -36q-26 64 -75 104t-122 40q-102 0 -162 -81.5t-60 -214.5t60 -214.5t162 -81.5q77 0 126.5 40.5t72.5 105.5l56 -30q-75 -172 -255 -172q-136 0 -212 95t-76 257q0 161 77 256.5t211 95.5
q98 0 160 -47t92 -117z" />
    <glyph glyph-name="ccaron" unicode="&#x10d;" horiz-adv-x="475" 
d="M443 363l-51 -30q-37 104 -134 104q-71 0 -112.5 -53.5t-41.5 -146.5q0 -92 42 -145t112 -53q93 0 138 91l47 -29q-55 -113 -185 -113q-100 0 -158 67t-58 181q0 115 59 183t157 68q137 0 185 -124zM335 680h63l-113 -128h-42l-113 128h63l70 -75z" />
    <glyph glyph-name="Dcaron" unicode="&#x10e;" horiz-adv-x="663" 
d="M246 889l79 -81l79 81h61l-119 -136h-42l-119 136h61zM238 0h-155v680h176q78 0 124 -6.5t85 -27.5q73 -39 110 -122t37 -182q0 -176 -99 -272q-49 -48 -104.5 -59t-173.5 -11zM146 624v-568h109q58 0 85.5 1.5t61.5 12.5t59 33q38 33 62.5 96t24.5 140q0 74 -22.5 137
t-64.5 99q-37 33 -83.5 41t-145.5 8h-86z" />
    <glyph glyph-name="dcaron" unicode="&#x10f;" horiz-adv-x="535" 
d="M241 -12q-90 0 -144 65t-54 183q0 117 55.5 184t145.5 67q55 0 96 -27t59 -69v289h59v-680h-59v85q-43 -97 -158 -97zM401 237q0 96 -39 147.5t-107 51.5q-70 0 -110 -51.5t-40 -146.5t38.5 -147t109.5 -52q69 0 108.5 51.5t39.5 146.5zM545 552h-48l49 128h82z" />
    <glyph glyph-name="Dcroat" unicode="&#x110;" horiz-adv-x="669" 
d="M244 0h-155v335h-92v58h92v287h176q78 0 124 -6.5t85 -27.5q73 -39 110 -122t37 -182q0 -176 -99 -272q-49 -48 -104.5 -59t-173.5 -11zM152 624v-231h215v-58h-215v-279h109q58 0 85.5 1.5t61.5 12.5t59 33q38 33 62.5 96t24.5 140q0 74 -22.5 137t-64.5 99
q-37 33 -83.5 41t-145.5 8h-86z" />
    <glyph glyph-name="dcroat" unicode="&#x111;" horiz-adv-x="527" 
d="M241 -12q-90 0 -144 65t-54 183q0 117 55.5 184t145.5 67q55 0 96 -27t59 -69v161h-150v56h150v72h59v-72h79v-56h-79v-552h-59v85q-43 -97 -158 -97zM401 237q0 96 -39 147.5t-107 51.5q-70 0 -110 -51.5t-40 -146.5t38.5 -147t109.5 -52q69 0 108.5 51.5t39.5 146.5z
" />
    <glyph glyph-name="Emacron" unicode="&#x112;" horiz-adv-x="584" 
d="M549 56v-56h-466v680h446v-56h-383v-246h347v-57h-347v-265h403zM166 778v53h271v-53h-271z" />
    <glyph glyph-name="emacron" unicode="&#x113;" horiz-adv-x="506" 
d="M424 146l45 -29q-65 -129 -207 -129q-102 0 -161 66.5t-59 186.5q0 109 59.5 177.5t155.5 68.5q100 0 154 -68.5t54 -178.5v-8h-362v-7q0 -89 45.5 -137t115.5 -48q109 0 160 106zM257 438q-65 0 -105.5 -42.5t-46.5 -115.5h296q0 62 -39.5 110t-104.5 48zM121 579v53
h271v-53h-271z" />
    <glyph glyph-name="Ebreve" unicode="&#x114;" horiz-adv-x="584" 
d="M549 56v-56h-466v680h446v-56h-383v-246h347v-57h-347v-265h403zM303 783q70 0 86 67h48q-7 -54 -42.5 -83t-91.5 -29t-91.5 29t-42.5 83h48q16 -67 86 -67z" />
    <glyph glyph-name="ebreve" unicode="&#x115;" horiz-adv-x="506" 
d="M424 146l45 -29q-65 -129 -207 -129q-102 0 -161 66.5t-59 186.5q0 109 59.5 177.5t155.5 68.5q100 0 154 -68.5t54 -178.5v-8h-362v-7q0 -89 45.5 -137t115.5 -48q109 0 160 106zM257 438q-65 0 -105.5 -42.5t-46.5 -115.5h296q0 62 -39.5 110t-104.5 48zM256 582
q70 0 86 67h48q-7 -54 -42.5 -83t-91.5 -29t-91.5 29t-42.5 83h48q16 -67 86 -67z" />
    <glyph glyph-name="Edotaccent" unicode="&#x116;" horiz-adv-x="584" 
d="M549 56v-56h-466v680h446v-56h-383v-246h347v-57h-347v-265h403zM267 768v91h68v-91h-68z" />
    <glyph glyph-name="edotaccent" unicode="&#x117;" horiz-adv-x="506" 
d="M424 146l45 -29q-65 -129 -207 -129q-102 0 -161 66.5t-59 186.5q0 109 59.5 177.5t155.5 68.5q100 0 154 -68.5t54 -178.5v-8h-362v-7q0 -89 45.5 -137t115.5 -48q109 0 160 106zM257 438q-65 0 -105.5 -42.5t-46.5 -115.5h296q0 62 -39.5 110t-104.5 48zM227 579v91h68
v-91h-68z" />
    <glyph glyph-name="Eogonek" unicode="&#x118;" horiz-adv-x="584" 
d="M507 -174l18 -41q-23 -6 -46 -6q-45 0 -71.5 24.5t-26.5 66.5q0 37 31 71.5t73 58.5h-402v680h446v-56h-383v-246h347v-57h-347v-265h403v-56h-7q-111 -67 -111 -126q0 -51 54 -51q11 0 22 3z" />
    <glyph glyph-name="eogonek" unicode="&#x119;" horiz-adv-x="506" 
d="M302 -174l18 -41q-22 -6 -46 -6q-45 0 -71.5 24.5t-26.5 66.5q0 63 85 118q-101 0 -160 66.5t-59 186.5q0 109 59.5 177.5t155.5 68.5q100 0 154 -68.5t54 -178.5v-8h-362v-7q0 -89 45.5 -137t115.5 -48q109 0 160 106l45 -29q-46 -93 -136 -119q-107 -69 -107 -124
q0 -51 54 -51q12 0 22 3zM257 438q-65 0 -105.5 -42.5t-46.5 -115.5h296q0 62 -39.5 110t-104.5 48z" />
    <glyph glyph-name="Ecaron" unicode="&#x11a;" horiz-adv-x="584" 
d="M239 889l79 -81l79 81h61l-119 -136h-42l-119 136h61zM549 56v-56h-466v680h446v-56h-383v-246h347v-57h-347v-265h403z" />
    <glyph glyph-name="ecaron" unicode="&#x11b;" horiz-adv-x="506" 
d="M424 146l45 -29q-65 -129 -207 -129q-102 0 -161 66.5t-59 186.5q0 109 59.5 177.5t155.5 68.5q100 0 154 -68.5t54 -178.5v-8h-362v-7q0 -89 45.5 -137t115.5 -48q109 0 160 106zM257 438q-65 0 -105.5 -42.5t-46.5 -115.5h296q0 62 -39.5 110t-104.5 48zM327 680h63
l-113 -128h-42l-113 128h63l70 -75z" />
    <glyph glyph-name="Gcircumflex" unicode="&#x11c;" horiz-adv-x="650" 
d="M416 753l-79 81l-79 -81h-61l119 136h42l119 -136h-61zM336 44q108 0 157 70q42 59 42 168v6h-247v56h302v-344h-56v93q-23 -42 -73 -73.5t-125 -31.5q-136 0 -212 95t-76 257q0 161 77 256.5t211 95.5q98 0 160 -47t92 -117l-55 -36q-26 64 -75 104t-122 40
q-102 0 -162 -81.5t-60 -214.5t60 -214.5t162 -81.5z" />
    <glyph glyph-name="gcircumflex" unicode="&#x11d;" horiz-adv-x="527" 
d="M458 476v-457q0 -112 -49.5 -164.5t-155.5 -52.5q-183 0 -192 157l57 16q11 -123 135 -123q47 0 77.5 14t44.5 42.5t19 58t5 73.5v49q-42 -94 -156 -94q-92 0 -146 65.5t-54 179.5t55.5 180.5t145.5 66.5q55 0 95 -24.5t60 -64.5v78h59zM401 241q0 94 -39 144.5
t-107 50.5q-70 0 -110 -50.5t-40 -143.5t38.5 -143.5t109.5 -50.5q69 0 108.5 50.5t39.5 142.5zM192 552h-63l113 128h42l113 -128h-63l-70 75z" />
    <glyph glyph-name="Gbreve" unicode="&#x11e;" horiz-adv-x="650" 
d="M336 44q108 0 157 70q42 59 42 168v6h-247v56h302v-344h-56v93q-23 -42 -73 -73.5t-125 -31.5q-136 0 -212 95t-76 257q0 161 77 256.5t211 95.5q98 0 160 -47t92 -117l-55 -36q-26 64 -75 104t-122 40q-102 0 -162 -81.5t-60 -214.5t60 -214.5t162 -81.5zM337 783
q70 0 86 67h48q-7 -54 -42.5 -83t-91.5 -29t-91.5 29t-42.5 83h48q16 -67 86 -67z" />
    <glyph glyph-name="gbreve" unicode="&#x11f;" horiz-adv-x="527" 
d="M458 476v-457q0 -112 -49.5 -164.5t-155.5 -52.5q-183 0 -192 157l57 16q11 -123 135 -123q47 0 77.5 14t44.5 42.5t19 58t5 73.5v49q-42 -94 -156 -94q-92 0 -146 65.5t-54 179.5t55.5 180.5t145.5 66.5q55 0 95 -24.5t60 -64.5v78h59zM401 241q0 94 -39 144.5
t-107 50.5q-70 0 -110 -50.5t-40 -143.5t38.5 -143.5t109.5 -50.5q69 0 108.5 50.5t39.5 142.5zM260 582q70 0 86 67h48q-7 -54 -42.5 -83t-91.5 -29t-91.5 29t-42.5 83h48q16 -67 86 -67z" />
    <glyph glyph-name="Gdotaccent" unicode="&#x120;" horiz-adv-x="650" 
d="M336 44q108 0 157 70q42 59 42 168v6h-247v56h302v-344h-56v93q-23 -42 -73 -73.5t-125 -31.5q-136 0 -212 95t-76 257q0 161 77 256.5t211 95.5q98 0 160 -47t92 -117l-55 -36q-26 64 -75 104t-122 40q-102 0 -162 -81.5t-60 -214.5t60 -214.5t162 -81.5zM307 768v91h68
v-91h-68z" />
    <glyph glyph-name="gdotaccent" unicode="&#x121;" horiz-adv-x="527" 
d="M458 476v-457q0 -112 -49.5 -164.5t-155.5 -52.5q-183 0 -192 157l57 16q11 -123 135 -123q47 0 77.5 14t44.5 42.5t19 58t5 73.5v49q-42 -94 -156 -94q-92 0 -146 65.5t-54 179.5t55.5 180.5t145.5 66.5q55 0 95 -24.5t60 -64.5v78h59zM401 241q0 94 -39 144.5
t-107 50.5q-70 0 -110 -50.5t-40 -143.5t38.5 -143.5t109.5 -50.5q69 0 108.5 50.5t39.5 142.5zM217 579v91h68v-91h-68z" />
    <glyph glyph-name="Gcommaaccent" unicode="&#x122;" horiz-adv-x="650" 
d="M336 44q108 0 157 70q42 59 42 168v6h-247v56h302v-344h-56v93q-23 -42 -73 -73.5t-125 -31.5q-136 0 -212 95t-76 257q0 161 77 256.5t211 95.5q98 0 160 -47t92 -117l-55 -36q-26 64 -75 104t-122 40q-102 0 -162 -81.5t-60 -214.5t60 -214.5t162 -81.5zM299 -65h82
v-64q0 -53 -15 -88q-22 -48 -71 -61v43q25 9 34 27t9 49h-39v94z" />
    <glyph glyph-name="gcommaaccent" unicode="&#x123;" horiz-adv-x="527" 
d="M458 476v-457q0 -112 -49.5 -164.5t-155.5 -52.5q-183 0 -192 157l57 16q11 -123 135 -123q47 0 77.5 14t44.5 42.5t19 58t5 73.5v49q-42 -94 -156 -94q-92 0 -146 65.5t-54 179.5t55.5 180.5t145.5 66.5q55 0 95 -24.5t60 -64.5v78h59zM401 241q0 94 -39 144.5
t-107 50.5q-70 0 -110 -50.5t-40 -143.5t38.5 -143.5t109.5 -50.5q69 0 108.5 50.5t39.5 142.5zM287 586h-82v64q0 54 15 88q22 48 71 61v-43q-25 -9 -34 -27t-9 -49h39v-94z" />
    <glyph glyph-name="Hcircumflex" unicode="&#x124;" horiz-adv-x="690" 
d="M423 753l-79 81l-79 -81h-61l119 136h42l119 -136h-61zM607 680v-680h-63v324h-398v-324h-63v680h63v-300h398v300h63z" />
    <glyph glyph-name="hcircumflex" unicode="&#x125;" horiz-adv-x="503" 
d="M328 753l-79 81l-79 -81h-61l119 136h42l119 -136h-61zM439 269v-269h-59v256q0 114 -30 146q-28 31 -85 31q-61 0 -97 -39q-40 -41 -40 -111v-283h-59v680h59v-283q15 38 54.5 64t96.5 26q76 0 118 -46q24 -27 33 -61.5t9 -110.5z" />
    <glyph glyph-name="Hbar" unicode="&#x126;" horiz-adv-x="690" 
d="M607 680v-680h-63v324h-398v-324h-63v680h63v-158h398v158h63zM146 380h398v89h-398v-89z" />
    <glyph glyph-name="hbar" unicode="&#x127;" horiz-adv-x="503" 
d="M-11 552v53h80v75h59v-75h164v-53h-164v-154q15 38 54.5 64t96.5 26q76 0 118 -46q24 -27 33 -61.5t9 -110.5v-270h-59v257q0 114 -30 146q-28 31 -85 31q-61 0 -97 -39q-40 -41 -40 -111v-284h-59v552h-80z" />
    <glyph glyph-name="Itilde" unicode="&#x128;" horiz-adv-x="229" 
d="M146 680v-680h-63v680h63zM231 868l41 -10q-10 -21 -16 -32t-18 -27t-27 -23.5t-33 -7.5q-27 0 -77 26q-44 22 -55 22q-33 0 -47 -47l-42 9q36 90 96 90q23 0 67 -22q46 -23 62 -23q34 0 49 45z" />
    <glyph glyph-name="itilde" unicode="&#x129;" horiz-adv-x="197" 
d="M128 476v-476h-59v476h59zM215 666l41 -10q-10 -21 -16 -32t-18 -27t-27 -23.5t-33 -7.5q-27 0 -77 26q-44 22 -55 22q-33 0 -47 -47l-42 9q36 90 96 90q23 0 67 -22q46 -23 62 -23q34 0 49 45z" />
    <glyph glyph-name="Imacron" unicode="&#x12a;" horiz-adv-x="229" 
d="M146 680v-680h-63v680h63zM-21 778v53h271v-53h-271z" />
    <glyph glyph-name="imacron" unicode="&#x12b;" horiz-adv-x="197" 
d="M128 476v-476h-59v476h59zM-37 579v53h271v-53h-271z" />
    <glyph glyph-name="Ibreve" unicode="&#x12c;" horiz-adv-x="229" 
d="M146 680v-680h-63v680h63zM115 783q70 0 86 67h48q-7 -54 -42.5 -83t-91.5 -29t-91.5 29t-42.5 83h48q16 -67 86 -67z" />
    <glyph glyph-name="ibreve" unicode="&#x12d;" horiz-adv-x="197" 
d="M128 476v-476h-59v476h59zM99 582q70 0 86 67h48q-7 -54 -42.5 -83t-91.5 -29t-91.5 29t-42.5 83h48q16 -67 86 -67z" />
    <glyph glyph-name="Iogonek" unicode="&#x12e;" horiz-adv-x="229" 
d="M105 -174l18 -41q-22 -6 -46 -6q-45 0 -71.5 24.5t-26.5 66.5q0 69 104 130v680h63v-680h-6q-111 -67 -111 -126q0 -51 54 -51q11 0 22 3z" />
    <glyph glyph-name="iogonek" unicode="&#x12f;" horiz-adv-x="197" 
d="M91 -174l18 -41q-23 -6 -46 -6q-45 0 -71.5 24.5t-26.5 66.5q0 69 104 130v476h59v-476h-2q-111 -67 -111 -126q0 -51 54 -51q11 0 22 3zM128 680v-98h-59v98h59z" />
    <glyph glyph-name="Idotaccent" unicode="&#x130;" horiz-adv-x="229" 
d="M146 680v-680h-63v680h63zM81 768v91h68v-91h-68z" />
    <glyph glyph-name="dotlessi" unicode="&#x131;" horiz-adv-x="197" 
d="M128 476v-476h-59v476h59z" />
    <glyph glyph-name="IJ" unicode="&#x132;" horiz-adv-x="707" 
d="M146 680v-680h-63v680h63zM250 161l61 18q1 -69 32 -104.5t99 -35.5q71 0 101 46q23 35 23 115v480h63v-467q0 -106 -29 -155q-43 -73 -160 -73q-185 0 -190 176z" />
    <glyph glyph-name="ij" unicode="&#x133;" horiz-adv-x="410" 
d="M128 476v-476h-59v476h59zM128 680v-98h-59v98h59zM282 476h59v-485q0 -83 -4 -113t-19 -50q-23 -30 -77 -30q-44 0 -81 20v61q40 -27 75 -27q34 0 42 26q5 15 5 159v439zM341 680v-98h-59v98h59z" />
    <glyph glyph-name="Jcircumflex" unicode="&#x134;" horiz-adv-x="473" 
d="M438 753l-79 81l-79 -81h-61l119 136h42l119 -136h-61zM16 161l61 18q1 -69 32 -104.5t99 -35.5q71 0 101 46q23 35 23 115v480h63v-467q0 -106 -29 -155q-43 -73 -160 -73q-185 0 -190 176z" />
    <glyph glyph-name="jcircumflex" unicode="&#x135;" horiz-adv-x="197" 
d="M69 476h59v-485q0 -83 -4 -113t-19 -50q-23 -30 -77 -30q-44 0 -81 20v61q40 -27 75 -27q34 0 42 26q5 15 5 159v439zM23 552h-63l113 128h42l113 -128h-63l-70 75z" />
    <glyph glyph-name="Kcommaaccent" unicode="&#x136;" horiz-adv-x="626" 
d="M338 412l287 -412h-79l-256 367l-144 -145v-222h-63v680h63v-380l374 380h84zM296 -65h82v-64q0 -53 -15 -88q-22 -48 -71 -61v43q25 9 34 27t9 49h-39v94z" />
    <glyph glyph-name="kcommaaccent" unicode="&#x137;" horiz-adv-x="496" 
d="M282 300l204 -300h-73l-175 260l-110 -101v-159h-59v680h59v-453l267 249h79zM230 -65h82v-64q0 -53 -15 -88q-22 -48 -71 -61v43q25 9 34 27t9 49h-39v94z" />
    <glyph glyph-name="kgreenlandic" unicode="&#x138;" horiz-adv-x="497" 
d="M281 299l205 -299h-73l-175 260l-110 -101v-159h-59v476h59v-250l182 171q35 33 50.5 45.5t40 23t52.5 10.5h6v-51h-6q-13 0 -25 -3.5t-27 -15t-21.5 -16t-25.5 -22.5l-21 -20z" />
    <glyph glyph-name="Lacute" unicode="&#x139;" horiz-adv-x="532" 
d="M131 753h-56l102 136h96zM521 56v-56h-438v680h63v-624h375z" />
    <glyph glyph-name="lacute" unicode="&#x13a;" horiz-adv-x="207" 
d="M127 753h-56l102 136h96zM133 680v-680h-59v680h59z" />
    <glyph glyph-name="Lcommaaccent" unicode="&#x13b;" horiz-adv-x="532" 
d="M521 56v-56h-438v680h63v-624h375zM267 -65h82v-64q0 -53 -15 -88q-22 -48 -71 -61v43q25 9 34 27t9 49h-39v94z" />
    <glyph glyph-name="lcommaaccent" unicode="&#x13c;" horiz-adv-x="207" 
d="M133 680v-680h-59v680h59zM63 -65h82v-64q0 -53 -15 -88q-22 -48 -71 -61v43q25 9 34 27t9 49h-39v94z" />
    <glyph glyph-name="Lcaron" unicode="&#x13d;" horiz-adv-x="532" 
d="M521 56v-56h-438v680h63v-624h375zM293 552h-48l49 128h82z" />
    <glyph glyph-name="lcaron" unicode="&#x13e;" horiz-adv-x="215" 
d="M133 680v-680h-59v680h59zM233 552h-48l49 128h82z" />
    <glyph glyph-name="Ldot" unicode="&#x13f;" horiz-adv-x="532" 
d="M521 56v-56h-438v680h63v-624h375zM252 476h78v-114h-78v114z" />
    <glyph glyph-name="ldot" unicode="&#x140;" horiz-adv-x="248" 
d="M133 680v-680h-59v680h59zM190 476h78v-114h-78v114z" />
    <glyph glyph-name="Lslash" unicode="&#x141;" horiz-adv-x="538" 
d="M527 56v-56h-438v241l-73 -47v62l73 47v377h63v-336l204 133v-64l-204 -132v-225h375z" />
    <glyph glyph-name="lslash" unicode="&#x142;" horiz-adv-x="221" 
d="M140 680v-264l72 47v-63l-72 -47v-353h-59v314l-67 -43v63l67 43v303h59z" />
    <glyph glyph-name="Nacute" unicode="&#x143;" horiz-adv-x="692" 
d="M346 753h-56l102 136h96zM146 680l346 -494q48 -67 56 -92h1q-3 36 -3 99v487h63v-680h-63l-345 494q-50 71 -58 94h-1q4 -48 4 -100v-488h-63v680h63z" />
    <glyph glyph-name="nacute" unicode="&#x144;" horiz-adv-x="503" 
d="M439 269v-269h-59v256q0 114 -30 146q-28 31 -85 31q-61 0 -97 -39q-40 -41 -40 -111v-283h-59v476h59v-79q15 38 54.5 64t96.5 26q76 0 118 -46q24 -27 33 -61.5t9 -110.5zM265 680h94l-132 -128h-56z" />
    <glyph glyph-name="Ncommaaccent" unicode="&#x145;" horiz-adv-x="692" 
d="M146 680l346 -494q48 -67 56 -92h1q-3 36 -3 99v487h63v-680h-63l-345 494q-50 71 -58 94h-1q4 -48 4 -100v-488h-63v680h63zM322 -65h82v-64q0 -53 -15 -88q-22 -48 -71 -61v43q25 9 34 27t9 49h-39v94z" />
    <glyph glyph-name="ncommaaccent" unicode="&#x146;" horiz-adv-x="503" 
d="M439 269v-269h-59v256q0 114 -30 146q-28 31 -85 31q-61 0 -97 -39q-40 -41 -40 -111v-283h-59v476h59v-79q15 38 54.5 64t96.5 26q76 0 118 -46q24 -27 33 -61.5t9 -110.5zM224 -65h82v-64q0 -53 -15 -88q-22 -48 -71 -61v43q25 9 34 27t9 49h-39v94z" />
    <glyph glyph-name="Ncaron" unicode="&#x147;" horiz-adv-x="692" 
d="M275 889l79 -81l79 81h61l-119 -136h-42l-119 136h61zM146 680l346 -494q48 -67 56 -92h1q-3 36 -3 99v487h63v-680h-63l-345 494q-50 71 -58 94h-1q4 -48 4 -100v-488h-63v680h63z" />
    <glyph glyph-name="ncaron" unicode="&#x148;" horiz-adv-x="503" 
d="M439 269v-269h-59v256q0 114 -30 146q-28 31 -85 31q-61 0 -97 -39q-40 -41 -40 -111v-283h-59v476h59v-79q15 38 54.5 64t96.5 26q76 0 118 -46q24 -27 33 -61.5t9 -110.5zM327 680h63l-113 -128h-42l-113 128h63l70 -75z" />
    <glyph glyph-name="napostrophe" unicode="&#x149;" horiz-adv-x="503" 
d="M439 269v-269h-59v256q0 114 -30 146q-28 31 -85 31q-61 0 -97 -39q-40 -41 -40 -111v-283h-59v476h59v-79q15 38 54.5 64t96.5 26q76 0 118 -46q24 -27 33 -61.5t9 -110.5zM24 774h82v-64q0 -54 -15 -88q-22 -48 -71 -61v43q25 9 34 27t9 49h-39v94z" />
    <glyph glyph-name="Eng" unicode="&#x14a;" horiz-adv-x="692" 
d="M234 -46l60 20q11 -118 130 -118q71 0 101 46q22 34 22 98l-346 494q-50 71 -58 94h-1q4 -48 4 -100v-488h-63v680h63l346 -494q48 -67 56 -92h1q-3 36 -3 99v487h63v-666q0 -88 -24 -133q-41 -79 -163 -79q-168 0 -188 152z" />
    <glyph glyph-name="eng" unicode="&#x14b;" horiz-adv-x="503" 
d="M439 270v-279q0 -83 -4 -113t-19 -50q-23 -30 -77 -30q-44 0 -81 20v61q40 -27 75 -27q34 0 42 26q5 15 5 159v220q0 114 -30 146q-28 31 -85 31q-61 0 -97 -39q-40 -41 -40 -111v-284h-59v476h59v-78q15 38 54.5 64t96.5 26q76 0 118 -46q24 -27 33 -61.5t9 -110.5z" />
    <glyph glyph-name="Omacron" unicode="&#x14c;" horiz-adv-x="672" 
d="M47 340q0 161 77.5 256.5t211.5 95.5t211.5 -95.5t77.5 -256.5q0 -160 -77.5 -256t-211.5 -96t-211.5 96t-77.5 256zM114 340q0 -133 61 -215t161 -82t161 82t61 215t-60.5 215t-161.5 82t-161.5 -82t-60.5 -215zM200 778v53h271v-53h-271z" />
    <glyph glyph-name="omacron" unicode="&#x14d;" horiz-adv-x="516" 
d="M42 236q0 114 58 182.5t158 68.5t158 -68.5t58 -182.5q0 -113 -58 -180.5t-158 -67.5t-158 67.5t-58 180.5zM104 237q0 -92 42 -145t112 -53t112 53.5t42 144.5q0 93 -41.5 146.5t-112.5 53.5t-112.5 -53.5t-41.5 -146.5zM122 579v53h271v-53h-271z" />
    <glyph glyph-name="Obreve" unicode="&#x14e;" horiz-adv-x="672" 
d="M47 340q0 161 77.5 256.5t211.5 95.5t211.5 -95.5t77.5 -256.5q0 -160 -77.5 -256t-211.5 -96t-211.5 96t-77.5 256zM114 340q0 -133 61 -215t161 -82t161 82t61 215t-60.5 215t-161.5 82t-161.5 -82t-60.5 -215zM336 783q70 0 86 67h48q-7 -54 -42.5 -83t-91.5 -29
t-91.5 29t-42.5 83h48q16 -67 86 -67z" />
    <glyph glyph-name="obreve" unicode="&#x14f;" horiz-adv-x="516" 
d="M42 236q0 114 58 182.5t158 68.5t158 -68.5t58 -182.5q0 -113 -58 -180.5t-158 -67.5t-158 67.5t-58 180.5zM104 237q0 -92 42 -145t112 -53t112 53.5t42 144.5q0 93 -41.5 146.5t-112.5 53.5t-112.5 -53.5t-41.5 -146.5zM258 582q70 0 86 67h48q-7 -54 -42.5 -83
t-91.5 -29t-91.5 29t-42.5 83h48q16 -67 86 -67z" />
    <glyph glyph-name="Ohungarumlaut" unicode="&#x150;" horiz-adv-x="672" 
d="M47 340q0 161 77.5 256.5t211.5 95.5t211.5 -95.5t77.5 -256.5q0 -160 -77.5 -256t-211.5 -96t-211.5 96t-77.5 256zM114 340q0 -133 61 -215t161 -82t161 82t61 215t-60.5 215t-161.5 82t-161.5 -82t-60.5 -215zM411 753h-56l102 136h96zM265 753h-56l102 136h96z" />
    <glyph glyph-name="ohungarumlaut" unicode="&#x151;" horiz-adv-x="516" 
d="M42 236q0 114 58 182.5t158 68.5t158 -68.5t58 -182.5q0 -113 -58 -180.5t-158 -67.5t-158 67.5t-58 180.5zM104 237q0 -92 42 -145t112 -53t112 53.5t42 144.5q0 93 -41.5 146.5t-112.5 53.5t-112.5 -53.5t-41.5 -146.5zM327 544h-56l102 136h96zM181 544h-56l102 136
h96z" />
    <glyph glyph-name="OE" unicode="&#x152;" horiz-adv-x="993" 
d="M958 56v-56h-457q-65 -12 -114 -12q-159 0 -249.5 90.5t-90.5 259.5q0 165 92 260t249 95q41 0 113 -13h437v-56h-383v-247h347v-57h-347v-264h403zM492 57v567q-50 11 -104 11q-127 0 -201 -75.5t-74 -221.5q0 -140 78 -218t199 -78q54 0 102 15z" />
    <glyph glyph-name="oe" unicode="&#x153;" horiz-adv-x="865" 
d="M783 146l45 -29q-64 -129 -207 -129q-131 0 -187 104q-58 -104 -178 -104q-99 0 -156 67t-57 181q0 115 57.5 183t155.5 68q119 0 178 -106q27 50 74.5 78t107.5 28q100 0 154 -68.5t54 -178.5v-8h-362v-7q0 -89 45.5 -137t115.5 -48q109 0 160 106zM105 237
q0 -92 41 -145t110 -53t110 53t41 145q0 94 -40 147t-111 53q-70 0 -110.5 -53.5t-40.5 -146.5zM616 438q-65 0 -105.5 -42.5t-46.5 -115.5h296q0 62 -39.5 110t-104.5 48z" />
    <glyph glyph-name="Racute" unicode="&#x154;" horiz-adv-x="642" 
d="M318 753h-56l102 136h96zM536 0l-210 301h-180v-301h-63v680h268q108 0 163 -35q85 -51 85 -155q0 -103 -85 -154q-44 -29 -113 -34l216 -302h-81zM146 624v-267h191q80 0 124 19q70 33 70 115t-70 114q-41 19 -124 19h-191z" />
    <glyph glyph-name="racute" unicode="&#x155;" horiz-adv-x="323" 
d="M304 485v-59q-16 3 -33 3q-63 0 -103 -44.5t-40 -115.5v-269h-59v476h59v-92q13 44 52.5 74t91.5 30q16 0 32 -3zM161 680h94l-132 -128h-56z" />
    <glyph glyph-name="Rcommaaccent" unicode="&#x156;" horiz-adv-x="642" 
d="M536 0l-210 301h-180v-301h-63v680h268q108 0 163 -35q85 -51 85 -155q0 -103 -85 -154q-44 -29 -113 -34l216 -302h-81zM146 624v-267h191q80 0 124 19q70 33 70 115t-70 114q-41 19 -124 19h-191zM289 -65h82v-64q0 -53 -15 -88q-22 -48 -71 -61v43q25 9 34 27t9 49
h-39v94z" />
    <glyph glyph-name="rcommaaccent" unicode="&#x157;" horiz-adv-x="323" 
d="M304 485v-59q-16 3 -33 3q-63 0 -103 -44.5t-40 -115.5v-269h-59v476h59v-92q13 44 52.5 74t91.5 30q16 0 32 -3zM58 -65h82v-64q0 -53 -15 -88q-22 -48 -71 -61v43q25 9 34 27t9 49h-39v94z" />
    <glyph glyph-name="Rcaron" unicode="&#x158;" horiz-adv-x="642" 
d="M239 889l79 -81l79 81h61l-119 -136h-42l-119 136h61zM536 0l-210 301h-180v-301h-63v680h268q108 0 163 -35q85 -51 85 -155q0 -103 -85 -154q-44 -29 -113 -34l216 -302h-81zM146 624v-267h191q80 0 124 19q70 33 70 115t-70 114q-41 19 -124 19h-191z" />
    <glyph glyph-name="rcaron" unicode="&#x159;" horiz-adv-x="323" 
d="M304 485v-59q-16 3 -33 3q-63 0 -103 -44.5t-40 -115.5v-269h-59v476h59v-92q13 44 52.5 74t91.5 30q16 0 32 -3zM242 680h63l-113 -128h-42l-113 128h63l70 -75z" />
    <glyph glyph-name="Sacute" unicode="&#x15a;" horiz-adv-x="579" 
d="M292 753h-56l102 136h96zM517 589l-50 -43q-68 89 -181 89q-70 0 -115 -33.5t-45 -87.5q0 -53 32.5 -79.5t104.5 -42.5l91 -20q96 -21 143.5 -61.5t47.5 -120.5q0 -89 -68 -145.5t-183 -56.5q-103 0 -171 45t-98 110l56 37q22 -58 77 -97t137 -39q86 0 134.5 38.5
t48.5 103.5q0 54 -34.5 82.5t-110.5 44.5l-85 19q-43 9 -73 20t-58 30.5t-42.5 51t-14.5 75.5q0 80 64 131.5t165 51.5q150 0 228 -103z" />
    <glyph glyph-name="sacute" unicode="&#x15b;" horiz-adv-x="444" 
d="M259 680h94l-132 -128h-56zM389 409l-45 -38q-48 66 -129 66q-46 0 -75.5 -19.5t-29.5 -57.5q0 -36 22.5 -53.5t72.5 -28.5l63 -15q69 -15 105.5 -44t36.5 -88q0 -68 -51 -105t-134 -38q-67 0 -119 29t-77 70l48 34q51 -82 155 -82q58 1 88 24.5t30 63.5q0 36 -24.5 52.5
t-75.5 29.5l-66 16q-69 16 -101.5 44t-32.5 84q0 62 47.5 98t118.5 36q108 0 173 -78z" />
    <glyph glyph-name="Scircumflex" unicode="&#x15c;" horiz-adv-x="579" 
d="M371 753l-79 81l-79 -81h-61l119 136h42l119 -136h-61zM517 589l-50 -43q-68 89 -181 89q-70 0 -115 -33.5t-45 -87.5q0 -53 32.5 -79.5t104.5 -42.5l91 -20q96 -21 143.5 -61.5t47.5 -120.5q0 -89 -68 -145.5t-183 -56.5q-103 0 -171 45t-98 110l56 37q22 -58 77 -97
t137 -39q86 0 134.5 38.5t48.5 103.5q0 54 -34.5 82.5t-110.5 44.5l-85 19q-43 9 -73 20t-58 30.5t-42.5 51t-14.5 75.5q0 80 64 131.5t165 51.5q150 0 228 -103z" />
    <glyph glyph-name="scircumflex" unicode="&#x15d;" horiz-adv-x="444" 
d="M389 409l-45 -38q-48 66 -129 66q-46 0 -75.5 -19.5t-29.5 -57.5q0 -36 22.5 -53.5t72.5 -28.5l63 -15q69 -15 105.5 -44t36.5 -88q0 -68 -51 -105t-134 -38q-67 0 -119 29t-77 70l48 34q51 -82 155 -82q58 1 88 24.5t30 63.5q0 36 -24.5 52.5t-75.5 29.5l-66 16
q-69 16 -101.5 44t-32.5 84q0 62 47.5 98t118.5 36q108 0 173 -78zM155 552h-63l113 128h42l113 -128h-63l-70 75z" />
    <glyph glyph-name="Scedilla" unicode="&#x15e;" horiz-adv-x="579" 
d="M517 589l-50 -43q-68 89 -181 89q-70 0 -115 -33.5t-45 -87.5q0 -53 32.5 -79.5t104.5 -42.5l91 -20q96 -21 143.5 -61.5t47.5 -120.5q0 -87 -65.5 -143t-176.5 -59l-24 -33q5 1 16 1q35 0 57 -17.5t22 -50.5q0 -40 -28 -60.5t-69 -20.5q-23 0 -45 8l9 27q15 -5 33 -5
q23 0 37.5 11.5t14.5 31.5q0 21 -14.5 31.5t-36.5 10.5q-20 0 -34 -7l-12 22l37 52q-91 6 -152 50t-89 104l56 37q22 -58 77 -97t137 -39q86 0 134.5 38.5t48.5 103.5q0 54 -34.5 82.5t-110.5 44.5l-85 19q-43 9 -73 20t-58 30.5t-42.5 51t-14.5 75.5q0 80 64 131.5
t165 51.5q150 0 228 -103z" />
    <glyph glyph-name="scedilla" unicode="&#x15f;" horiz-adv-x="444" 
d="M389 410l-45 -38q-48 66 -129 66q-46 0 -75.5 -19.5t-29.5 -57.5q0 -36 22.5 -53.5t72.5 -28.5l63 -15q69 -15 105.5 -44t36.5 -88q0 -63 -44 -100t-117 -43l-25 -34q5 1 16 1q35 0 57 -17.5t22 -50.5q0 -40 -28 -60.5t-69 -20.5q-23 0 -45 8l9 27q15 -5 33 -5
q23 0 37.5 11.5t14.5 31.5q0 21 -14.5 31.5t-36.5 10.5q-20 0 -34 -7l-12 22l36 51q-62 4 -110 32t-71 67l48 34q51 -82 155 -82q58 1 88 25t30 64q0 36 -24.5 52.5t-75.5 29.5l-66 16q-69 16 -101.5 44t-32.5 84q0 62 47.5 98t118.5 36q108 0 173 -78z" />
    <glyph glyph-name="Scaron" unicode="&#x160;" horiz-adv-x="579" 
d="M517 589l-50 -43q-68 89 -181 89q-70 0 -115 -33.5t-45 -87.5q0 -53 32.5 -79.5t104.5 -42.5l91 -20q96 -21 143.5 -61.5t47.5 -120.5q0 -89 -68 -145.5t-183 -56.5q-103 0 -171 45t-98 110l56 37q22 -58 77 -97t137 -39q86 0 134.5 38.5t48.5 103.5q0 54 -34.5 82.5
t-110.5 44.5l-85 19q-43 9 -73 20t-58 30.5t-42.5 51t-14.5 75.5q0 80 64 131.5t165 51.5q150 0 228 -103zM212 889l79 -81l79 81h61l-119 -136h-42l-119 136h61z" />
    <glyph glyph-name="scaron" unicode="&#x161;" horiz-adv-x="444" 
d="M86 680h63l72 -75l70 75h63l-113 -128h-42zM389 410l-45 -38q-48 66 -129 66q-46 0 -75.5 -19.5t-29.5 -57.5q0 -36 22.5 -53.5t72.5 -28.5l63 -15q69 -15 105.5 -44t36.5 -88q0 -68 -51 -105.5t-134 -38.5q-67 0 -119 29t-77 70l48 34q51 -82 155 -82q58 1 88 25t30 64
q0 36 -24.5 52.5t-75.5 29.5l-66 16q-69 16 -101.5 44t-32.5 84q0 62 47.5 98t118.5 36q108 0 173 -78z" />
    <glyph glyph-name="uni0162" unicode="&#x162;" horiz-adv-x="528" 
d="M15 624v56h498v-56h-218v-624h-14l-28 -39q5 1 16 1q35 0 57 -17.5t22 -50.5q0 -40 -28 -60.5t-69 -20.5q-23 0 -45 8l9 27q15 -5 33 -5q23 0 37.5 11.5t14.5 31.5q0 21 -14.5 31.5t-36.5 10.5q-20 0 -34 -7l-12 22l40 57h-11v624h-217z" />
    <glyph glyph-name="uni0163" unicode="&#x163;" horiz-adv-x="304" 
d="M12 430v46h96v178l59 13v-191h114v-46h-114v-322q0 -40 9 -52q10 -13 37 -13q38 0 68 16v-53q-34 -16 -86 -16h-7l-21 -29q5 1 16 1q35 0 57 -17.5t22 -50.5q0 -40 -28 -60.5t-69 -20.5q-23 0 -45 8l9 27q15 -5 33 -5q23 0 37.5 11.5t14.5 31.5q0 21 -14.5 31.5
t-36.5 10.5q-20 0 -34 -7l-12 22l37 53q-16 4 -27 17q-19 22 -19 73v344h-96z" />
    <glyph glyph-name="Tcaron" unicode="&#x164;" horiz-adv-x="528" 
d="M184 889l79 -81l79 81h61l-119 -136h-42l-119 136h61zM15 624v56h498v-56h-218v-624h-63v624h-217z" />
    <glyph glyph-name="tcaron" unicode="&#x165;" horiz-adv-x="303" 
d="M11 430v46h96v178l59 13v-191h114v-46h-114v-322q0 -40 9 -52q10 -13 37 -13q38 0 68 16v-53q-34 -16 -86 -16q-48 0 -68 23q-19 22 -19 73v344h-96zM285 552h-48l49 128h82z" />
    <glyph glyph-name="Tbar" unicode="&#x166;" horiz-adv-x="528" 
d="M15 624v56h498v-56h-218v-172h134v-53h-134v-399h-63v399h-134v53h134v172h-217z" />
    <glyph glyph-name="tbar" unicode="&#x167;" horiz-adv-x="316" 
d="M20 430v46h96v178l59 13v-191h114v-46h-114v-122h119v-53h-119v-147q0 -40 9 -52q10 -13 37 -13q38 0 68 16v-53q-34 -16 -86 -16q-48 0 -68 23q-19 22 -19 73v169h-103v53h103v122h-96z" />
    <glyph glyph-name="Utilde" unicode="&#x168;" horiz-adv-x="665" 
d="M333 -13q-98 0 -162.5 44t-84.5 129q-9 37 -9 120v400h63v-405q0 -97 19 -139q41 -93 174 -93q132 0 173 93q19 42 19 139v405h63v-400q0 -80 -8 -120q-20 -85 -84.5 -129t-162.5 -44zM449 868l41 -10q-10 -21 -16 -32t-18 -27t-27 -23.5t-33 -7.5q-27 0 -77 26
q-44 22 -55 22q-33 0 -47 -47l-42 9q36 90 96 90q23 0 67 -22q46 -23 62 -23q34 0 49 45z" />
    <glyph glyph-name="utilde" unicode="&#x169;" horiz-adv-x="501" 
d="M64 178v298h59v-272q0 -95 30 -130q28 -31 85 -31q68 0 101.5 45t33.5 105v283h59v-476h-59v78q-15 -38 -53.5 -64t-95.5 -26q-76 0 -118 46q-42 47 -42 144zM366 666l41 -10q-10 -21 -16 -32t-18 -27t-27 -23.5t-33 -7.5q-27 0 -77 26q-44 22 -55 22q-33 0 -47 -47
l-42 9q36 90 96 90q23 0 67 -22q46 -23 62 -23q34 0 49 45z" />
    <glyph glyph-name="Umacron" unicode="&#x16a;" horiz-adv-x="665" 
d="M333 -13q-98 0 -162.5 44t-84.5 129q-9 37 -9 120v400h63v-405q0 -97 19 -139q41 -93 174 -93q132 0 173 93q19 42 19 139v405h63v-400q0 -80 -8 -120q-20 -85 -84.5 -129t-162.5 -44zM197 778v53h271v-53h-271z" />
    <glyph glyph-name="umacron" unicode="&#x16b;" horiz-adv-x="501" 
d="M64 178v298h59v-272q0 -95 30 -130q28 -31 85 -31q68 0 101.5 45t33.5 105v283h59v-476h-59v78q-15 -38 -53.5 -64t-95.5 -26q-76 0 -118 46q-42 47 -42 144zM112 579v53h271v-53h-271z" />
    <glyph glyph-name="Ubreve" unicode="&#x16c;" horiz-adv-x="665" 
d="M333 -13q-98 0 -162.5 44t-84.5 129q-9 37 -9 120v400h63v-405q0 -97 19 -139q41 -93 174 -93q132 0 173 93q19 42 19 139v405h63v-400q0 -80 -8 -120q-20 -85 -84.5 -129t-162.5 -44zM332 783q70 0 86 67h48q-7 -54 -42.5 -83t-91.5 -29t-91.5 29t-42.5 83h48
q16 -67 86 -67z" />
    <glyph glyph-name="ubreve" unicode="&#x16d;" horiz-adv-x="501" 
d="M64 178v298h59v-272q0 -95 30 -130q28 -31 85 -31q68 0 101.5 45t33.5 105v283h59v-476h-59v78q-15 -38 -53.5 -64t-95.5 -26q-76 0 -118 46q-42 47 -42 144zM248 582q70 0 86 67h48q-7 -54 -42.5 -83t-91.5 -29t-91.5 29t-42.5 83h48q16 -67 86 -67z" />
    <glyph glyph-name="Uring" unicode="&#x16e;" horiz-adv-x="665" 
d="M333 -13q-98 0 -162.5 44t-84.5 129q-9 37 -9 120v400h63v-405q0 -97 19 -139q41 -93 174 -93q132 0 173 93q19 42 19 139v405h63v-400q0 -80 -8 -120q-20 -85 -84.5 -129t-162.5 -44zM250 819q0 34 24 57.5t58 23.5t58 -23.5t24 -57.5t-24 -57.5t-58 -23.5t-58 23.5
t-24 57.5zM288 819q0 -18 13 -30.5t30 -12.5t30 12.5t13 30.5t-13 30.5t-30 12.5t-30 -12.5t-13 -30.5z" />
    <glyph glyph-name="uring" unicode="&#x16f;" horiz-adv-x="501" 
d="M64 178v298h59v-272q0 -95 30 -130q28 -31 85 -31q68 0 101.5 45t33.5 105v283h59v-476h-59v78q-15 -38 -53.5 -64t-95.5 -26q-76 0 -118 46q-42 47 -42 144zM167 618q0 34 24 57.5t58 23.5t58 -23.5t24 -57.5t-24 -57.5t-58 -23.5t-58 23.5t-24 57.5zM205 618
q0 -18 13 -30.5t30 -12.5t30 12.5t13 30.5t-13 30.5t-30 12.5t-30 -12.5t-13 -30.5z" />
    <glyph glyph-name="Uhungarumlaut" unicode="&#x170;" horiz-adv-x="665" 
d="M333 -13q-98 0 -162.5 44t-84.5 129q-9 37 -9 120v400h63v-405q0 -97 19 -139q41 -93 174 -93q132 0 173 93q19 42 19 139v405h63v-400q0 -80 -8 -120q-20 -85 -84.5 -129t-162.5 -44zM398 753h-56l102 136h96zM252 753h-56l102 136h96z" />
    <glyph glyph-name="uhungarumlaut" unicode="&#x171;" horiz-adv-x="501" 
d="M64 178v298h59v-272q0 -95 30 -130q28 -31 85 -31q68 0 101.5 45t33.5 105v283h59v-476h-59v78q-15 -38 -53.5 -64t-95.5 -26q-76 0 -118 46q-42 47 -42 144zM319 544h-56l102 136h96zM173 544h-56l102 136h96z" />
    <glyph glyph-name="Uogonek" unicode="&#x172;" horiz-adv-x="665" 
d="M369 -174l18 -41q-22 -6 -46 -6q-45 0 -71.5 24.5t-26.5 66.5q0 60 83 117q-95 2 -158 46t-82 127q-9 37 -9 120v400h63v-405q0 -97 19 -139q41 -93 174 -93q132 0 173 93q19 42 19 139v405h63v-400q0 -80 -8 -120q-34 -145 -190 -169q-97 -61 -97 -117q0 -51 54 -51
q11 0 22 3z" />
    <glyph glyph-name="uogonek" unicode="&#x173;" horiz-adv-x="501" 
d="M395 -174l18 -41q-23 -6 -46 -6q-45 0 -71.5 24.5t-26.5 66.5q0 68 104 130v78q-15 -38 -53.5 -64t-95.5 -26q-76 0 -118 46q-42 47 -42 144v298h59v-272q0 -95 30 -130q28 -31 85 -31q68 0 101.5 45t33.5 105v283h59v-476h-2q-111 -67 -111 -126q0 -51 54 -51q11 0 22 3
z" />
    <glyph glyph-name="Wcircumflex" unicode="&#x174;" horiz-adv-x="862" 
d="M510 753l-79 81l-79 -81h-61l119 136h42l119 -136h-61zM651 0h-61l-117 408q-24 80 -42 149q-16 -64 -41 -151l-118 -406h-67l-182 680h67l123 -467l12 -43.5l11.5 -43l6.5 -25.5q6 26 42 149l121 430h52l132 -466l31 -112q9 43 40 149l118 429h65z" />
    <glyph glyph-name="wcircumflex" unicode="&#x175;" horiz-adv-x="677" 
d="M369 476l87 -283q7 -23 30 -107h1l31 110l78 280h59l-142 -476h-55l-92 313q-11 35 -24 88h-1q-5 -20 -25 -89l-92 -312h-56l-149 476h63l85 -283l31 -106h1q23 84 30 107l86 282h54zM270 552h-63l113 128h42l113 -128h-63l-70 75z" />
    <glyph glyph-name="Ycircumflex" unicode="&#x176;" horiz-adv-x="571" 
d="M366 753l-79 81l-79 -81h-61l119 136h42l119 -136h-61zM315 279v-279h-63v279l-246 401h76l205 -337l212 337h74z" />
    <glyph glyph-name="ycircumflex" unicode="&#x177;" horiz-adv-x="444" 
d="M82 476l113 -317l27 -79h1q12 35 30 82l121 314h61l-213 -541q-25 -65 -40 -90q-29 -47 -87 -47q-35 0 -62 16v59q30 -20 60 -20q29 0 43 21q11 15 26 56l26 70l-170 476h64zM152 552h-63l113 128h42l113 -128h-63l-70 75z" />
    <glyph glyph-name="Ydieresis" unicode="&#x178;" horiz-adv-x="571" 
d="M165 768v91h62v-91h-62zM352 768v91h62v-91h-62zM315 279v-279h-63v279l-246 401h76l205 -337l212 337h74z" />
    <glyph glyph-name="Zacute" unicode="&#x179;" horiz-adv-x="563" 
d="M282 753h-56l102 136h96zM533 56v-56h-511v43l426 581h-403v56h483v-47l-421 -577h426z" />
    <glyph glyph-name="zacute" unicode="&#x17a;" horiz-adv-x="405" 
d="M377 50v-50h-348v40l258 387h-245v49h321v-39l-259 -387h273zM230 680h94l-132 -128h-56z" />
    <glyph glyph-name="Zdotaccent" unicode="&#x17b;" horiz-adv-x="563" 
d="M533 56v-56h-511v43l426 581h-403v56h483v-47l-421 -577h426zM248 768v91h68v-91h-68z" />
    <glyph glyph-name="zdotaccent" unicode="&#x17c;" horiz-adv-x="405" 
d="M377 50v-50h-348v40l258 387h-245v49h321v-39l-259 -387h273zM166 579v91h68v-91h-68z" />
    <glyph glyph-name="Zcaron" unicode="&#x17d;" horiz-adv-x="563" 
d="M533 56v-56h-511v43l426 581h-403v56h483v-47l-421 -577h426zM224 889l79 -81l79 81h61l-119 -136h-42l-119 136h61z" />
    <glyph glyph-name="zcaron" unicode="&#x17e;" horiz-adv-x="405" 
d="M377 50v-50h-348v40l256 387h-243v49h321v-39l-256 -387h270zM80 680h63l72 -75l70 75h63l-113 -128h-42z" />
    <glyph glyph-name="florin" unicode="&#x192;" horiz-adv-x="590" 
d="M19 -190l19 52q40 -9 67 -9q32 0 47 14q18 16 28 76l84 479h-112l9 54h111l16 99q10 63 39 90.5t81 27.5q41 0 95 -16l-14 -52q-53 11 -72 11q-30 0 -47 -18q-16 -17 -23 -64l-13 -78h116l-9 -54h-115l-89 -502q-11 -63 -41 -93q-29 -29 -84 -29q-45 0 -93 12z" />
    <glyph glyph-name="Aringacute" unicode="&#x1fa;" horiz-adv-x="595" 
d="M243 762q0 23 16.5 39t39.5 16t39 -16t16 -39t-16 -39t-39 -16t-39.5 16t-16.5 39zM269 762q0 -13 8.5 -21t20.5 -8t20.5 8t8.5 21q0 12 -8.5 20.5t-20.5 8.5t-20.5 -8.5t-8.5 -20.5zM149 205l-74 -205h-67l259 680h62l257 -680h-68l-76 205h-293zM420 263l-95 250
q-18 44 -29 83h-1q-17 -50 -30 -84l-95 -249h250zM290 838h-56l86 80h96z" />
    <glyph glyph-name="aringacute" unicode="&#x1fb;" horiz-adv-x="483" 
d="M175 583q0 23 16.5 39t39.5 16t39 -16t16 -39t-16 -39t-39 -16t-39.5 16t-16.5 39zM201 583q0 -13 8.5 -21t20.5 -8t20.5 8t8.5 21q0 12 -8.5 20.5t-20.5 8.5t-20.5 -8.5t-8.5 -20.5zM222 659h-56l86 80h96zM348 168v88q-20 -7 -60 -14l-59 -11q-59 -11 -85 -25
q-40 -23 -40 -73q0 -46 28.5 -70.5t75.5 -24.5q60 0 100 36t40 94zM110 325l-55 13q-1 69 49.5 109t130.5 40q81 0 125 -33t44 -117v-237q0 -33 7 -47.5t31 -14.5q21 0 36 9v-46q-20 -11 -51 -11q-36 0 -57.5 19.5t-20.5 57.5h-1q-15 -32 -55 -55.5t-99 -23.5q-70 0 -111 39
t-41 105q0 60 36 93t137 52l109 20q10 2 14 3.5t7 7t3 15.5v15q0 51 -27 75.5t-89 24.5q-59 0 -90.5 -29.5t-31.5 -83.5z" />
    <glyph glyph-name="AEacute" unicode="&#x1fc;" horiz-adv-x="909" 
d="M515 753h-56l102 136h96zM178 204l-127 -204h-71l426 680h448v-56h-364v-245h329v-56h-329v-267h384v-56h-448v204h-248zM426 261v220q0 41 1 75.5t1 47.5l1 13h-1q-28 -62 -77 -138l-136 -218h211z" />
    <glyph glyph-name="aeacute" unicode="&#x1fd;" horiz-adv-x="803" 
d="M235 487q126 0 157 -78q60 78 162 78q98 0 153 -68t55 -177v-8h-362v-8q0 -89 45.5 -137.5t115.5 -48.5q110 0 160 109l45 -32q-63 -129 -207 -129q-125 0 -183 98q-16 -35 -63 -66.5t-115 -31.5q-74 0 -115 38.5t-41 105.5q0 60 36 93t137 52l109 20q10 2 14 3.5t7 7
t3 15.5v15q0 51 -27 75.5t-89 24.5q-59 0 -90.5 -29.5t-31.5 -83.5l-55 13q-1 69 49.5 109t130.5 40zM348 168v88q-20 -7 -60 -14l-59 -11q-59 -11 -85 -25q-40 -23 -40 -73q0 -46 28.5 -70.5t75.5 -24.5q60 0 100 36t40 94zM554 438q-64 0 -104 -41.5t-48 -114.5h296
q-2 61 -41 108.5t-103 47.5zM455 680h94l-132 -128h-56z" />
    <glyph glyph-name="Oslashacute" unicode="&#x1fe;" horiz-adv-x="678" 
d="M49 340q0 161 77.5 256.5t211.5 95.5q128 0 206 -89l75 84l43 -39l-84 -94q49 -87 49 -214q0 -160 -77.5 -256t-211.5 -96q-121 0 -197 79l-72 -80l-46 39l81 90q-55 89 -55 224zM116 340q0 -97 35 -172l348 386q-60 82 -161 82t-161.5 -81.5t-60.5 -214.5zM560 340
q0 90 -30 161l-346 -385q59 -72 154 -72q100 0 161 82t61 214zM338 753h-56l102 136h96z" />
    <glyph glyph-name="oslashacute" unicode="&#x1ff;" horiz-adv-x="517" 
d="M135 109l223 290q-40 38 -99 38q-71 0 -112.5 -53.5t-41.5 -146.5q0 -79 30 -128zM47 -5l50 65q-54 65 -54 176q0 115 59 183t157 68q78 0 132 -45l49 64l44 -32l-55 -72q46 -67 46 -166q0 -114 -58.5 -181t-157.5 -67q-71 0 -123 35l-47 -61zM390 352l-219 -284
q37 -29 88 -29q70 0 112 53.5t42 144.5q0 67 -23 115zM302 680h94l-132 -128h-56z" />
    <glyph glyph-name="uni0218" unicode="&#x218;" horiz-adv-x="579" 
d="M517 589l-50 -43q-68 89 -181 89q-70 0 -115 -33.5t-45 -87.5q0 -53 32.5 -79.5t104.5 -42.5l91 -20q96 -21 143.5 -61.5t47.5 -120.5q0 -89 -68 -145.5t-183 -56.5q-103 0 -171 45t-98 110l56 37q22 -58 77 -97t137 -39q86 0 134.5 38.5t48.5 103.5q0 54 -34.5 82.5
t-110.5 44.5l-85 19q-43 9 -73 20t-58 30.5t-42.5 51t-14.5 75.5q0 80 64 131.5t165 51.5q150 0 228 -103zM253 -65h82v-64q0 -53 -15 -88q-22 -48 -71 -61v43q25 9 34 27t9 49h-39v94z" />
    <glyph glyph-name="uni0219" unicode="&#x219;" horiz-adv-x="444" 
d="M389 409l-45 -38q-48 66 -129 66q-46 0 -75.5 -19.5t-29.5 -57.5q0 -36 22.5 -53.5t72.5 -28.5l63 -15q69 -15 105.5 -44t36.5 -88q0 -68 -51 -105t-134 -38q-67 0 -119 29t-77 70l48 34q51 -82 155 -82q58 1 88 24.5t30 63.5q0 36 -24.5 52.5t-75.5 29.5l-66 16
q-69 16 -101.5 44t-32.5 84q0 62 47.5 98t118.5 36q108 0 173 -78zM183 -65h82v-64q0 -53 -15 -88q-22 -48 -71 -61v43q25 9 34 27t9 49h-39v94z" />
    <glyph glyph-name="uni021A" unicode="&#x21a;" horiz-adv-x="528" 
d="M15 624v56h498v-56h-218v-624h-63v624h-217zM222 -65h82v-64q0 -53 -15 -88q-22 -48 -71 -61v43q25 9 34 27t9 49h-39v94z" />
    <glyph glyph-name="uni021B" unicode="&#x21b;" horiz-adv-x="303" 
d="M11 430v46h96v178l59 13v-191h114v-46h-114v-322q0 -40 9 -52q10 -13 37 -13q38 0 68 16v-53q-34 -16 -86 -16q-48 0 -68 23q-19 22 -19 73v344h-96zM127 -65h82v-64q0 -53 -15 -88q-22 -48 -71 -61v43q25 9 34 27t9 49h-39v94z" />
    <glyph glyph-name="circumflex" unicode="&#x2c6;" 
d="M154 552h-63l113 128h42l113 -128h-63l-70 75z" />
    <glyph glyph-name="caron" unicode="&#x2c7;" 
d="M296 680h63l-113 -128h-42l-113 128h63l70 -75z" />
    <glyph glyph-name="breve" unicode="&#x2d8;" 
d="M225 582q70 0 86 67h48q-7 -54 -42.5 -83t-91.5 -29t-91.5 29t-42.5 83h48q16 -67 86 -67z" />
    <glyph glyph-name="dotaccent" unicode="&#x2d9;" 
d="M191 579v91h68v-91h-68z" />
    <glyph glyph-name="ring" unicode="&#x2da;" 
d="M143 618q0 34 24 57.5t58 23.5t58 -23.5t24 -57.5t-24 -57.5t-58 -23.5t-58 23.5t-24 57.5zM181 618q0 -18 13 -30.5t30 -12.5t30 12.5t13 30.5t-13 30.5t-30 12.5t-30 -12.5t-13 -30.5z" />
    <glyph glyph-name="ogonek" unicode="&#x2db;" 
d="M264 -174l18 -41q-22 -6 -46 -6q-45 0 -71.5 24.5t-26.5 66.5q0 39 33 74t78 60h57l-7 -4q-111 -67 -111 -126q0 -51 54 -51q12 0 22 3z" />
    <glyph glyph-name="tilde" unicode="&#x2dc;" 
d="M341 666l41 -10q-10 -21 -16 -32t-18 -27t-27 -23.5t-33 -7.5q-27 0 -77 26q-44 22 -55 22q-33 0 -47 -47l-42 9q36 90 96 90q23 0 67 -22q46 -23 62 -23q34 0 49 45z" />
    <glyph glyph-name="hungarumlaut" unicode="&#x2dd;" 
d="M252 544h-56l102 136h96zM106 544h-56l102 136h96z" />
    <glyph glyph-name="uni0394" unicode="&#x394;" horiz-adv-x="773" 
d="M92 0l265 679h59l265 -679h-589zM386 610l-215 -560h432z" />
    <glyph glyph-name="uni03A9" unicode="&#x3a9;" horiz-adv-x="746" 
d="M373 690q151 0 234.5 -88.5t83.5 -229.5q0 -103 -45 -184.5t-128 -131.5h179v-56h-248v61q174 101 174 310q0 117 -67 190t-184 73q-115 0 -182 -73t-67 -190q0 -208 174 -310v-61h-247v56h179q-173 109 -173 316q0 140 83.5 229t233.5 89z" />
    <glyph glyph-name="uni03BC" unicode="&#x3bc;" horiz-adv-x="506" 
d="M128 37v-226h-59v665h59v-272q0 -95 30 -130q28 -31 85 -31q68 0 101.5 45t33.5 105v283h59v-476h-59v78q-15 -38 -53 -64t-94 -26q-32 0 -60.5 13.5t-42.5 35.5z" />
    <glyph glyph-name="pi" unicode="&#x3c0;" horiz-adv-x="601" 
d="M19 476h544v-49h-114v-318q0 -34 7 -47q10 -18 35 -18q32 0 72 24l2 -56q-44 -22 -90 -22q-47 0 -69 31q-16 23 -16 75v331h-216v-427h-59v427h-96v49z" />
    <glyph glyph-name="Wgrave" unicode="&#x1e80;" horiz-adv-x="862" 
d="M486 753h-56l-142 136h96zM651 0h-61l-117 408q-24 80 -42 149q-16 -64 -41 -151l-118 -406h-67l-182 680h67l123 -467l12 -43.5l11.5 -43l6.5 -25.5q6 26 42 149l121 430h52l132 -466l31 -112q9 43 40 149l118 429h65z" />
    <glyph glyph-name="wgrave" unicode="&#x1e81;" horiz-adv-x="677" 
d="M369 476l87 -283q7 -23 30 -107h1l31 110l78 280h59l-142 -476h-55l-92 313q-11 35 -24 88h-1q-5 -20 -25 -89l-92 -312h-56l-149 476h63l85 -283l31 -106h1q23 84 30 107l86 282h54zM200 680h94l94 -128h-56z" />
    <glyph glyph-name="Wacute" unicode="&#x1e82;" horiz-adv-x="862" 
d="M458 753h-56l102 136h96zM651 0h-61l-117 408q-24 80 -42 149q-16 -64 -41 -151l-118 -406h-67l-182 680h67l123 -467l12 -43.5l11.5 -43l6.5 -25.5q6 26 42 149l121 430h52l132 -466l31 -112q9 43 40 149l118 429h65z" />
    <glyph glyph-name="wacute" unicode="&#x1e83;" horiz-adv-x="677" 
d="M369 476l87 -283q7 -23 30 -107h1l31 110l78 280h59l-142 -476h-55l-92 313q-11 35 -24 88h-1q-5 -20 -25 -89l-92 -312h-56l-149 476h63l85 -283l31 -106h1q23 84 30 107l86 282h54zM405 680h94l-132 -128h-56z" />
    <glyph glyph-name="Wdieresis" unicode="&#x1e84;" horiz-adv-x="862" 
d="M651 0h-61l-117 408q-24 80 -42 149q-16 -64 -41 -151l-118 -406h-67l-182 680h67l123 -467l12 -43.5l11.5 -43l6.5 -25.5q6 26 42 149l121 430h52l132 -466l31 -112q9 43 40 149l118 429h65zM307 768v91h62v-91h-62zM494 768v91h62v-91h-62z" />
    <glyph glyph-name="wdieresis" unicode="&#x1e85;" horiz-adv-x="677" 
d="M369 476l87 -283q7 -23 30 -107h1l31 110l78 280h59l-142 -476h-55l-92 313q-11 35 -24 88h-1q-5 -20 -25 -89l-92 -312h-56l-149 476h63l85 -283l31 -106h1q23 84 30 107l86 282h54zM217 566v91h62v-91h-62zM404 566v91h62v-91h-62z" />
    <glyph glyph-name="Ygrave" unicode="&#x1ef2;" horiz-adv-x="571" 
d="M343 753h-56l-142 136h96zM315 279v-279h-63v279l-246 401h76l205 -337l212 337h74z" />
    <glyph glyph-name="ygrave" unicode="&#x1ef3;" horiz-adv-x="444" 
d="M82 476l113 -317l27 -79h1q12 35 30 82l121 314h61l-213 -541q-25 -65 -40 -90q-29 -47 -87 -47q-35 0 -62 16v59q30 -20 60 -20q29 0 43 21q11 15 26 56l26 70l-170 476h64zM92 680h94l94 -128h-56z" />
    <glyph glyph-name="enspace" unicode="&#x2002;" horiz-adv-x="500" 
 />
    <glyph glyph-name="emspace" unicode="&#x2003;" horiz-adv-x="1000" 
 />
    <glyph glyph-name="threeperemspace" unicode="&#x2004;" horiz-adv-x="333" 
 />
    <glyph glyph-name="fourperemspace" unicode="&#x2005;" horiz-adv-x="250" 
 />
    <glyph glyph-name="thinspace" unicode="&#x2009;" horiz-adv-x="133" 
 />
    <glyph glyph-name="hairspace" unicode="&#x200a;" horiz-adv-x="75" 
 />
    <glyph glyph-name="endash" unicode="&#x2013;" horiz-adv-x="636" 
d="M572 298v-56h-508v56h508z" />
    <glyph glyph-name="emdash" unicode="&#x2014;" horiz-adv-x="827" 
d="M763 298v-56h-699v56h699z" />
    <glyph glyph-name="quoteleft" unicode="&#x2018;" horiz-adv-x="197" 
d="M138 437h-82v106q0 53 15 88q22 48 71 61v-43q-43 -16 -43 -89v-9h39v-114z" />
    <glyph glyph-name="quoteright" unicode="&#x2019;" horiz-adv-x="192" 
d="M60 680h82v-106q0 -54 -15 -88q-22 -48 -71 -61v43q43 16 43 89v9h-39v114z" />
    <glyph glyph-name="quotesinglbase" unicode="&#x201a;" horiz-adv-x="202" 
d="M60 114h82v-106q0 -54 -15 -88q-22 -48 -71 -61v43q43 16 43 89v9h-39v114z" />
    <glyph glyph-name="quotedblleft" unicode="&#x201c;" horiz-adv-x="329" 
d="M270 437h-82v106q0 53 15 88q22 48 71 61v-43q-43 -16 -43 -89v-9h39v-114zM138 437h-82v106q0 53 15 88q22 48 71 61v-43q-43 -16 -43 -89v-9h39v-114z" />
    <glyph glyph-name="quotedblright" unicode="&#x201d;" horiz-adv-x="324" 
d="M60 680h82v-106q0 -54 -15 -88q-22 -48 -71 -61v43q43 16 43 89v9h-39v114zM192 680h82v-106q0 -54 -15 -88q-22 -48 -71 -61v43q43 16 43 89v9h-39v114z" />
    <glyph glyph-name="quotedblbase" unicode="&#x201e;" horiz-adv-x="334" 
d="M60 114h82v-106q0 -54 -15 -88q-22 -48 -71 -61v43q43 16 43 89v9h-39v114zM192 114h82v-106q0 -54 -15 -88q-22 -48 -71 -61v43q43 16 43 89v9h-39v114z" />
    <glyph glyph-name="dagger" unicode="&#x2020;" horiz-adv-x="442" 
d="M413 452h-162v-452h-61v452h-161v57h161v171h61v-171h162v-57z" />
    <glyph glyph-name="daggerdbl" unicode="&#x2021;" horiz-adv-x="484" 
d="M272 229h162v-57h-162v-172h-61v172h-161v57h161v222h-161v57h161v172h61v-172h162v-57h-162v-222z" />
    <glyph glyph-name="bullet" unicode="&#x2022;" horiz-adv-x="376" 
d="M71 343q0 49 34 83t83 34t83 -34t34 -83t-34 -83t-83 -34t-83 34t-34 83z" />
    <glyph glyph-name="ellipsis" unicode="&#x2026;" horiz-adv-x="868" 
d="M60 114h78v-114h-78v114zM395 114h78v-114h-78v114zM730 114h78v-114h-78v114z" />
    <glyph glyph-name="perthousand" unicode="&#x2030;" horiz-adv-x="1250" 
d="M332 470q0 -87 -38 -148t-112 -61q-53 0 -88 31.5t-48 76.5t-13 101q0 42 7.5 78.5t23.5 70t47 52.5t73 19q43 0 74 -20t46 -54t21.5 -69.5t6.5 -76.5zM278 469q0 80 -23.5 127.5t-71.5 47.5q-47 0 -71 -47t-24 -120q0 -72 23.5 -120t71.5 -48q50 0 72.5 44.5t22.5 115.5
zM638 680l-354 -680h-58l356 680h56zM839 197q0 -87 -38 -148t-112 -61q-53 0 -88 31.5t-48 76.5t-13 101q0 42 7.5 78.5t23.5 70t47 52.5t73 19q43 0 74 -20t46 -54t21.5 -69.5t6.5 -76.5zM785 196q0 80 -23.5 127.5t-71.5 47.5q-47 0 -71 -47t-24 -120q0 -72 23.5 -120
t71.5 -48q50 0 72.5 44.5t22.5 115.5zM1218 197q0 -87 -38 -148t-112 -61q-53 0 -88 31.5t-48 76.5t-13 101q0 42 7.5 78.5t23.5 70t47 52.5t73 19q43 0 74 -20t46 -54t21.5 -69.5t6.5 -76.5zM1164 196q0 80 -23.5 127.5t-71.5 47.5q-47 0 -71 -47t-24 -120q0 -72 23.5 -120
t71.5 -48q50 0 72.5 44.5t22.5 115.5z" />
    <glyph glyph-name="guilsinglleft" unicode="&#x2039;" horiz-adv-x="241" 
d="M49 252v73l134 137v-76l-100 -96l100 -98v-80z" />
    <glyph glyph-name="guilsinglright" unicode="&#x203a;" horiz-adv-x="241" 
d="M192 325v-73l-134 -140v80l100 98l-100 96v76z" />
    <glyph glyph-name="fraction" unicode="&#x2044;" horiz-adv-x="543" 
d="M490 679h63l-496 -679h-64z" />
    <glyph glyph-name="Euro" unicode="&#x20ac;" horiz-adv-x="600" 
d="M505 177l54 -25q-56 -164 -214 -164q-104 0 -163.5 69.5t-76.5 179.5h-74l18 56h52q-1 13 -1 45q0 29 1 42h-70l18 56h56q17 116 78.5 185t161.5 69q77 0 132 -42.5t80 -115.5l-54 -36q-45 141 -158 141q-71 0 -114.5 -54.5t-57.5 -146.5h262l-18 -56h-249q-2 -12 -2 -40
q0 -34 2 -47h223l-18 -56h-200q28 -195 172 -195q118 0 160 135z" />
    <glyph glyph-name="trademark" unicode="&#x2122;" horiz-adv-x="891" 
d="M748 584l-111 -342h-43l-115 330q-9 24 -17 60q1 -16 1 -68v-322h-50v438h77l110 -318l17 -53l5.5 21.5t9.5 31.5l103 318h79v-438h-50v322q0 57 1 76zM49 633v47h326v-47h-138v-390h-50v390h-138z" />
    <glyph glyph-name="Omega" unicode="&#x2126;" horiz-adv-x="751" 
d="M375 690q151 0 234.5 -88.5t83.5 -229.5q0 -103 -45 -184.5t-128 -131.5h179v-56h-248v61q174 101 174 310q0 117 -67 190t-184 73q-115 0 -182 -73t-67 -190q0 -208 174 -310v-61h-247v56h179q-173 109 -173 316q0 140 83.5 229t233.5 89z" />
    <glyph glyph-name="arrowleft" unicode="&#x2190;" horiz-adv-x="812" 
d="M277 476h75l-216 -213h626v-50h-625l215 -213h-75l-237 238z" />
    <glyph glyph-name="arrowup" unicode="&#x2191;" horiz-adv-x="576" 
d="M50 415v70l238 237l238 -237v-70l-209 208v-623h-58v625z" />
    <glyph glyph-name="arrowright" unicode="&#x2192;" horiz-adv-x="812" 
d="M460 476h75l237 -238l-237 -238h-75l215 213h-625v50h626z" />
    <glyph glyph-name="arrowdown" unicode="&#x2193;" horiz-adv-x="576" 
d="M50 227v70l209 -210v625h58v-623l209 208v-70l-238 -237z" />
    <glyph glyph-name="uni2196" unicode="&#x2196;" horiz-adv-x="633" 
d="M613 29l-39 -39l-444 444l1 -298l-54 49l1 336h336l49 -49l-295 2z" />
    <glyph glyph-name="uni2197" unicode="&#x2197;" horiz-adv-x="633" 
d="M170 472l49 49h336l1 -336l-54 -49l1 298l-444 -444l-39 39l445 445z" />
    <glyph glyph-name="uni2198" unicode="&#x2198;" horiz-adv-x="633" 
d="M219 0l-49 49l295 -2l-445 445l39 39l444 -444l-1 298l54 -49l-1 -336h-336z" />
    <glyph glyph-name="uni2199" unicode="&#x2199;" horiz-adv-x="633" 
d="M574 531l39 -39l-445 -445l295 2l-49 -49h-336l-1 336l54 49l-1 -298z" />
    <glyph glyph-name="uni21A4" unicode="&#x21a4;" horiz-adv-x="839" 
d="M277 476h75l-216 -213h567v213h59v-476h-59v213h-566l215 -213h-75l-237 238z" />
    <glyph glyph-name="uni21A5" unicode="&#x21a5;" horiz-adv-x="596" 
d="M60 415v70l238 237l238 -237v-70l-209 208v-573h209v-50h-476v50h209v575z" />
    <glyph glyph-name="uni21A6" unicode="&#x21a6;" horiz-adv-x="839" 
d="M487 476h75l237 -238l-237 -238h-75l215 213h-566v-213h-59v476h59v-213h567z" />
    <glyph glyph-name="uni21A7" unicode="&#x21a7;" horiz-adv-x="596" 
d="M60 227v70l209 -210v575h-209v50h476v-50h-209v-573l209 208v-70l-238 -237z" />
    <glyph glyph-name="uni21B0" unicode="&#x21b0;" horiz-adv-x="839" 
d="M762 263v-263h-59v213h-568l217 -213h-75l-237 238l237 238h75l-215 -213h625z" />
    <glyph glyph-name="uni21B1" unicode="&#x21b1;" horiz-adv-x="839" 
d="M77 0v263h625l-215 213h75l237 -238l-237 -238h-75l217 213h-568v-213h-59z" />
    <glyph glyph-name="uni21B2" unicode="&#x21b2;" horiz-adv-x="839" 
d="M762 476v-263h-625l215 -213h-75l-237 238l237 238h75l-217 -213h568v213h59z" />
    <glyph glyph-name="uni21B3" unicode="&#x21b3;" horiz-adv-x="839" 
d="M77 213v263h59v-213h568l-217 213h75l237 -238l-237 -238h-75l215 213h-625z" />
    <glyph glyph-name="uni21B4" unicode="&#x21b4;" horiz-adv-x="596" 
d="M60 227v70l209 -210v575h-209v50h267v-623l209 208v-70l-238 -237z" />
    <glyph glyph-name="carriagereturn" unicode="&#x21b5;" horiz-adv-x="839" 
d="M762 476v-263h-625l215 -213h-75l-237 238l237 238h75l-217 -213h568v213h59z" />
    <glyph glyph-name="partialdiff" unicode="&#x2202;" horiz-adv-x="539" 
d="M183 621l-23 55q39 14 83 14q122 0 183 -92.5t61 -262.5q0 -176 -62 -261.5t-174 -85.5q-58 0 -101.5 20t-68.5 54.5t-37 75.5t-12 87q0 104 60.5 163t150.5 59q59 0 106 -26t73 -67q-8 278 -177 278q-35 0 -62 -11zM251 42q80 0 122 63t47 178q-16 43 -63 76t-105 33
q-67 0 -111.5 -44t-44.5 -127q0 -81 44 -130t111 -49z" />
    <glyph glyph-name="Delta" unicode="&#x2206;" horiz-adv-x="639" 
d="M25 0l265 679h59l265 -679h-589zM319 610l-215 -560h432z" />
    <glyph glyph-name="product" unicode="&#x220f;" horiz-adv-x="839" 
d="M27 680h785v-56h-107v-814h-63v814h-445v-814h-63v814h-107v56z" />
    <glyph glyph-name="summation" unicode="&#x2211;" horiz-adv-x="595" 
d="M33 -142l247 382l-249 388v52h530v-56h-451l240 -381l-242 -377h453v-56h-528v48z" />
    <glyph glyph-name="minus" unicode="&#x2212;" horiz-adv-x="831" 
d="M752 319v-57h-673v57h673z" />
    <glyph glyph-name="uni2219" unicode="&#x2219;" horiz-adv-x="204" 
d="M62 377h78v-114h-78v114z" />
    <glyph glyph-name="radical" unicode="&#x221a;" horiz-adv-x="522" 
d="M451 680h56l-182 -683h-64l-147 439h-93v40h149l96 -301q24 -70 28 -85h1q7 29 22 84z" />
    <glyph glyph-name="infinity" unicode="&#x221e;" horiz-adv-x="924" 
d="M875 349q0 -68 -42.5 -115t-121.5 -47q-46 0 -98 24t-79 44.5l-77 61.5l-35.5 -27.5l-41.5 -31.5t-39 -26.5t-45.5 -25.5t-42.5 -14t-48 -7q-79 0 -117 45.5t-38 112.5q0 72 42 116t118 44q39 0 83 -19t75 -40t94 -69q13 9 45 33t50.5 36.5t47 28.5t56 23t56.5 7
q77 0 117.5 -44t40.5 -110zM817 345q0 52 -29 80t-78 28q-17 0 -36.5 -6t-34 -12t-38.5 -20.5t-33 -21l-35.5 -25.5l-30.5 -22l29.5 -21.5l35.5 -25.5t34.5 -22t39.5 -21.5t36 -12.5t39 -6q48 0 74.5 30t26.5 78zM211 237q21 0 43 6.5t48 21.5t39.5 23.5t43.5 30.5l34 25
q-2 1 -36 25t-46.5 32t-40 24t-48 22t-39.5 6q-48 0 -75.5 -30t-27.5 -77q0 -51 28 -80t77 -29z" />
    <glyph glyph-name="uni2224" unicode="&#x2224;" horiz-adv-x="244" 
d="M82 377h78v-114h-78v114z" />
    <glyph glyph-name="logicaland" unicode="&#x2227;" horiz-adv-x="204" 
d="M62 377h78v-114h-78v114z" />
    <glyph glyph-name="integral" unicode="&#x222b;" horiz-adv-x="469" 
d="M154 -57l106 631q10 63 39 90.5t81 27.5q41 0 95 -16l-14 -52q-53 11 -72 11q-30 0 -47 -18q-16 -17 -23 -64l-108 -633q-11 -63 -41 -93q-29 -29 -84 -29q-45 0 -93 12l19 52q41 -9 67 -9q32 0 47 14q18 16 28 76z" />
    <glyph glyph-name="approxequal" unicode="&#x2248;" horiz-adv-x="581" 
d="M492 437l29 -48q-62 -77 -126 -77q-37 0 -98 30l-41 20q-42 19 -72 19q-27 0 -43 -12.5t-48 -50.5l-31 46q52 81 122 81q36 0 98 -28l47 -22q46 -21 66 -21q46 0 97 63zM492 250l29 -48q-62 -77 -126 -77q-37 0 -98 30l-41 20q-42 19 -72 19q-27 0 -43 -12.5t-48 -50.5
l-31 46q52 81 122 81q36 0 98 -28l47 -22q46 -21 66 -21q46 0 97 63z" />
    <glyph glyph-name="notequal" unicode="&#x2260;" horiz-adv-x="792" 
d="M731 406v-57h-297l-62 -118h359v-56h-388l-92 -175h-63l92 175h-222v56h252l62 118h-314v57h344l100 189h62l-100 -189h267z" />
    <glyph glyph-name="lessequal" unicode="&#x2264;" horiz-adv-x="743" 
d="M691 56v-56h-643v56h643zM691 154v-63l-643 262v66l643 266v-63l-579 -235z" />
    <glyph glyph-name="greaterequal" unicode="&#x2265;" horiz-adv-x="743" 
d="M52 0v56h643v-56h-643zM52 91v63l579 233l-579 235v63l643 -266v-66z" />
    <glyph glyph-name="dotmath" unicode="&#x22c5;" horiz-adv-x="204" 
d="M62 377h78v-114h-78v114z" />
    <glyph glyph-name="lozenge" unicode="&#x25ca;" horiz-adv-x="511" 
d="M255 65l157 272l-157 276l-156 -276zM230 681h51l201 -344l-201 -340h-51l-201 340z" />
    <glyph glyph-name="uni2B0F" unicode="&#x2b0f;" horiz-adv-x="596" 
d="M60 415v70l238 237l238 -237v-70l-209 208v-623h-267v50h209v575z" />
    <glyph glyph-name="uni2B10" unicode="&#x2b10;" horiz-adv-x="596" 
d="M536 297v-70l-238 -237l-238 237v70l209 -208v623h267v-50h-209v-575z" />
    <glyph glyph-name="uni2B11" unicode="&#x2b11;" horiz-adv-x="596" 
d="M536 0h-267v623l-209 -208v70l238 237l238 -237v-70l-209 210v-575h209v-50z" />
    <glyph glyph-name="commaaccent" unicode="&#xf6c3;" horiz-adv-x="170" 
d="M46 -65h82v-64q0 -53 -15 -88q-22 -48 -71 -61v43q25 9 34 27t9 49h-39v94z" />
    <glyph glyph-name="uniF8FF" unicode="&#xf8ff;" horiz-adv-x="823" 
d="M40 361q0 154 108.5 263t262.5 109t263 -109t109 -263t-109 -262.5t-263 -108.5t-262.5 108.5t-108.5 262.5z" />
    <glyph glyph-name="arrowleft.salt" horiz-adv-x="940" 
d="M890 368v-56h-748l317 -312h-81l-340 340l340 340h81l-317 -312h748z" />
    <glyph glyph-name="arrowup.salt" horiz-adv-x="840" 
d="M80 347v79l340 340l340 -340v-79l-309 313v-746h-62v746z" />
    <glyph glyph-name="arrowright.salt" horiz-adv-x="940" 
d="M50 312v56h748l-317 312h81l340 -340l-340 -340h-81l317 312h-748z" />
    <glyph glyph-name="arrowdown.salt" horiz-adv-x="840" 
d="M80 244v79l309 -313v746h62v-746l309 313v-79l-340 -340z" />
    <glyph glyph-name="uni2196.salt" horiz-adv-x="747" 
d="M715 70l-40 -40l-538 535l3 -441l-58 55v481h482l55 -53l-446 3z" />
    <glyph glyph-name="uni2197.salt" horiz-adv-x="747" 
d="M128 597l55 53h482v-481l-58 -55l2 441l-537 -535l-40 40l541 540z" />
    <glyph glyph-name="uni2198.salt" horiz-adv-x="747" 
d="M183 30l-55 53l445 -3l-541 540l40 40l537 -535l-2 441l58 -55v-481h-482z" />
    <glyph glyph-name="uni2199.salt" horiz-adv-x="747" 
d="M675 660l40 -40l-542 -540l446 3l-55 -53h-482v481l58 55l-3 -441z" />
    <glyph glyph-name="uni21A4.salt" horiz-adv-x="972" 
d="M890 0h-62v312h-686l317 -312h-81l-340 340l340 340h81l-317 -312h686v312h62v-680z" />
    <glyph glyph-name="uni21A5.salt" horiz-adv-x="840" 
d="M80 347v79l340 340l340 -340v-79l-309 313v-691h309v-55h-680v55h309v691z" />
    <glyph glyph-name="uni21A6.salt" horiz-adv-x="972" 
d="M144 0h-62v680h62v-312h686l-317 312h81l340 -340l-340 -340h-81l317 312h-686v-312z" />
    <glyph glyph-name="uni21A7.salt" horiz-adv-x="840" 
d="M80 244v79l309 -313v691h-309v55h680v-55h-309v-691l309 313v-79l-340 -340z" />
    <glyph glyph-name="uni21B0.salt" horiz-adv-x="972" 
d="M459 0h-81l-340 340l340 340h81l-316 -312h747v-368h-62v312h-685z" />
    <glyph glyph-name="uni21B1.salt" horiz-adv-x="972" 
d="M594 0h-81l316 312h-685v-312h-62v368h747l-316 312h81l340 -340z" />
    <glyph glyph-name="uni21B2.salt" horiz-adv-x="972" 
d="M378 680h81l-317 -312h686v312h62v-368h-748l317 -312h-81l-340 340z" />
    <glyph glyph-name="uni21B3.salt" horiz-adv-x="972" 
d="M513 680h81l340 -340l-340 -340h-81l316 312h-747v368h62v-312h685z" />
    <glyph glyph-name="uni21B4.salt" horiz-adv-x="840" 
d="M80 244v79l309 -313v691h-309v55h371v-746l309 313v-79l-340 -340z" />
    <glyph glyph-name="carriagereturn.salt" horiz-adv-x="972" 
d="M378 680h81l-317 -312h686v312h62v-368h-748l317 -312h-81l-340 340z" />
    <glyph glyph-name="uni2B0F.salt" horiz-adv-x="840" 
d="M80 347v79l340 340l340 -340v-79l-309 313v-746h-371v55h309v691z" />
    <glyph glyph-name="uni2B11.salt" horiz-adv-x="840" 
d="M760 426v-79l-309 313v-691h309v-55h-371v746l-309 -313v79l340 340z" />
    <glyph glyph-name="uni2B10.salt" horiz-adv-x="840" 
d="M760 323v-79l-340 -340l-340 340v79l309 -313v746h371v-55h-309v-691z" />
    <glyph glyph-name="caron.alt" 
d="M227 552h-48l49 128h82z" />
    <glyph glyph-name="commaturn" horiz-adv-x="170" 
d="M124 586h-82v64q0 54 15 88q22 48 71 61v-43q-25 -9 -34 -27t-9 -49h39v-94z" />
    <glyph glyph-name="zero.tlfslash" horiz-adv-x="590" 
d="M295 -12q-89 0 -148 51t-82.5 127t-23.5 173q0 157 65 255t189 98t189 -98.5t65 -254.5q0 -57 -8.5 -107t-28 -95.5t-48 -78t-72 -51.5t-97.5 -19zM440 540l-258 -453q44 -44 113 -44q52 0 89.5 24.5t57.5 67.5t29 93.5t9 112.5q0 122 -40 199zM146 139l257 454
q-45 45 -108 45q-90 0 -138 -83t-48 -214q0 -127 37 -202z" />
    <glyph glyph-name="zero.plfslash" horiz-adv-x="608" 
d="M304 -12q-89 0 -148 51t-82.5 127t-23.5 173q0 157 65 255t189 98t189 -98.5t65 -254.5q0 -57 -8.5 -107t-28 -95.5t-48 -78t-72 -51.5t-97.5 -19zM449 540l-258 -453q44 -44 113 -44q52 0 89.5 24.5t57.5 67.5t29 93.5t9 112.5q0 122 -40 199zM155 139l257 454
q-45 45 -108 45q-90 0 -138 -83t-48 -214q0 -127 37 -202z" />
    <glyph glyph-name="zero.plf" horiz-adv-x="608" 
d="M304 638q-90 0 -138 -83t-48 -214q0 -61 9 -112t29.5 -94t58 -67.5t89.5 -24.5t89.5 24.5t57.5 67.5t29 93.5t9 112.5q0 131 -47.5 214t-137.5 83zM304 -12q-89 0 -148 51t-82.5 127t-23.5 173q0 157 65 255t189 98t189 -98.5t65 -254.5q0 -57 -8.5 -107t-28 -95.5
t-48 -78t-72 -51.5t-97.5 -19z" />
    <glyph glyph-name="one.plf" horiz-adv-x="341" 
d="M259 0h-61v523q-41 -41 -145 -41q-21 0 -32 1v53h16q76 0 116 29q49 36 52 116h54v-681z" />
    <glyph glyph-name="two.plf" horiz-adv-x="537" 
d="M141 369l-72 11q-23 49 -23 108q0 87 59.5 145.5t157.5 58.5q107 0 164.5 -62.5t57.5 -158.5q0 -51 -15.5 -96t-47.5 -84.5t-59.5 -66t-72.5 -62.5q-95 -76 -149 -107h347v-55h-434v55q89 59 235 181q65 59 98 110t33 123q0 78 -45.5 124t-113.5 46q-72 0 -112 -44
t-40 -109q0 -72 32 -117z" />
    <glyph glyph-name="three.plf" horiz-adv-x="543" 
d="M112 504l-58 21q0 22 11.5 48.5t34.5 54t66.5 46t99.5 18.5q100 0 155 -50.5t55 -125.5q0 -65 -35.5 -104t-93.5 -48q61 -12 104 -55.5t43 -118.5q0 -89 -63 -145.5t-167 -56.5q-99 0 -160 51t-64 140l60 19q4 -82 49.5 -119t115.5 -37q68 0 115.5 41t47.5 108
q0 88 -73 120q-40 20 -150 20h-51v53h43q105 0 152 23q64 29 64 107q0 53 -39 89t-108 36q-71 0 -111 -38.5t-43 -96.5z" />
    <glyph glyph-name="four.plf" horiz-adv-x="540" 
d="M393 183v-183h-61v183h-313v43l318 458h56v-446h124v-55h-124zM91 238h241v226q0 97 4 136h-1q-17 -36 -83 -132z" />
    <glyph glyph-name="five.plf" horiz-adv-x="537" 
d="M140 625l-15 -235q19 29 59.5 50t94.5 21q96 0 157.5 -62.5t61.5 -167.5t-61 -174t-170 -69q-88 0 -147 43.5t-75 123.5l56 32q9 -58 51 -101.5t115 -43.5q75 0 119.5 51t44.5 138q0 76 -42 125.5t-119 49.5q-66 0 -105 -36t-49 -97l-54 12l22 395h368v-55h-312z" />
    <glyph glyph-name="six.plf" horiz-adv-x="564" 
d="M502 535l-58 -22q-4 16 -7.5 27t-14.5 32t-25 33.5t-39 23t-56 10.5q-89 0 -134.5 -74.5t-50.5 -206.5q25 39 75.5 65t112.5 26q91 0 153 -59t62 -163q0 -98 -61 -168.5t-164 -70.5q-112 0 -178 87t-66 262q0 169 65.5 262t188.5 93q49 0 87 -15.5t60 -41t34 -50.5
t16 -50zM118 286q5 -114 51 -179t126 -65q68 0 114 49t46 130q0 83 -46.5 128t-114.5 45q-60 0 -110 -33.5t-66 -74.5z" />
    <glyph glyph-name="seven.plf" horiz-adv-x="501" 
d="M490 680v-51q-94 -145 -147 -276q-64 -157 -87 -353h-69q18 181 96 362q56 130 138 263h-330v-155h-57v210h456z" />
    <glyph glyph-name="eight.plf" horiz-adv-x="570" 
d="M285 692q102 0 159.5 -49t57.5 -126q0 -56 -33 -97t-82 -56q134 -49 134 -176q0 -84 -60 -142t-176 -58q-117 0 -176.5 58t-59.5 142q0 72 40 115t94 62q-50 14 -82.5 54.5t-32.5 97.5q0 77 57.5 126t159.5 49zM285 42q81 0 125 41.5t44 104.5q0 66 -45.5 105.5
t-123.5 39.5t-124 -39.5t-46 -105.5q0 -63 44.5 -104.5t125.5 -41.5zM285 387q72 0 112.5 36.5t40.5 90.5q0 57 -41.5 91.5t-111.5 34.5t-111.5 -34.5t-41.5 -91.5q0 -54 40.5 -90.5t112.5 -36.5z" />
    <glyph glyph-name="nine.plf" horiz-adv-x="564" 
d="M62 144l58 22q5 -21 11 -35.5t21 -38.5t43.5 -37.5t66.5 -13.5q89 0 134.5 74.5t50.5 206.5q-25 -39 -75.5 -65t-112.5 -26q-91 0 -153 59t-62 163q0 98 61 168.5t164 70.5q112 0 178 -87t66 -262q0 -169 -65.5 -262.5t-188.5 -93.5q-49 0 -87 15.5t-60 41t-34 50.5
t-16 50zM446 396q-5 113 -51 178t-126 65q-68 0 -114 -49t-46 -130q0 -83 46.5 -128t114.5 -45q60 0 110 33.5t66 75.5z" />
    <glyph glyph-name="at.case" horiz-adv-x="804" 
d="M505 286v79q-7 -2 -40 -8l-69 -13q-96 -19 -96 -81q0 -38 23.5 -59t64.5 -21q51 0 84 26t33 77zM590 183q46 0 81 59t35 153q0 122 -76.5 208t-203.5 86q-143 0 -234 -95.5t-91 -249.5q0 -153 93.5 -247.5t237.5 -94.5q168 0 277 138l28 -40q-113 -145 -305 -145
q-174 0 -280.5 107.5t-106.5 281.5q0 175 107 283t274 108q103 0 180.5 -48t114.5 -122.5t37 -161.5q0 -126 -52.5 -196.5t-124.5 -70.5q-66 0 -74 58q-14 -25 -48.5 -42.5t-77.5 -17.5q-64 0 -102.5 34t-38.5 95q0 56 36.5 84.5t106.5 41.5l104 20q11 2 14.5 5t3.5 14v13
q0 43 -22.5 63.5t-76.5 20.5q-99 0 -101 -100l-54 13q-1 63 43.5 99.5t115.5 36.5q72 0 110.5 -28.5t38.5 -105.5v-201q0 -28 5.5 -42t25.5 -14z" />
    <glyph glyph-name="bar.case" horiz-adv-x="207" 
d="M133 760v-838h-59v838h59z" />
    <glyph glyph-name="plus.case" horiz-adv-x="648" 
d="M353 309v-269h-57v269h-265v56h265v268h57v-268h264v-56h-264z" />
    <glyph glyph-name="minus.case" horiz-adv-x="818" 
d="M740 369v-57h-673v57h673z" />
    <glyph glyph-name="plusminus.case" horiz-adv-x="712" 
d="M385 373v-216h-57v216h-265v56h265v214h57v-214h264v-56h-264zM649 107v-57h-586v57h586z" />
    <glyph glyph-name="multiply.case" horiz-adv-x="632" 
d="M584 552l-228 -228l228 -228l-40 -40l-228 228l-228 -228l-40 40l228 228l-228 228l40 40l228 -228l228 228z" />
    <glyph glyph-name="divide.case" horiz-adv-x="799" 
d="M736 367v-57h-673v57h673zM360 576h78v-100h-78v100zM360 201h78v-101h-78v101z" />
    <glyph glyph-name="equal.case" horiz-adv-x="831" 
d="M746 271v-56h-673v56h673zM746 446v-57h-673v57h673z" />
    <glyph glyph-name="notequal.case" horiz-adv-x="785" 
d="M727 446v-57h-297l-62 -118h359v-56h-388l-92 -175h-63l92 175h-222v56h252l62 118h-314v57h344l100 189h62l-100 -189h267z" />
    <glyph glyph-name="approxequal.case" horiz-adv-x="580" 
d="M492 477l29 -48q-62 -77 -126 -77q-37 0 -98 30l-41 20q-42 19 -72 19q-27 0 -43 -12.5t-48 -50.5l-31 46q52 81 122 81q36 0 98 -28l47 -22q46 -21 66 -21q46 0 97 63zM492 290l29 -48q-62 -77 -126 -77q-37 0 -98 30l-41 20q-42 19 -72 19q-27 0 -43 -12.5t-48 -50.5
l-31 46q52 81 122 81q36 0 98 -28l47 -22q46 -21 66 -21q46 0 97 63z" />
    <glyph glyph-name="logicalnot.case" horiz-adv-x="513" 
d="M444 454v-233h-59v180h-337v53h396z" />
    <glyph glyph-name="parenleft.case" horiz-adv-x="238" 
d="M218 -81l-49 -9q-125 198 -125 418q0 221 124 422l50 -7q-112 -191 -112 -412t112 -412z" />
    <glyph glyph-name="parenright.case" horiz-adv-x="238" 
d="M69 -90l-49 9q112 191 112 412t-112 412l50 7q124 -201 124 -422q0 -220 -125 -418z" />
    <glyph glyph-name="hyphen.case" horiz-adv-x="407" 
d="M342 348v-59h-277v59h277z" />
    <glyph glyph-name="bracketleft.case" horiz-adv-x="270" 
d="M242 -40v-48h-168v838h168v-48h-109v-742h109z" />
    <glyph glyph-name="bracketright.case" horiz-adv-x="270" 
d="M28 -88v48h109v742h-109v48h168v-838h-168z" />
    <glyph glyph-name="braceleft.case" horiz-adv-x="266" 
d="M32 316v39q45 11 56.5 38t11.5 82v162q0 67 27 90t89 23h20v-43q-49 0 -62.5 -19.5t-13.5 -82.5v-133q0 -66 -16.5 -96t-62.5 -40v-1q46 -10 62.5 -40t16.5 -96v-142q0 -63 13.5 -82.5t62.5 -19.5v-43h-20q-62 0 -89 23t-27 90v171q0 28 -1.5 43t-7.5 33t-20.5 28
t-38.5 16z" />
    <glyph glyph-name="braceright.case" horiz-adv-x="266" 
d="M234 355v-39q-45 -11 -56.5 -38t-11.5 -82v-171q0 -67 -27 -90t-89 -23h-20v43q49 0 62.5 19.5t13.5 82.5v142q0 66 16.5 96t62.5 40v1q-46 10 -62.5 40t-16.5 96v133q0 63 -13.5 82.5t-62.5 19.5v43h20q62 0 89 -23t27 -90v-162q0 -28 1.5 -43t7.5 -33t20.5 -28
t38.5 -16z" />
    <glyph glyph-name="guillemotleft.case" horiz-adv-x="400" 
d="M208 282v73l134 137v-74l-102 -98l102 -100v-78zM49 282v73l134 137v-74l-102 -98l102 -100v-78z" />
    <glyph glyph-name="uni00AD.case" horiz-adv-x="407" 
d="M342 348v-59h-277v59h277z" />
    <glyph glyph-name="guillemotright.case" horiz-adv-x="399" 
d="M191 355v-73l-133 -140v78l101 100l-101 98v74zM350 355v-73l-133 -140v78l101 100l-101 98v74z" />
    <glyph glyph-name="endash.case" horiz-adv-x="638" 
d="M573 348v-56h-508v56h508z" />
    <glyph glyph-name="emdash.case" horiz-adv-x="829" 
d="M764 348v-56h-699v56h699z" />
    <glyph glyph-name="guilsinglleft.case" horiz-adv-x="241" 
d="M49 282v73l134 137v-76l-100 -96l100 -98v-80z" />
    <glyph glyph-name="guilsinglright.case" horiz-adv-x="241" 
d="M192 355v-73l-134 -140v80l100 98l-100 96v76z" />
    <glyph glyph-name="brokenbar.case" horiz-adv-x="209" 
d="M134 680v-323h-59v323h59zM134 165v-323h-59v323h59z" />
    <glyph glyph-name="one.salt" horiz-adv-x="590" 
d="M364 681v-626h177v-55h-415v55h177v468q-41 -41 -145 -41q-21 0 -32 1v53h16q76 0 116 29q49 36 52 116h54z" />
    <glyph glyph-name="one.plfsalt" horiz-adv-x="425" 
d="M278 681v-626h177v-55h-415v55h177v468q-41 -41 -145 -41q-21 0 -32 1v53h16q76 0 116 29q49 36 52 116h54z" />
    <glyph glyph-name="M.salt" horiz-adv-x="777" 
d="M583 463l-172 -327h-35l-177 324q-38 71 -57 111h-1q4 -64 4 -138v-433h-63v680h64l201 -366l19.5 -37.5t28.5 -50.5q12 26 45 89l191 365h64v-680h-63v416q0 69 5 159h-1q-25 -59 -53 -112z" />
    <glyph glyph-name="G.salt" horiz-adv-x="662" 
d="M335 -12q-136 0 -211.5 94.5t-75.5 257.5q0 162 76.5 257t210.5 95q98 0 160 -47t92 -117l-56 -35q-25 64 -74 104t-122 40q-102 0 -161.5 -81.5t-59.5 -215.5t59.5 -215t161.5 -81q98 0 154 68t64 176h-268v57h335v-9q0 -56 -9 -100q-22 -115 -93.5 -181.5t-182.5 -66.5
z" />
    <glyph glyph-name="Gcircumflex.salt" horiz-adv-x="662" 
d="M416 753l-79 81l-79 -81h-61l119 136h42l119 -136h-61zM335 -12q-136 0 -211.5 94.5t-75.5 257.5q0 162 76.5 257t210.5 95q98 0 160 -47t92 -117l-56 -35q-25 64 -74 104t-122 40q-102 0 -161.5 -81.5t-59.5 -215.5t59.5 -215t161.5 -81q98 0 154 68t64 176h-268v57h335
v-9q0 -56 -9 -100q-22 -115 -93.5 -181.5t-182.5 -66.5z" />
    <glyph glyph-name="Gcommaaccent.salt" horiz-adv-x="662" 
d="M335 -12q-136 0 -211.5 94.5t-75.5 257.5q0 162 76.5 257t210.5 95q98 0 160 -47t92 -117l-56 -35q-25 64 -74 104t-122 40q-102 0 -161.5 -81.5t-59.5 -215.5t59.5 -215t161.5 -81q98 0 154 68t64 176h-268v57h335v-9q0 -56 -9 -100q-22 -115 -93.5 -181.5t-182.5 -66.5
zM299 -65h82v-64q0 -53 -15 -88q-22 -48 -71 -61v43q25 9 34 27t9 49h-39v94z" />
    <glyph glyph-name="Gdotaccent.salt" horiz-adv-x="662" 
d="M335 -12q-136 0 -211.5 94.5t-75.5 257.5q0 162 76.5 257t210.5 95q98 0 160 -47t92 -117l-56 -35q-25 64 -74 104t-122 40q-102 0 -161.5 -81.5t-59.5 -215.5t59.5 -215t161.5 -81q98 0 154 68t64 176h-268v57h335v-9q0 -56 -9 -100q-22 -115 -93.5 -181.5t-182.5 -66.5
zM307 768v91h68v-91h-68z" />
    <glyph glyph-name="Gbreve.salt" horiz-adv-x="662" 
d="M335 -12q-136 0 -211.5 94.5t-75.5 257.5q0 162 76.5 257t210.5 95q98 0 160 -47t92 -117l-56 -35q-25 64 -74 104t-122 40q-102 0 -161.5 -81.5t-59.5 -215.5t59.5 -215t161.5 -81q98 0 154 68t64 176h-268v57h335v-9q0 -56 -9 -100q-22 -115 -93.5 -181.5t-182.5 -66.5
zM337 783q70 0 86 67h48q-7 -54 -42.5 -83t-91.5 -29t-91.5 29t-42.5 83h48q16 -67 86 -67z" />
    <glyph glyph-name="I.salt" horiz-adv-x="251" 
d="M226 0h-201v54h69v572h-69v54h201v-54h-69v-572h69v-54z" />
    <glyph glyph-name="Iacute.salt" horiz-adv-x="251" 
d="M142 753h-56l102 136h96zM226 0h-201v54h69v572h-69v54h201v-54h-69v-572h69v-54z" />
    <glyph glyph-name="Icircumflex.salt" horiz-adv-x="251" 
d="M205 753l-79 81l-79 -81h-61l119 136h42l119 -136h-61zM226 0h-201v54h69v572h-69v54h201v-54h-69v-572h69v-54z" />
    <glyph glyph-name="Idieresis.salt" horiz-adv-x="251" 
d="M1 768v91h62v-91h-62zM188 768v91h62v-91h-62zM226 0h-201v54h69v572h-69v54h201v-54h-69v-572h69v-54z" />
    <glyph glyph-name="Igrave.salt" horiz-adv-x="251" 
d="M171 753h-56l-142 136h96zM226 0h-201v54h69v572h-69v54h201v-54h-69v-572h69v-54z" />
    <glyph glyph-name="Itilde.salt" horiz-adv-x="251" 
d="M226 0h-201v54h69v572h-69v54h201v-54h-69v-572h69v-54zM242 868l41 -10q-10 -21 -16 -32t-18 -27t-27 -23.5t-33 -7.5q-27 0 -77 26q-44 22 -55 22q-33 0 -47 -47l-42 9q36 90 96 90q23 0 67 -22q46 -23 62 -23q34 0 49 45z" />
    <glyph glyph-name="Ibreve.salt" horiz-adv-x="251" 
d="M226 0h-201v54h69v572h-69v54h201v-54h-69v-572h69v-54zM126 783q70 0 86 67h48q-7 -54 -42.5 -83t-91.5 -29t-91.5 29t-42.5 83h48q16 -67 86 -67z" />
    <glyph glyph-name="Iogonek.salt" horiz-adv-x="251" 
d="M226 0h-47q-111 -67 -111 -126q0 -51 54 -51q12 0 22 3l18 -41q-22 -6 -46 -6q-45 0 -71.5 24.5t-26.5 66.5q0 69 104 130h-97v54h69v572h-69v54h201v-54h-69v-572h69v-54z" />
    <glyph glyph-name="Idotaccent.salt" horiz-adv-x="251" 
d="M226 0h-201v54h69v572h-69v54h201v-54h-69v-572h69v-54zM92 768v91h68v-91h-68z" />
    <glyph glyph-name="IJ.salt" horiz-adv-x="676" 
d="M226 0h-201v54h69v572h-69v54h201v-54h-69v-572h69v-54zM539 624h-221v56h283v-494q0 -103 -56 -151q-56 -47 -167 -47q-35 0 -75 8v56q30 -10 83 -10q99 0 130 53q23 40 23 149v380z" />
    <glyph glyph-name="Imacron.salt" horiz-adv-x="251" 
d="M226 0h-201v54h69v572h-69v54h201v-54h-69v-572h69v-54zM-10 778v53h271v-53h-271z" />
    <glyph glyph-name="J.salt" horiz-adv-x="419" 
d="M281 624h-221v56h283v-494q0 -103 -56 -151q-56 -47 -167 -47q-35 0 -75 8v56q30 -10 83 -10q99 0 130 53q23 40 23 149v380z" />
    <glyph glyph-name="Jcircumflex.salt" horiz-adv-x="419" 
d="M281 624h-221v56h283v-494q0 -103 -56 -151q-56 -47 -167 -47q-35 0 -75 8v56q30 -10 83 -10q99 0 130 53q23 40 23 149v380zM308 753l-79 81l-79 -81h-61l119 136h42l119 -136h-61z" />
    <glyph glyph-name="g.salt" horiz-adv-x="481" 
d="M475 526v-54q-9 3 -23 3q-23 0 -40.5 -13.5t-18.5 -40.5v-5q26 -41 26 -90q-1 -78 -51.5 -121t-129.5 -43q-46 0 -88 15q-26 -13 -26 -41q0 -23 16 -34.5t55 -11.5h75q42 0 73.5 -5t62 -18t47 -41.5t16.5 -70.5q0 -73 -60.5 -113t-153.5 -40q-96 0 -154.5 35t-58.5 105
q0 45 28 72t65 36v1q-66 11 -66 72q0 49 55 71q-34 25 -51.5 53t-17.5 81q0 69 52 114t132 45q74 0 122 -37q5 38 31 57.5t63 19.5q13 0 20 -1zM101 -51q0 -48 41 -73.5t113 -25.5t113 26t41 76q0 29 -12 47.5t-37 26.5t-48 10.5t-60 2.5h-65q-86 -16 -86 -90zM360 325
q0 55 -33.5 85.5t-87.5 30.5q-55 0 -90 -31t-35 -85q0 -55 33.5 -86t90.5 -31q56 0 88.5 30.5t33.5 86.5z" />
    <glyph glyph-name="gbreve.salt" horiz-adv-x="481" 
d="M475 526v-54q-9 3 -23 3q-23 0 -40.5 -13.5t-18.5 -40.5v-5q26 -41 26 -90q-1 -78 -51.5 -121t-129.5 -43q-46 0 -88 15q-26 -13 -26 -41q0 -23 16 -34.5t55 -11.5h75q42 0 73.5 -5t62 -18t47 -41.5t16.5 -70.5q0 -73 -60.5 -113t-153.5 -40q-96 0 -154.5 35t-58.5 105
q0 45 28 72t65 36v1q-66 11 -66 72q0 49 55 71q-34 25 -51.5 53t-17.5 81q0 69 52 114t132 45q74 0 122 -37q5 38 31 57.5t63 19.5q13 0 20 -1zM101 -51q0 -48 41 -73.5t113 -25.5t113 26t41 76q0 29 -12 47.5t-37 26.5t-48 10.5t-60 2.5h-65q-86 -16 -86 -90zM360 325
q0 55 -33.5 85.5t-87.5 30.5q-55 0 -90 -31t-35 -85q0 -55 33.5 -86t90.5 -31q56 0 88.5 30.5t33.5 86.5zM247 582q70 0 86 67h48q-7 -54 -42.5 -83t-91.5 -29t-91.5 29t-42.5 83h48q16 -67 86 -67z" />
    <glyph glyph-name="gcommaaccent.salt" horiz-adv-x="481" 
d="M475 526v-54q-9 3 -23 3q-23 0 -40.5 -13.5t-18.5 -40.5v-5q26 -41 26 -90q-1 -78 -51.5 -121t-129.5 -43q-46 0 -88 15q-26 -13 -26 -41q0 -23 16 -34.5t55 -11.5h75q42 0 73.5 -5t62 -18t47 -41.5t16.5 -70.5q0 -73 -60.5 -113t-153.5 -40q-96 0 -154.5 35t-58.5 105
q0 45 28 72t65 36v1q-66 11 -66 72q0 49 55 71q-34 25 -51.5 53t-17.5 81q0 69 52 114t132 45q74 0 122 -37q5 38 31 57.5t63 19.5q13 0 20 -1zM101 -51q0 -48 41 -73.5t113 -25.5t113 26t41 76q0 29 -12 47.5t-37 26.5t-48 10.5t-60 2.5h-65q-86 -16 -86 -90zM360 325
q0 55 -33.5 85.5t-87.5 30.5q-55 0 -90 -31t-35 -85q0 -55 33.5 -86t90.5 -31q56 0 88.5 30.5t33.5 86.5zM286 586h-82v64q0 54 15 88q22 48 71 61v-43q-25 -9 -34 -27t-9 -49h39v-94z" />
    <glyph glyph-name="gdotaccent.salt" horiz-adv-x="481" 
d="M475 526v-54q-9 3 -23 3q-23 0 -40.5 -13.5t-18.5 -40.5v-5q26 -41 26 -90q-1 -78 -51.5 -121t-129.5 -43q-46 0 -88 15q-26 -13 -26 -41q0 -23 16 -34.5t55 -11.5h75q42 0 73.5 -5t62 -18t47 -41.5t16.5 -70.5q0 -73 -60.5 -113t-153.5 -40q-96 0 -154.5 35t-58.5 105
q0 45 28 72t65 36v1q-66 11 -66 72q0 49 55 71q-34 25 -51.5 53t-17.5 81q0 69 52 114t132 45q74 0 122 -37q5 38 31 57.5t63 19.5q13 0 20 -1zM101 -51q0 -48 41 -73.5t113 -25.5t113 26t41 76q0 29 -12 47.5t-37 26.5t-48 10.5t-60 2.5h-65q-86 -16 -86 -90zM360 325
q0 55 -33.5 85.5t-87.5 30.5q-55 0 -90 -31t-35 -85q0 -55 33.5 -86t90.5 -31q56 0 88.5 30.5t33.5 86.5zM213 579v91h68v-91h-68z" />
    <glyph glyph-name="gcircumflex.salt" horiz-adv-x="481" 
d="M475 526v-54q-9 3 -23 3q-23 0 -40.5 -13.5t-18.5 -40.5v-5q26 -41 26 -90q-1 -78 -51.5 -121t-129.5 -43q-46 0 -88 15q-26 -13 -26 -41q0 -23 16 -34.5t55 -11.5h75q42 0 73.5 -5t62 -18t47 -41.5t16.5 -70.5q0 -73 -60.5 -113t-153.5 -40q-96 0 -154.5 35t-58.5 105
q0 45 28 72t65 36v1q-66 11 -66 72q0 49 55 71q-34 25 -51.5 53t-17.5 81q0 69 52 114t132 45q74 0 122 -37q5 38 31 57.5t63 19.5q13 0 20 -1zM101 -51q0 -48 41 -73.5t113 -25.5t113 26t41 76q0 29 -12 47.5t-37 26.5t-48 10.5t-60 2.5h-65q-86 -16 -86 -90zM360 325
q0 55 -33.5 85.5t-87.5 30.5q-55 0 -90 -31t-35 -85q0 -55 33.5 -86t90.5 -31q56 0 88.5 30.5t33.5 86.5zM213 579v91h68v-91h-68z" />
    <glyph glyph-name="y.salt" horiz-adv-x="521" 
d="M74 189v287h59v-261q0 -95 30 -130q28 -31 85 -31q68 0 101.5 45t33.5 105v272h59v-458q0 -112 -46.5 -164t-146.5 -52q-90 0 -133 42t-45 115l55 16q5 -59 32 -91t92 -32q44 0 71.5 13.5t40.5 42t17 57t4 73.5v51q-15 -38 -53.5 -64t-95.5 -26q-76 0 -118 46
q-42 47 -42 144z" />
    <glyph glyph-name="yacute.salt" horiz-adv-x="521" 
d="M74 189v287h59v-261q0 -95 30 -130q28 -31 85 -31q68 0 101.5 45t33.5 105v272h59v-458q0 -112 -46.5 -164t-146.5 -52q-90 0 -133 42t-45 115l55 16q5 -59 32 -91t92 -32q44 0 71.5 13.5t40.5 42t17 57t4 73.5v51q-15 -38 -53.5 -64t-95.5 -26q-76 0 -118 46
q-42 47 -42 144zM289 680h94l-132 -128h-56z" />
    <glyph glyph-name="ycircumflex.salt" horiz-adv-x="521" 
d="M74 189v287h59v-261q0 -95 30 -130q28 -31 85 -31q68 0 101.5 45t33.5 105v272h59v-458q0 -112 -46.5 -164t-146.5 -52q-90 0 -133 42t-45 115l55 16q5 -59 32 -91t92 -32q44 0 71.5 13.5t40.5 42t17 57t4 73.5v51q-15 -38 -53.5 -64t-95.5 -26q-76 0 -118 46
q-42 47 -42 144zM184 552h-63l113 128h42l113 -128h-63l-70 75z" />
    <glyph glyph-name="ydieresis.salt" horiz-adv-x="521" 
d="M74 189v287h59v-261q0 -95 30 -130q28 -31 85 -31q68 0 101.5 45t33.5 105v272h59v-458q0 -112 -46.5 -164t-146.5 -52q-90 0 -133 42t-45 115l55 16q5 -59 32 -91t92 -32q44 0 71.5 13.5t40.5 42t17 57t4 73.5v51q-15 -38 -53.5 -64t-95.5 -26q-76 0 -118 46
q-42 47 -42 144zM131 566v91h62v-91h-62zM318 566v91h62v-91h-62z" />
    <glyph glyph-name="ygrave.salt" horiz-adv-x="521" 
d="M74 189v287h59v-261q0 -95 30 -130q28 -31 85 -31q68 0 101.5 45t33.5 105v272h59v-458q0 -112 -46.5 -164t-146.5 -52q-90 0 -133 42t-45 115l55 16q5 -59 32 -91t92 -32q44 0 71.5 13.5t40.5 42t17 57t4 73.5v51q-15 -38 -53.5 -64t-95.5 -26q-76 0 -118 46
q-42 47 -42 144zM137 680h94l94 -128h-56z" />
    <glyph glyph-name="l.salt" horiz-adv-x="239" 
d="M224 46v-50q-20 -6 -45 -6q-57 0 -83 30q-22 25 -22 78v582h59v-575q0 -36 12 -51q11 -14 36 -14q23 0 43 6z" />
    <glyph glyph-name="lacute.salt" horiz-adv-x="239" 
d="M224 46v-50q-20 -6 -45 -6q-57 0 -83 30q-22 25 -22 78v582h59v-575q0 -36 12 -51q11 -14 36 -14q23 0 43 6zM130 753h-56l102 136h96z" />
    <glyph glyph-name="lcaron.salt" horiz-adv-x="239" 
d="M224 46v-50q-20 -6 -45 -6q-57 0 -83 30q-22 25 -22 78v582h59v-575q0 -36 12 -51q11 -14 36 -14q23 0 43 6zM225 552h-48l49 128h82z" />
    <glyph glyph-name="lcommaaccent.salt" horiz-adv-x="239" 
d="M224 46v-50q-20 -6 -45 -6q-57 0 -83 30q-22 25 -22 78v582h59v-575q0 -36 12 -51q11 -14 36 -14q23 0 43 6zM92 -65h82v-64q0 -53 -15 -88q-22 -48 -71 -61v43q25 9 34 27t9 49h-39v94z" />
    <glyph glyph-name="ldot.salt" horiz-adv-x="281" 
d="M224 46v-50q-20 -6 -45 -6q-57 0 -83 30q-22 25 -22 78v582h59v-575q0 -36 12 -51q11 -14 36 -14q23 0 43 6zM201 476h78v-114h-78v114z" />
    <glyph glyph-name="fl.salt" horiz-adv-x="545" 
d="M283 476v-46h-108v-430h-59v430h-108v46h108v108q0 53 22 78q26 30 84 30q30 0 61 -9v-54q-32 10 -57 10q-23 0 -36 -11q-15 -14 -15 -52v-100h108zM530 46v-50q-19 -6 -45 -6q-57 0 -83 30q-22 25 -22 78v582h59v-575q0 -36 12 -51q11 -14 36 -14q24 0 43 6z" />
    <glyph glyph-name="q.salt" horiz-adv-x="539" 
d="M556 -83v-48q-30 -1 -60.5 -15.5t-40.5 -43.5h-54v275q-43 -97 -158 -97q-89 0 -143.5 66t-54.5 182q0 117 55.5 184t145.5 67q55 0 96 -27t59 -69v85h59v-610q9 20 36 35t60 16zM403 237q0 96 -39 147.5t-107 51.5q-70 0 -110 -51.5t-40 -146.5t38.5 -147t109.5 -52
q69 0 108.5 51.5t39.5 146.5z" />
    <glyph glyph-name="lslash.salt" horiz-adv-x="239" 
d="M224 46v-50q-20 -6 -45 -6q-57 0 -83 30q-22 25 -22 78v216l-67 -43v63l67 43v303h59v-264l72 47v-63l-72 -47v-248q0 -36 12 -51q11 -14 36 -14q23 0 43 6z" />
    <glyph glyph-name="idotaccent" horiz-adv-x="197" 
d="M128 476v-476h-59v476h59zM128 680v-98h-59v98h59z" />
    </font>
</defs>
</svg>
