<svg id="Layer_2" data-name="Layer 2" xmlns="http://www.w3.org/2000/svg" viewBox="0 0 20.97 45.42">
  <defs>
    <style>
      .cls-1, .cls-2 {
        stroke: #fff;
        stroke-miterlimit: 10;
      }

      .cls-2 {
        fill: none;
        stroke-width: 0.75px;
      }
    </style>
  </defs>
  <title>marker-icon</title>
  <path class="cls-1" d="M6.9.3s-.2,8.9-.4,10S.8,17,.4,18.2a9.62,9.62,0,0,0,0,3.5S1.3,25,1.5,26a4.05,4.05,0,0,0,1,1.8l.6,13.3s-.2,3.2,1.6,3.5,1.7-2,1.7-2,.3-10.7.2-11.4a1.18,1.18,0,0,1,.7-1,19.94,19.94,0,0,0,0,2.5c.1.6.4,2.5,2.4,2.5s2.2-2.3,2.2-2.3.4.9,2.1.9,2.1-3,2.1-3,.1.4,1.4,0c1.8-.5,1.5-1.9,1.5-1.9s-.1-1.2-.2-2.6.9-1.9,1-2.7a21.73,21.73,0,0,0,.3-5.8c-.3-2.6-1.5-5-1.6-6.7s.8-9,.8-9Z" transform="translate(0.28 0.28)"/>
  <path class="cls-2" d="M11.9,32.8s.3-3.4.3-4.6a10.65,10.65,0,0,0-.8-3l-.6-2a3.25,3.25,0,0,0-1.7-.4c-1.1,0-1.9,1.7-1.9,1.7l.3,1.2a12.55,12.55,0,0,1,.9,2.9,1.38,1.38,0,0,1-1,1.5c-.6.1-1-1.1-1.4-1.6-1-1-2.8-.4-3.4-.8" transform="translate(0.28 0.28)"/>
  <polyline class="cls-2" points="4.18 20.48 5.48 22.18 5.78 24.38 7.38 24.88"/>
  <path class="cls-2" d="M10.7,23.3s.4-1.2,1.4-1.2a3.72,3.72,0,0,1,1.7.4A32,32,0,0,1,16,30.6" transform="translate(0.28 0.28)"/>
  <path class="cls-2" d="M18.9,26.1c-.1-.4-1.9-3.7-4.1-4-.9,0-.9.4-.9.4" transform="translate(0.28 0.28)"/>
</svg>
