<?xml version="1.0" encoding="utf-8"?>
<!-- Generator: Adobe Illustrator 21.0.0, SVG Export Plug-In . SVG Version: 6.00 Build 0)  -->
<svg version="1.1" id="Calque_1" xmlns="http://www.w3.org/2000/svg" xmlns:xlink="http://www.w3.org/1999/xlink" x="0px" y="0px"
	 viewBox="0 0 662.4 1077.1" style="enable-background:new 0 0 662.4 1077.1;" xml:space="preserve">
<style type="text/css">
	.st0{fill:#FFFFFF;}
</style>
<g>
	<path d="M331.2,1062c-14.4,0-26.8-10.3-29.5-24.5c-43.6-231.8-124.1-358.6-188.8-460.4C58.2,491,15,423,15,327.6
		c0-41,8.4-81.3,25-119.7c16-37,38.8-70.5,67.8-99.4c29.1-29.1,62.9-52.1,100.3-68.2c39.2-16.9,80.6-25.4,123-25.4
		s83.8,8.6,123,25.4c37.4,16.1,71.2,39.1,100.3,68.2c29,28.9,51.8,62.4,67.8,99.4c16.6,38.4,25,78.7,25,119.7
		c0,95.5-43.2,163.5-97.9,249.5c-64.5,101.9-145,228.6-188.6,460.5C358,1051.7,345.6,1062,331.2,1062z M331.2,254.3
		c-40.3,0-73,32.8-73,73s32.8,73,73,73s73-32.8,73-73S371.5,254.3,331.2,254.3z"/>
	<path class="st0" d="M331.2,30c40.4,0,79.8,8.1,117.1,24.2c35.7,15.4,67.9,37.2,95.7,65c27.6,27.6,49.4,59.5,64.6,94.8
		c15.8,36.4,23.8,74.7,23.8,113.6c0,91.1-42.2,157.5-95.5,241.5C471.5,672,390.2,800.1,346,1034.7c-1.3,7.1-7.5,12.2-14.7,12.2
		s-13.4-5.1-14.7-12.2C272.4,800,191.1,672,125.7,569.1c-53.4-84-95.5-150.4-95.5-241.5c0-38.9,8-77.2,23.8-113.7
		c15.3-35.3,37-67.2,64.6-94.8c27.8-27.8,60-49.7,95.7-65C251.4,38.1,290.8,30,331.2,30 M331.2,415.3c48.5,0,88-39.5,88-88
		s-39.5-88-88-88s-88,39.5-88,88S282.7,415.3,331.2,415.3 M331.2,0c-44.5,0-87.9,9-128.9,26.6c-39.2,16.9-74.5,40.9-105,71.4
		c-30.3,30.3-54.2,65.3-71,104.1C8.9,242.4,0,284.6,0,327.7c0,46.2,9.6,89.3,30.4,135.7c18.1,40.5,43.2,80,69.9,121.9
		c32,50.4,68.3,107.5,101.5,179.8c38.2,83.3,66.1,173.4,85.3,275.3c4,21.3,22.6,36.7,44.2,36.7c21.6,0,40.2-15.4,44.2-36.7
		c19.2-101.9,47.1-192,85.3-275.3c33.2-72.4,69.5-129.5,101.5-179.8c26.6-41.9,51.7-81.4,69.9-121.9c20.5-46.4,30.2-89.5,30.2-135.8
		c0-43.1-8.8-85.3-26.3-125.6c-16.8-38.8-40.6-73.8-71-104.1c-30.5-30.5-65.8-54.5-105-71.4C419.1,8.9,375.7,0,331.2,0L331.2,0z
		 M331.2,385.3c-32,0-58-26-58-58s26-58,58-58s58,26,58,58S363.2,385.3,331.2,385.3L331.2,385.3z"/>
</g>
</svg>
